<?xml version="1.0" encoding="utf-8"?>
<!-- Generator: Adobe Illustrator 24.2.3, SVG Export Plug-In . SVG Version: 6.00 Build 0)  -->
<svg version="1.1" id="Layer_1" xmlns="http://www.w3.org/2000/svg" xmlns:xlink="http://www.w3.org/1999/xlink" x="0px" y="0px"
	 viewBox="0 0 244 163" style="enable-background:new 0 0 244 163;" xml:space="preserve">
<style type="text/css">
	.st0{fill:#FFFFFF;}
</style>
<g>
	<path class="st0" d="M66.1,2c-1.4,1-1.7,2.6-1.7,4.3c0,1,0.2,2.1,0.4,3l6.8,31.8h0.2L80,10.2c0.3-1.3,0.9-2.6,0.9-3.9
		c0-1.6-0.4-2.9-1.1-4.2h29.6c-2.2,2.3-4,5.5-5.3,9.3l-20.8,61c-0.4,1.4-0.8,2.5-0.8,3.9c0,1.3,0.7,2.4,1.5,3.2H61.9l-7.7-32.9H54
		l-5.2,27.1c-0.2,1.1-0.3,2-0.3,2.8c0,0.9,0.3,2.2,1.2,3H28.5L5,8.5C4.1,5.9,2.7,3.5,0.6,2h30.2c-1.2,1.3-1.6,2.3-1.6,3.8
		c0,1.2,0.4,2.8,0.8,4l7.5,31.8h0.2l7.2-33.5c0.2-1,0.3-2.1,0.3-3c0-1.4-1-2.3-1.8-3.2h22.7V2z"/>
	<path class="st0" d="M143.1,2l25.8,70.7c1.1,2.9,2.7,5,4.5,6.7H142c0.5-1.2,0.8-2.7,0.8-4.1c0-2.4-0.9-4.7-1.6-7h-21.3
		c-1.2,2-1.8,4.8-1.8,7.1c0,1.2,0.3,2.8,1.2,3.5v0.5H87.7c2.8-2.7,4.1-6.6,5.7-10.8l21.5-58.4c0.4-1.2,1.1-3.5,1.1-4.8
		c0-1.7-1.1-2.6-2.4-3.5h29.5V2z M135.6,50.5l-5.1-23.8h-0.4l-4.9,23.8H135.6z"/>
	<path class="st0" d="M175.6,0.3c1.7,1.5,4.1,2.5,7,2.5c4.7,0,9.9-2.5,18.7-2.5c16.7,0,30.3,9.5,30.3,27.3c0,6.1-2.7,12.4-6.8,17
		c8.7,4.5,15.4,15,15.4,27.7c0,2.4,0.7,5.2,2.5,7.2h-29.6c1.8-2,2.5-4.8,2.5-7.2c0-6.3-7-13.7-15.4-15.4v15.4c0,2.4,0.7,5.2,2.5,7.2
		h-29.6c1.8-2,2.5-4.8,2.5-7.2L175.6,0.3L175.6,0.3z M200.2,36.8c4,0,9.2-1.4,9.2-7.2s-5.2-7.2-9.2-7.2V36.8z"/>
	<path class="st0" d="M47.8,153.6c0,2.4,0.7,5.2,2.5,7.2H20.8c1.8-2,2.5-4.8,2.5-7.2v-63c0-2.4-0.7-5.2-2.5-7.2h50.5v23
		c-2.9-1.5-6.7-1.7-10.1-1.7H47.8v8.2h7.9c2.4,0,5-0.5,7.2-1.5V132c-2.2-1-4.8-1.5-7.2-1.5h-7.9V153.6z"/>
	<path class="st0" d="M111.9,83.4l25.8,70.7c1.1,2.9,2.7,5,4.5,6.7h-31.3c0.5-1.2,0.8-2.7,0.8-4.1c0-2.4-0.9-4.7-1.6-7H88.6
		c-1.2,2-1.8,4.8-1.8,7.1c0,1.2,0.3,2.8,1.2,3.5v0.5H56.5c2.8-2.7,4.1-6.6,5.7-10.8l21.5-58.4c0.4-1.2,1.1-3.5,1.1-4.8
		c0-1.7-1.1-2.6-2.4-3.5h29.5V83.4z M104.4,131.9l-5.1-23.8h-0.4L94,131.9H104.4z"/>
	<path class="st0" d="M186,162.6c-2-0.7-4.2-0.9-6.4-0.9c-2.6,0-4.7,0.9-7.8,0.9c-22.3,0-39.2-18.6-39.2-40.4s17-40.4,39.2-40.4
		c3.2,0,5.2,0.9,7.8,0.9c2.2,0,4.5-0.2,6.4-0.9v30.7c-3.6-3.8-8.6-6.2-13.7-6.1c-9,0-15.2,7.5-15.2,16.1s6.2,15.7,15.2,15.7
		c5.1,0,10.1-2.4,13.7-6.7V162.6z"/>
	<path class="st0" d="M238.3,160.8h-48c1.8-2,2.5-4.8,2.5-7.2v-63c0-2.4-0.7-5.2-2.5-7.2h48v23.4c-3.4-1.5-7.8-2.1-11.7-2.1h-10.3
		v8.2h5.5c2.8,0,5.7-0.3,8.5-1.5V132c-2.8-1.2-5.7-1.5-8.5-1.5h-5.5v9h10.3c3.9,0,8.4-0.5,11.7-2.1V160.8z"/>
</g>
</svg>
