<svg xmlns="http://www.w3.org/2000/svg" viewBox="0 0 20 30.04"><g id="Layer_2" data-name="Layer 2"><g id="Layer_1-2" data-name="Layer 1"><path d="M14.18,29V27.56A2.13,2.13,0,0,1,15,26.13c1.37-1.36,4-3.83,4.92-6.44.5-1.4-1.2-4.12-2.2-5.25a2.78,2.78,0,0,0-1.66-.52V2.27a2.28,2.28,0,0,0-4.55,0v7.85A1.83,1.83,0,0,0,9.34,8.47a1.79,1.79,0,0,0-1.67,1.71v1.5A1.81,1.81,0,0,0,5.74,10h0a1.75,1.75,0,0,0-1.86,1.61v1.56A1.75,1.75,0,0,0,2,11.57H1.92A1.88,1.88,0,0,0,0,13.41V19a7.71,7.71,0,0,0,1.64,4.7,4.19,4.19,0,0,1,.91,2.56V29a1,1,0,0,0,1,1h9.59A1,1,0,0,0,14.18,29Z"/></g></g></svg>