<svg width="50" height="50" viewBox="0 0 50 50" fill="none" xmlns="http://www.w3.org/2000/svg">
<g clip-path="url(#clip0)">
<path d="M21.2612 3.29412L23.7388 0.789704C24.7879 -0.270722 26.4844 -0.270722 27.5223 0.789704L49.2187 22.7089C50.2679 23.7694 50.2679 25.4841 49.2187 26.5332L27.5223 48.4638C26.4732 49.5242 24.7768 49.5242 23.7388 48.4638L21.2612 45.9594C20.2009 44.8876 20.2232 43.1391 21.3058 42.0899L34.7545 29.1392H2.67857C1.1942 29.1392 0 27.9321 0 26.4317V22.8218C0 21.3214 1.1942 20.1143 2.67857 20.1143H34.7545L21.3058 7.16354C20.2121 6.1144 20.1897 4.36582 21.2612 3.29412Z" fill="black"/>
</g>
<defs>
<clipPath id="clip0">
<rect width="50" height="49.2647" fill="white"/>
</clipPath>
</defs>
</svg>
