<svg width="24" height="24" viewBox="0 0 24 24" fill="none" xmlns="http://www.w3.org/2000/svg">
<mask id="path-1-inside-1_1338_331" fill="white">
<path fill-rule="evenodd" clip-rule="evenodd" d="M12 24C18.6274 24 24 18.6274 24 12C24 5.37258 18.6274 0 12 0C8.95666 0 6.17793 1.13291 4.06253 3L11 3C11.5523 3 12 3.44772 12 4C12 4.55229 11.5523 5 11 5L4 5L4 3.05557C1.545 5.25286 0 8.446 0 12C0 18.6274 5.37258 24 12 24ZM2 8.75H11C11.5523 8.75 12 8.30229 12 7.75C12 7.19772 11.5523 6.75 11 6.75H2V8.75ZM1 13H11C11.5523 13 12 12.5523 12 12C12 11.4477 11.5523 11 11 11H1V13ZM11 17.25H2V15.25H11C11.5523 15.25 12 15.6977 12 16.25C12 16.8023 11.5523 17.25 11 17.25ZM5 21H11C11.5523 21 12 20.5523 12 20C12 19.4477 11.5523 19 11 19H5V21Z"/>
</mask>
<path fill-rule="evenodd" clip-rule="evenodd" d="M12 24C18.6274 24 24 18.6274 24 12C24 5.37258 18.6274 0 12 0C8.95666 0 6.17793 1.13291 4.06253 3L11 3C11.5523 3 12 3.44772 12 4C12 4.55229 11.5523 5 11 5L4 5L4 3.05557C1.545 5.25286 0 8.446 0 12C0 18.6274 5.37258 24 12 24ZM2 8.75H11C11.5523 8.75 12 8.30229 12 7.75C12 7.19772 11.5523 6.75 11 6.75H2V8.75ZM1 13H11C11.5523 13 12 12.5523 12 12C12 11.4477 11.5523 11 11 11H1V13ZM11 17.25H2V15.25H11C11.5523 15.25 12 15.6977 12 16.25C12 16.8023 11.5523 17.25 11 17.25ZM5 21H11C11.5523 21 12 20.5523 12 20C12 19.4477 11.5523 19 11 19H5V21Z" fill="white"/>
<path d="M4.06253 3L2.73906 1.50052L-1.22582 5L4.06253 5L4.06253 3ZM11 3L11 5H11V3ZM11 5L11 7H11V5ZM4 5L2 5L2 7L4 7L4 5ZM4 3.05557L6 3.05557L6 -1.41855L2.66617 1.5653L4 3.05557ZM2 8.75H0V10.75H2V8.75ZM2 6.75V4.75H0V6.75H2ZM1 13H-1V15H1V13ZM1 11V9H-1V11H1ZM2 17.25H0V19.25H2V17.25ZM2 15.25V13.25H0V15.25H2ZM5 21H3V23H5V21ZM5 19V17H3V19H5ZM22 12C22 17.5228 17.5228 22 12 22V26C19.732 26 26 19.732 26 12H22ZM12 2C17.5228 2 22 6.47715 22 12H26C26 4.26801 19.732 -2 12 -2V2ZM5.38599 4.49948C7.15004 2.9425 9.46252 2 12 2V-2C8.4508 -2 5.20582 -0.676682 2.73906 1.50052L5.38599 4.49948ZM11 1L4.06253 1L4.06253 5L11 5L11 1ZM14 4C14 2.34315 12.6569 1 11 1V5C10.4477 5 10 4.55229 10 4H14ZM11 7C12.6569 7 14 5.65686 14 4H10C10 3.44771 10.4477 3 11 3V7ZM4 7L11 7L11 3L4 3L4 7ZM2 3.05557L2 5L6 5L6 3.05557L2 3.05557ZM2 12C2 9.03852 3.2848 6.37977 5.33383 4.54584L2.66617 1.5653C-0.194796 4.12594 -2 7.85348 -2 12H2ZM12 22C6.47715 22 2 17.5228 2 12H-2C-2 19.732 4.26801 26 12 26V22ZM11 6.75H2V10.75H11V6.75ZM10 7.75C10 7.19772 10.4477 6.75 11 6.75V10.75C12.6569 10.75 14 9.40685 14 7.75H10ZM11 8.75C10.4477 8.75 10 8.30228 10 7.75H14C14 6.09315 12.6569 4.75 11 4.75V8.75ZM2 8.75H11V4.75H2V8.75ZM4 8.75V6.75H0V8.75H4ZM11 11H1V15H11V11ZM10 12C10 11.4477 10.4477 11 11 11V15C12.6569 15 14 13.6569 14 12H10ZM11 13C10.4477 13 10 12.5523 10 12H14C14 10.3431 12.6569 9 11 9V13ZM1 13H11V9H1V13ZM3 13V11H-1V13H3ZM2 19.25H11V15.25H2V19.25ZM0 15.25V17.25H4V15.25H0ZM11 13.25H2V17.25H11V13.25ZM14 16.25C14 14.5931 12.6569 13.25 11 13.25V17.25C10.4477 17.25 10 16.8023 10 16.25H14ZM11 19.25C12.6569 19.25 14 17.9069 14 16.25H10C10 15.6977 10.4477 15.25 11 15.25V19.25ZM11 19H5V23H11V19ZM10 20C10 19.4477 10.4477 19 11 19V23C12.6569 23 14 21.6569 14 20H10ZM11 21C10.4477 21 10 20.5523 10 20H14C14 18.3431 12.6569 17 11 17V21ZM5 21H11V17H5V21ZM7 21V19H3V21H7Z" fill="white" mask="url(#path-1-inside-1_1338_331)"/>
<circle cx="12" cy="12" r="11" stroke="white" stroke-width="2"/>
</svg>
