<svg width="24" height="24" viewBox="0 0 24 24" fill="none" xmlns="http://www.w3.org/2000/svg">
<circle cx="12" cy="12" r="11" fill="white" stroke="white" stroke-width="2"/>
<path d="M11 7.75C11.5523 7.75 12 7.30228 12 6.75C12 6.19772 11.5523 5.75 11 5.75V7.75ZM2 7.75H11V5.75H2V7.75Z" fill="#242424"/>
<path d="M11 13C11.5523 13 12 12.5523 12 12C12 11.4477 11.5523 11 11 11V13ZM1 13H11V11H1V13Z" fill="#242424"/>
<path d="M11 18.25C11.5523 18.25 12 17.8023 12 17.25C12 16.6977 11.5523 16.25 11 16.25V18.25ZM2 18.25H11V16.25H2V18.25Z" fill="#242424"/>
<circle cx="12" cy="12" r="11" stroke="white" stroke-width="2"/>
</svg>
