<svg width="24" height="24" viewBox="0 0 24 24" fill="none" xmlns="http://www.w3.org/2000/svg">
<circle cx="12" cy="12" r="11" stroke="#363227" stroke-width="2"/>
<path d="M12 5.75C11.4477 5.75 11 6.19772 11 6.75C11 7.30228 11.4477 7.75 12 7.75V5.75ZM12 7.75H21V5.75H12V7.75Z" fill="#363227"/>
<path d="M12 11C11.4477 11 11 11.4477 11 12C11 12.5523 11.4477 13 12 13V11ZM12 13H22V11H12V13Z" fill="#363227"/>
<path d="M12 16.25C11.4477 16.25 11 16.6977 11 17.25C11 17.8023 11.4477 18.25 12 18.25V16.25ZM12 18.25H21V16.25H12V18.25Z" fill="#363227"/>
</svg>
