<svg width="984" height="761" viewBox="0 0 984 761" fill="none" xmlns="http://www.w3.org/2000/svg">
<rect x="7" y="176" width="164" height="49" fill="#FFFAEB"/>
<path d="M193.5 376H285C312.5 376 333 358.5 333 319.5V57.5C333 18 311.5 4.00002 284 4.00002H193.5V376ZM255.5 55H261.5C267.5 55 269 59 269 66.5V311C269 319.5 267.5 323.5 261.5 323.5H255.5V55Z" fill="#FFFAEB"/>
<path d="M341.938 4.00002V376H450.438V318H403.938V210.5H441.938V151.5H403.938V61H448.938V4.00002H341.938Z" fill="#FFFAEB"/>
<path d="M519.148 379.5H533.648C579.148 379.5 599.148 353 599.148 313.5V239.5C599.148 207 590.148 190 564.648 169L532.648 141C524.648 134 522.648 130 522.648 120V56.5C522.648 51 524.648 48.5 529.148 48.5C533.648 48.5 535.648 51 535.648 56.5V135.5H596.648V53.5C596.648 23.5 582.148 0.5 536.648 0.5H522.148C477.148 0.5 458.648 24 458.648 58.5V124.5C458.648 152.5 467.648 173 489.148 191L521.648 219C531.148 227.5 532.648 232.5 532.648 244.5V317C532.648 323.5 531.148 327.5 525.648 327.5C520.648 327.5 519.148 323.5 519.148 317.5V224.5H457.148V322C457.148 360 477.648 379.5 519.148 379.5Z" fill="#FFFAEB"/>
<path d="M670.574 4.00002H607.074V376H670.574V4.00002Z" fill="#FFFAEB"/>
<path d="M730.34 379.5C751.34 379.5 764.84 365.5 773.34 352.5C775.34 357 778.84 370.5 779.84 376H822.34V157H749.34V205.5H762.34V316.5C762.34 324 758.84 328 753.34 328C747.34 328 744.34 324 744.34 316.5V62.5C744.34 56.5 745.84 53 751.34 53C757.34 53 758.84 56.5 758.84 62.5V143.5H819.84V60C819.84 30 805.84 0.5 754.84 0.5H746.34C696.34 0.5 679.34 30 679.34 65V318C679.34 351 695.34 379.5 728.84 379.5H730.34Z" fill="#FFFAEB"/>
<path d="M831.195 4.00002V376H884.195L883.695 153L913.195 376H971.695V4.00002H919.195L919.695 205.5L895.195 4.00002H831.195Z" fill="#FFFAEB"/>
<path d="M62.5 760.5H77C122.5 760.5 142.5 734 142.5 694.5V620.5C142.5 588 133.5 571 108 550L76 522C68 515 66 511 66 501V437.5C66 432 68 429.5 72.5 429.5C77 429.5 79 432 79 437.5V516.5H140V434.5C140 404.5 125.5 381.5 80 381.5H65.5C20.5 381.5 2 405 2 439.5V505.5C2 533.5 11 554 32.5 572L65 600C74.5 608.5 76 613.5 76 625.5V698C76 704.5 74.5 708.5 69 708.5C64 708.5 62.5 704.5 62.5 698.5V605.5H0.5V703C0.5 741 21 760.5 62.5 760.5Z" fill="#FFFAEB"/>
<path d="M180.055 757H243.055V610.5L280.555 385H224.055L213.055 513.5L202.055 385H139.055L180.055 610.5V757Z" fill="#FFFAEB"/>
<path d="M339.844 760.5H354.344C399.844 760.5 419.844 734 419.844 694.5V620.5C419.844 588 410.844 571 385.344 550L353.344 522C345.344 515 343.344 511 343.344 501V437.5C343.344 432 345.344 429.5 349.844 429.5C354.344 429.5 356.344 432 356.344 437.5V516.5H417.344V434.5C417.344 404.5 402.844 381.5 357.344 381.5H342.844C297.844 381.5 279.344 405 279.344 439.5V505.5C279.344 533.5 288.344 554 309.844 572L342.344 600C351.844 608.5 353.344 613.5 353.344 625.5V698C353.344 704.5 351.844 708.5 346.344 708.5C341.344 708.5 339.844 704.5 339.844 698.5V605.5H277.844V703C277.844 741 298.344 760.5 339.844 760.5Z" fill="#FFFAEB"/>
<path d="M452.828 757H515.328V442H543.828V385H424.328V442H452.828V757Z" fill="#FFFAEB"/>
<path d="M551.793 385V757H660.293V699H613.793V591.5H651.793V532.5H613.793V442H658.793V385H551.793Z" fill="#FFFAEB"/>
<path d="M668.492 757H720.492V549L739.492 757H761.992L780.492 549V757H833.492V385H762.992L751.992 565.5L740.992 385H668.492V757Z" fill="#FFFAEB"/>
<path d="M903.32 760.5H917.82C963.32 760.5 983.32 734 983.32 694.5V620.5C983.32 588 974.32 571 948.82 550L916.82 522C908.82 515 906.82 511 906.82 501V437.5C906.82 432 908.82 429.5 913.32 429.5C917.82 429.5 919.82 432 919.82 437.5V516.5H980.82V434.5C980.82 404.5 966.32 381.5 920.82 381.5H906.32C861.32 381.5 842.82 405 842.82 439.5V505.5C842.82 533.5 851.82 554 873.32 572L905.82 600C915.32 608.5 916.82 613.5 916.82 625.5V698C916.82 704.5 915.32 708.5 909.82 708.5C904.82 708.5 903.32 704.5 903.32 698.5V605.5H841.32V703C841.32 741 861.82 760.5 903.32 760.5Z" fill="#FFFAEB"/>
</svg>
