<svg width="380" height="306" viewBox="0 0 380 306" fill="none" xmlns="http://www.w3.org/2000/svg">
<path d="M35.19 197.76H31.62V211.19H35.19V197.76ZM31.62 251.31H35.19V237.88H31.62V251.31ZM51.34 222.58C56.44 223.713 60.01 226.263 62.05 230.23C64.09 234.083 65.11 240.43 65.11 249.27C65.11 249.95 65.11 250.63 65.11 251.31C64.8833 256.863 64.09 261.51 62.73 265.25C61.37 268.877 59.2733 271.597 56.44 273.41C53.6067 275.223 50.5467 276.47 47.26 277.15C44.0867 277.717 40.0633 278 35.19 278H2.89V171.07H35.19C40.0633 171.07 44.0867 171.41 47.26 172.09C50.5467 172.77 53.4367 174.017 55.93 175.83C58.5367 177.643 60.4067 180.25 61.54 183.65C62.7867 187.05 63.41 191.357 63.41 196.57C63.41 197.25 63.41 197.873 63.41 198.44C63.2967 202.973 62.7867 206.657 61.88 209.49C61.0867 212.323 59.84 214.59 58.14 216.29C56.44 217.877 54.1733 219.123 51.34 220.03V222.58ZM113.334 197.76H97.6942V211.19H113.334V237.88H97.6942V251.31H113.334V278H68.9642V171.07H113.334V197.76ZM164.669 218.16C169.316 221.107 172.829 224.847 175.209 229.38C177.589 233.913 178.779 239.863 178.779 247.23C178.779 247.91 178.779 248.59 178.779 249.27C178.552 259.13 176.059 266.723 171.299 272.05C166.539 277.377 158.776 280.04 148.009 280.04C127.496 280.04 117.239 270.463 117.239 251.31V240.94H145.969V251.31H149.539V245.87C149.539 243.717 148.632 242.073 146.819 240.94L130.839 230.91C127.892 228.983 125.456 226.83 123.529 224.45C121.602 221.957 120.072 218.84 118.939 215.1C117.806 211.247 117.239 206.827 117.239 201.84C117.239 201.047 117.239 200.31 117.239 199.63C117.579 189.77 120.072 182.233 124.719 177.02C129.479 171.693 137.186 169.03 147.839 169.03C168.126 169.03 178.269 178.607 178.269 197.76V208.13H149.539V197.76H145.969V203.2C145.969 205.353 146.876 206.997 148.689 208.13L164.669 218.16ZM231.637 171.07V197.76H219.907V278H191.177V197.76H179.617V171.07H231.637ZM300.297 251.31V197.76H296.727V251.31H300.297ZM267.997 197.76C267.997 178.607 278.14 169.03 298.427 169.03C318.827 169.03 329.027 178.607 329.027 197.76V251.31C329.027 270.463 318.827 280.04 298.427 280.04C278.14 280.04 267.997 270.463 267.997 251.31V197.76ZM378.461 197.76H362.821V211.19H378.461V237.88H362.821V278H334.091V171.07H378.461V197.76Z" fill="#FAFAFA"/>
<path d="M28.379 156L24.898 144.259H10.443L6.962 156H1.829L14.455 114.818H21.004L33.63 156H28.379ZM17.936 120.069H17.405L11.623 139.952H23.718L17.936 120.069ZM47.767 156V114.818H62.753C66.5683 114.818 69.479 115.86 71.485 117.945C73.491 120.03 74.494 122.94 74.494 126.677C74.494 130.414 73.491 133.324 71.485 135.409C69.479 137.494 66.5683 138.536 62.753 138.536H52.723V156H47.767ZM52.723 134.229H62.635C64.7196 134.229 66.3323 133.718 67.473 132.695C68.653 131.633 69.243 130.138 69.243 128.211V125.143C69.243 123.216 68.653 121.741 67.473 120.718C66.3323 119.656 64.7196 119.125 62.635 119.125H52.723V134.229ZM90.2239 156V114.818H105.21C109.025 114.818 111.936 115.86 113.942 117.945C115.948 120.03 116.951 122.94 116.951 126.677C116.951 130.414 115.948 133.324 113.942 135.409C111.936 137.494 109.025 138.536 105.21 138.536H95.1799V156H90.2239ZM95.1799 134.229H105.092C107.177 134.229 108.789 133.718 109.93 132.695C111.11 131.633 111.7 130.138 111.7 128.211V125.143C111.7 123.216 111.11 121.741 109.93 120.718C108.789 119.656 107.177 119.125 105.092 119.125H95.1799V134.229ZM187.41 156.708C183.712 156.708 180.684 156.039 178.324 154.702C175.964 153.325 174.017 151.575 172.483 149.451L176.082 146.501C177.694 148.507 179.386 150.002 181.156 150.985C182.965 151.968 185.109 152.46 187.587 152.46C190.576 152.46 192.857 151.772 194.431 150.395C196.004 149.018 196.791 147.091 196.791 144.613C196.791 142.607 196.22 141.053 195.08 139.952C193.939 138.811 191.953 138.005 189.121 137.533L184.519 136.766C182.513 136.412 180.821 135.881 179.445 135.173C178.107 134.465 177.026 133.619 176.2 132.636C175.374 131.613 174.784 130.512 174.43 129.332C174.076 128.113 173.899 126.854 173.899 125.556C173.899 121.78 175.138 118.928 177.616 117.001C180.094 115.074 183.437 114.11 187.646 114.11C190.95 114.11 193.723 114.661 195.965 115.762C198.246 116.863 200.075 118.417 201.452 120.423L197.971 123.432C196.83 121.937 195.453 120.718 193.841 119.774C192.228 118.83 190.143 118.358 187.587 118.358C184.794 118.358 182.65 118.948 181.156 120.128C179.661 121.308 178.914 123.078 178.914 125.438C178.914 127.287 179.464 128.801 180.566 129.981C181.706 131.122 183.732 131.948 186.643 132.459L191.068 133.226C193.074 133.58 194.765 134.111 196.142 134.819C197.518 135.527 198.62 136.373 199.446 137.356C200.311 138.339 200.921 139.441 201.275 140.66C201.629 141.879 201.806 143.158 201.806 144.495C201.806 148.31 200.547 151.3 198.03 153.463C195.552 155.626 192.012 156.708 187.41 156.708ZM232.463 119.125V156H227.507V119.125H213.76V114.818H246.21V119.125H232.463ZM272.442 156.708C269.924 156.708 267.761 156.236 265.952 155.292C264.142 154.309 262.648 152.912 261.468 151.103C260.288 149.294 259.422 147.071 258.872 144.436C258.321 141.801 258.046 138.792 258.046 135.409C258.046 132.066 258.321 129.076 258.872 126.441C259.422 123.766 260.288 121.524 261.468 119.715C262.648 117.906 264.142 116.529 265.952 115.585C267.761 114.602 269.924 114.11 272.442 114.11C274.959 114.11 277.122 114.602 278.932 115.585C280.741 116.529 282.236 117.906 283.416 119.715C284.596 121.524 285.461 123.766 286.012 126.441C286.562 129.076 286.838 132.066 286.838 135.409C286.838 138.792 286.562 141.801 286.012 144.436C285.461 147.071 284.596 149.294 283.416 151.103C282.236 152.912 280.741 154.309 278.932 155.292C277.122 156.236 274.959 156.708 272.442 156.708ZM272.442 152.401C274.094 152.401 275.49 152.086 276.631 151.457C277.771 150.788 278.715 149.864 279.463 148.684C280.21 147.504 280.741 146.088 281.056 144.436C281.41 142.745 281.587 140.857 281.587 138.772V132.046C281.587 130.001 281.41 128.132 281.056 126.441C280.741 124.75 280.21 123.314 279.463 122.134C278.715 120.954 277.771 120.049 276.631 119.42C275.49 118.751 274.094 118.417 272.442 118.417C270.79 118.417 269.393 118.751 268.253 119.42C267.112 120.049 266.168 120.954 265.421 122.134C264.673 123.314 264.123 124.75 263.769 126.441C263.454 128.132 263.297 130.001 263.297 132.046V138.772C263.297 140.857 263.454 142.745 263.769 144.436C264.123 146.088 264.673 147.504 265.421 148.684C266.168 149.864 267.112 150.788 268.253 151.457C269.393 152.086 270.79 152.401 272.442 152.401ZM307.465 156H302.509V114.818H317.495C321.31 114.818 324.221 115.86 326.227 117.945C328.233 120.03 329.236 122.94 329.236 126.677C329.236 130.02 328.37 132.695 326.64 134.701C324.909 136.707 322.392 137.867 319.088 138.182L329.59 156H324.044L314.014 138.418H307.465V156ZM317.377 134.229C319.461 134.229 321.074 133.718 322.215 132.695C323.395 131.633 323.985 130.138 323.985 128.211V125.143C323.985 123.216 323.395 121.741 322.215 120.718C321.074 119.656 319.461 119.125 317.377 119.125H307.465V134.229H317.377ZM344.966 156V114.818H370.336V119.125H349.922V132.99H369.628V137.297H349.922V151.693H370.336V156H344.966Z" fill="#FAFAFA"/>
<path d="M203.814 1.99029C203.814 4.11327 203.287 6.36893 202.233 8.75728C201.442 11.1456 199.992 13.4013 197.884 15.5243C196.039 17.3819 194.194 18.5761 192.349 19.1068C191.295 19.3722 189.713 19.6375 187.605 19.9029C187.605 15.1262 188.791 11.0129 191.163 7.5631C193.798 3.84789 197.884 1.32686 203.419 0C203.682 0.265377 203.814 0.663438 203.814 1.19418C203.814 1.45955 203.814 1.72492 203.814 1.99029ZM188.791 21.8932C190.372 21.8932 192.744 21.3625 195.907 20.301C199.07 19.2395 201.837 18.7087 204.209 18.7087C208.163 18.7087 211.721 19.7702 214.884 21.8932C216.465 22.9547 218.178 24.5469 220.023 26.6699C217.388 28.7929 215.411 30.7832 214.093 32.6408C211.984 35.5599 210.93 38.877 210.93 42.5923C210.93 46.8382 211.984 50.5534 214.093 53.7379C216.465 56.9223 219.101 58.9126 222 59.7087C220.946 63.6893 218.969 67.8026 216.07 72.0486C211.853 78.6829 207.636 82 203.419 82C201.837 82 199.597 81.4693 196.698 80.4078C193.798 79.3463 191.295 78.8155 189.186 78.8155C187.341 78.8155 185.101 79.3463 182.465 80.4078C179.829 81.4693 177.589 82 175.744 82C170.736 82 165.86 77.754 161.116 69.2621C156.372 60.7702 154 52.5437 154 44.5825C154 36.8867 155.845 30.7832 159.535 26.2719C163.225 21.4952 167.837 19.1068 173.372 19.1068C175.744 19.1068 178.643 19.6375 182.07 20.699C185.496 21.4952 187.736 21.8932 188.791 21.8932Z" fill="#FAFAFA"/>
</svg>
