<svg width="751" height="751" viewBox="0 0 751 751" fill="none" xmlns="http://www.w3.org/2000/svg">
<path fill-rule="evenodd" clip-rule="evenodd" d="M470.438 94.9377C470.438 42.5051 427.933 4.14987e-06 375.5 0C323.067 -2.2919e-06 280.562 42.5051 280.562 94.9377V146.302L244.243 109.983C207.168 72.9072 147.057 72.9073 109.981 109.983C72.9056 147.058 72.9056 207.169 109.981 244.245L146.298 280.562L94.9377 280.562C42.5051 280.562 4.58381e-06 323.067 0 375.5C-4.58381e-06 427.932 42.505 470.438 94.9377 470.438L146.299 470.438L109.98 506.756C72.9046 543.832 72.9046 603.943 109.98 641.018C147.056 678.094 207.167 678.094 244.242 641.018L280.562 604.699V656.062C280.562 708.495 323.067 751 375.5 751C427.932 751 470.438 708.495 470.438 656.062V604.701L506.756 641.02C543.832 678.095 603.943 678.095 641.018 641.02C678.094 603.944 678.094 543.833 641.018 506.758L604.698 470.438L656.062 470.438C708.495 470.438 751 427.932 751 375.5C751 323.067 708.495 280.562 656.062 280.562L604.699 280.562L641.017 244.243C678.093 207.168 678.093 147.057 641.017 109.981C603.942 72.9056 543.831 72.9056 506.755 109.981L470.438 146.299V94.9377Z" fill="black"/>
</svg>
