<svg width="856" height="856" viewBox="0 0 856 856" fill="none" xmlns="http://www.w3.org/2000/svg">
<path fill-rule="evenodd" clip-rule="evenodd" d="M557.556 115.222C549.767 50.5894 494.733 0.500003 428 0.5C361.267 0.499997 306.232 50.5901 298.444 115.224C247.234 75.0272 172.899 78.5229 125.711 125.711C78.5229 172.899 75.0272 247.234 115.224 298.444C50.5901 306.232 0.500006 361.267 0.5 428C0.499994 494.733 50.5894 549.767 115.222 557.556C75.0272 608.766 78.5234 683.1 125.711 730.287C172.899 777.475 247.234 780.971 298.444 740.775C306.231 805.409 361.266 855.5 428 855.5C494.734 855.5 549.768 805.41 557.556 740.776C608.766 780.971 683.1 777.475 730.287 730.287C777.475 683.1 780.971 608.766 740.776 557.556C805.41 549.768 855.5 494.734 855.5 428C855.5 361.266 805.409 306.231 740.775 298.444C780.971 247.234 777.475 172.899 730.287 125.711C683.1 78.5235 608.766 75.0273 557.556 115.222Z" fill="black"/>
</svg>
