<svg width="1875" height="2537" viewBox="0 0 1875 2537" fill="none" xmlns="http://www.w3.org/2000/svg">
<path d="M192.654 2030.14H363.901V2529.86H278.277V2094.39H273.996L256.871 2529.86H107.03L89.905 2094.39H85.6238V2529.86H0V2030.14H171.248L179.81 2465.61H184.091L192.654 2030.14Z" fill="white"/>
<path d="M463.991 2023C527.495 2023 556.75 2052.27 556.75 2115.09V2444.91C556.75 2507.73 527.495 2537 463.991 2537C400.486 2537 371.232 2507.73 371.232 2444.91V2115.09C371.232 2052.27 400.486 2023 463.991 2023ZM471.126 2458.47V2101.53H456.855V2458.47H471.126Z" fill="white"/>
<path d="M749.599 2113.66V2197.19C749.599 2246.45 729.62 2275 695.37 2278.57V2281.43C729.62 2286.42 749.599 2314.98 749.599 2364.24V2446.34C749.599 2499.16 720.344 2529.15 667.542 2529.86H564.08V2030.14H667.542C720.344 2030.85 749.599 2060.84 749.599 2113.66ZM663.975 2244.31V2101.53H649.704V2244.31H663.975ZM649.704 2315.69V2458.47H663.975V2315.69H649.704Z" fill="white"/>
<path d="M756.929 2529.86V2030.14H842.553V2529.86H756.929Z" fill="white"/>
<path d="M935.061 2030.14V2458.47H956.467V2529.86H849.437V2030.14H935.061Z" fill="white"/>
<path d="M1067.09 2101.53H1045.69V2244.31H1067.09V2315.69H1045.69V2458.47H1067.09V2529.86H960.063V2030.14H1067.09V2101.53Z" fill="white"/>
<path d="M1217.29 2529.86L1214.43 2429.92H1191.6L1188.74 2529.86H1105.97L1123.81 2030.14H1282.22L1300.05 2529.86H1217.29ZM1193.74 2358.53H1212.29L1205.16 2094.39H1200.87L1193.74 2358.53Z" fill="white"/>
<path d="M1303.78 2529.86V2030.14H1396.54C1460.05 2030.14 1489.3 2059.41 1489.3 2122.23V2337.82C1489.3 2400.65 1460.05 2429.92 1396.54 2429.92H1389.41V2529.86H1303.78ZM1403.68 2358.53V2101.53H1389.41V2358.53H1403.68Z" fill="white"/>
<path d="M1496.63 2529.86V2030.14H1589.39C1652.9 2030.14 1682.15 2059.41 1682.15 2122.23V2337.82C1682.15 2400.65 1652.9 2429.92 1589.39 2429.92H1582.26V2529.86H1496.63ZM1596.53 2358.53V2101.53H1582.26V2358.53H1596.53Z" fill="white"/>
<path d="M1775.11 2458.47H1789.38V2347.11C1789.38 2299.27 1689.48 2298.56 1689.48 2200.04V2116.52C1689.48 2052.27 1718.74 2023 1782.24 2023C1845.75 2023 1875 2052.27 1875 2116.52V2209.32H1789.38V2101.53H1775.11V2197.9C1775.11 2240.74 1875 2246.45 1875 2340.68V2443.48C1875 2507.73 1845.75 2537 1782.24 2537C1718.74 2537 1689.48 2507.73 1689.48 2443.48V2336.4H1775.11V2458.47Z" fill="white"/>
<path d="M0 2012.39V1619.61H72.9825C122.947 1619.61 145.965 1642.62 145.965 1691.99V1861.45C145.965 1910.83 122.947 1933.83 72.9825 1933.83H67.3684V2012.39H0ZM78.5965 1877.72V1675.72H67.3684V1877.72H78.5965Z" fill="white"/>
<path d="M297.697 1685.26V1750.91C297.697 1789.63 281.978 1812.07 255.031 1814.88V1817.12C281.978 1821.05 297.697 1843.49 297.697 1882.21V2012.39H233.136H230.329V1844.06H219.101V2012.39H151.732V1619.61H233.136C274.68 1620.17 297.697 1643.74 297.697 1685.26ZM230.329 1787.94V1675.72H219.101V1787.94H230.329Z" fill="white"/>
<path d="M376.447 1614C426.412 1614 449.43 1637.01 449.43 1686.38V1945.62C449.43 1994.99 426.412 2018 376.447 2018C326.482 2018 303.465 1994.99 303.465 1945.62V1686.38C303.465 1637.01 326.482 1614 376.447 1614ZM382.061 1956.28V1675.72H370.833V1956.28H382.061Z" fill="white"/>
<path d="M455.197 1619.61H528.18C580.39 1619.61 601.162 1640.37 601.162 1691.99V1940.01C601.162 1991.63 580.39 2012.39 528.18 2012.39H455.197V1619.61ZM533.794 1956.28V1675.72H522.566V1956.28H533.794Z" fill="white"/>
<path d="M685.526 1619.61H752.895V1945.62C752.895 1994.99 729.877 2018 679.912 2018C629.947 2018 606.93 1994.99 606.93 1945.62V1619.61H674.298V1956.28H685.526V1619.61Z" fill="white"/>
<path d="M904.627 1810.39H837.259V1675.72H826.031V1956.28H837.259V1821.61H904.627V1945.62C904.627 1993.31 879.364 2018 831.645 2018C783.925 2018 758.662 1993.31 758.662 1945.62V1686.38C758.662 1638.69 783.925 1614 831.645 1614C879.364 1614 904.627 1638.69 904.627 1686.38V1810.39Z" fill="white"/>
<path d="M904.912 1619.61H1005.96V1675.72H989.123V2012.39H921.754V1675.72H904.912V1619.61Z" fill="white"/>
<path d="M1039.52 1619.61H1112.5C1164.71 1619.61 1185.48 1640.37 1185.48 1691.99V1940.01C1185.48 1991.63 1164.71 2012.39 1112.5 2012.39H1039.52V1619.61ZM1118.11 1956.28V1675.72H1106.89V1956.28H1118.11Z" fill="white"/>
<path d="M1275.46 1675.72H1258.62V1787.94H1275.46V1844.06H1258.62V1956.28H1275.46V2012.39H1191.25V1619.61H1275.46V1675.72Z" fill="white"/>
<path d="M1348.4 1956.28H1359.63V1868.74C1359.63 1831.15 1281.03 1830.59 1281.03 1753.16V1687.51C1281.03 1637.01 1304.05 1614 1354.01 1614C1403.98 1614 1427 1637.01 1427 1687.51V1760.45H1359.63V1675.72H1348.4V1751.47C1348.4 1785.14 1427 1789.63 1427 1863.69V1944.49C1427 1994.99 1403.98 2018 1354.01 2018C1304.05 2018 1281.03 1994.99 1281.03 1944.49V1860.33H1348.4V1956.28Z" fill="white"/>
<path d="M1432.76 2012.39V1619.61H1500.13V2012.39H1432.76Z" fill="white"/>
<path d="M1656 1776.72H1589.2V1675.72H1572.36V1956.28H1589.2V1844.06H1580.78V1787.94H1656V1945.62C1656 1994.99 1632.99 2018 1580.78 2018C1528.57 2018 1505.55 1994.99 1505.55 1945.62V1686.38C1505.55 1637.01 1528.57 1614 1580.78 1614C1632.99 1614 1656 1637.01 1656 1686.38V1776.72Z" fill="white"/>
<path d="M1807.63 1619.61H1875V2012.39H1745.88L1732.4 1670.11H1729.04V2012.39H1661.67V1619.61H1790.79L1804.26 1961.89H1807.63V1619.61Z" fill="white"/>
<path d="M117.312 1500.44H136.864V1347.91C136.864 1282.4 0 1281.42 0 1146.49V1032.09C0 944.089 40.0817 904 127.088 904C214.095 904 254.176 944.089 254.176 1032.09V1159.2H136.864V1011.56H117.312V1143.56C117.312 1202.22 254.176 1210.04 254.176 1339.11V1479.91C254.176 1567.91 214.095 1608 127.088 1608C40.0817 1608 0 1567.91 0 1479.91V1333.24H117.312V1500.44Z" fill="white"/>
<path d="M402.291 913.778H515.693L441.395 1435.91V1598.22H324.083V1435.91L249.785 913.778H363.187L379.806 1266.76H385.672L402.291 913.778Z" fill="white"/>
<path d="M628.567 1500.44H648.119V1347.91C648.119 1282.4 511.255 1281.42 511.255 1146.49V1032.09C511.255 944.089 551.337 904 638.343 904C725.35 904 765.432 944.089 765.432 1032.09V1159.2H648.119V1011.56H628.567V1143.56C628.567 1202.22 765.432 1210.04 765.432 1339.11V1479.91C765.432 1567.91 725.35 1608 638.343 1608C551.337 1608 511.255 1567.91 511.255 1479.91V1333.24H628.567V1500.44Z" fill="white"/>
<path d="M765.928 913.778H941.896V1011.56H912.568V1598.22H795.256V1011.56H765.928V913.778Z" fill="white"/>
<path d="M1098.5 1011.56H1069.18V1207.11H1098.5V1304.89H1069.18V1500.44H1098.5V1598.22H951.863V913.778H1098.5V1011.56Z" fill="white"/>
<path d="M1372.16 913.778H1606.78V1598.22H1489.47V1001.78H1483.6L1460.14 1598.22H1254.84L1231.38 1001.78H1225.52V1598.22H1108.2V913.778H1342.83L1354.56 1510.22H1360.42L1372.16 913.778Z" fill="white"/>
<path d="M1734.14 1500.44H1753.69V1347.91C1753.69 1282.4 1616.82 1281.42 1616.82 1146.49V1032.09C1616.82 944.089 1656.91 904 1743.91 904C1830.92 904 1871 944.089 1871 1032.09V1159.2H1753.69V1011.56H1734.14V1143.56C1734.14 1202.22 1871 1210.04 1871 1339.11V1479.91C1871 1567.91 1830.92 1608 1743.91 1608C1656.91 1608 1616.82 1567.91 1616.82 1479.91V1333.24H1734.14V1500.44Z" fill="white"/>
<path d="M6 12.5556H169.264C286.061 12.5556 332.528 59.0111 332.528 174.522V729.478C332.528 844.989 286.061 891.444 169.264 891.444H6V12.5556ZM181.823 765.889V138.111H156.705V765.889H181.823Z" fill="white"/>
<path d="M533.812 138.111H496.135V389.222H533.812V514.778H496.135V765.889H533.812V891.444H345.43V12.5556H533.812V138.111Z" fill="white"/>
<path d="M696.978 765.889H722.095V570.022C722.095 485.9 546.272 484.644 546.272 311.378V164.478C546.272 51.4778 597.763 0 709.536 0C821.309 0 872.8 51.4778 872.8 164.478V327.7H722.095V138.111H696.978V307.611C696.978 382.944 872.8 392.989 872.8 558.722V739.522C872.8 852.522 821.309 904 709.536 904C597.763 904 546.272 852.522 546.272 739.522V551.189H696.978V765.889Z" fill="white"/>
<path d="M885.703 891.444V12.5556H1036.41V891.444H885.703Z" fill="white"/>
<path d="M1385.1 364.111H1235.65V138.111H1197.97V765.889H1235.65V514.778H1216.81V389.222H1385.1V742.033C1385.1 852.522 1333.61 904 1216.81 904C1100.02 904 1048.53 852.522 1048.53 742.033V161.967C1048.53 51.4778 1100.02 0 1216.81 0C1333.61 0 1385.1 51.4778 1385.1 161.967V364.111Z" fill="white"/>
<path d="M1724.29 12.5556H1875V891.444H1586.15L1556.01 125.556H1548.47V891.444H1397.77V12.5556H1686.62L1716.76 778.444H1724.29V12.5556Z" fill="white"/>
</svg>
