<svg width="1875" height="2460" viewBox="0 0 1875 2460" fill="none" xmlns="http://www.w3.org/2000/svg">
<path d="M192.243 1953.14H363.125V2452.86H277.684V2017.39H273.412L256.323 2452.86H106.801L89.7132 2017.39H85.4412V2452.86H0V1953.14H170.882L179.426 2388.61H183.698L192.243 1953.14Z" fill="white"/>
<path d="M463.001 1946C526.37 1946 555.562 1975.27 555.562 2038.09V2367.91C555.562 2430.73 526.37 2460 463.001 2460C399.632 2460 370.44 2430.73 370.44 2367.91V2038.09C370.44 1975.27 399.632 1946 463.001 1946ZM470.121 2381.47V2024.53H455.881V2381.47H470.121Z" fill="white"/>
<path d="M747.999 2036.66V2120.19C747.999 2169.45 728.063 2198 693.887 2201.57V2204.43C728.063 2209.42 747.999 2237.98 747.999 2287.24V2369.34C747.999 2422.16 718.807 2452.15 666.118 2452.86H562.877V1953.14H666.118C718.807 1953.85 747.999 1983.84 747.999 2036.66ZM662.558 2167.31V2024.53H648.318V2167.31H662.558ZM648.318 2238.69V2381.47H662.558V2238.69H648.318Z" fill="white"/>
<path d="M755.314 2452.86V1953.14H840.755V2452.86H755.314Z" fill="white"/>
<path d="M933.066 1953.14V2381.47H954.427V2452.86H847.625V1953.14H933.066Z" fill="white"/>
<path d="M1064.82 2024.53H1043.46V2167.31H1064.82V2238.69H1043.46V2381.47H1064.82V2452.86H958.015V1953.14H1064.82V2024.53Z" fill="white"/>
<path d="M1214.69 2452.86L1211.84 2352.92H1189.06L1186.21 2452.86H1103.61L1121.42 1953.14H1279.48L1297.28 2452.86H1214.69ZM1191.19 2281.53H1209.7L1202.58 2017.39H1198.31L1191.19 2281.53Z" fill="white"/>
<path d="M1301 2452.86V1953.14H1393.56C1456.93 1953.14 1486.13 1982.41 1486.13 2045.23V2260.82C1486.13 2323.65 1456.93 2352.92 1393.56 2352.92H1386.44V2452.86H1301ZM1400.68 2281.53V2024.53H1386.44V2281.53H1400.68Z" fill="white"/>
<path d="M1493.44 2452.86V1953.14H1586C1649.37 1953.14 1678.56 1982.41 1678.56 2045.23V2260.82C1678.56 2323.65 1649.37 2352.92 1586 2352.92H1578.88V2452.86H1493.44ZM1593.12 2281.53V2024.53H1578.88V2281.53H1593.12Z" fill="white"/>
<path d="M1771.32 2381.47H1785.56V2270.11C1785.56 2222.27 1685.88 2221.56 1685.88 2123.04V2039.52C1685.88 1975.27 1715.07 1946 1778.44 1946C1841.81 1946 1871 1975.27 1871 2039.52V2132.32H1785.56V2024.53H1771.32V2120.9C1771.32 2163.74 1871 2169.45 1871 2263.68V2366.48C1871 2430.73 1841.81 2460 1778.44 2460C1715.07 2460 1685.88 2430.73 1685.88 2366.48V2259.4H1771.32V2381.47Z" fill="white"/>
<path d="M117.312 1500.44H136.864V1347.91C136.864 1282.4 0 1281.42 0 1146.49V1032.09C0 944.089 40.0817 904 127.088 904C214.095 904 254.176 944.089 254.176 1032.09V1159.2H136.864V1011.56H117.312V1143.56C117.312 1202.22 254.176 1210.04 254.176 1339.11V1479.91C254.176 1567.91 214.095 1608 127.088 1608C40.0817 1608 0 1567.91 0 1479.91V1333.24H117.312V1500.44Z" fill="white"/>
<path d="M402.291 913.778H515.693L441.395 1435.91V1598.22H324.083V1435.91L249.785 913.778H363.187L379.806 1266.76H385.672L402.291 913.778Z" fill="white"/>
<path d="M628.567 1500.44H648.119V1347.91C648.119 1282.4 511.255 1281.42 511.255 1146.49V1032.09C511.255 944.089 551.337 904 638.343 904C725.35 904 765.432 944.089 765.432 1032.09V1159.2H648.119V1011.56H628.567V1143.56C628.567 1202.22 765.432 1210.04 765.432 1339.11V1479.91C765.432 1567.91 725.35 1608 638.343 1608C551.337 1608 511.255 1567.91 511.255 1479.91V1333.24H628.567V1500.44Z" fill="white"/>
<path d="M765.928 913.778H941.896V1011.56H912.568V1598.22H795.256V1011.56H765.928V913.778Z" fill="white"/>
<path d="M1098.5 1011.56H1069.18V1207.11H1098.5V1304.89H1069.18V1500.44H1098.5V1598.22H951.863V913.778H1098.5V1011.56Z" fill="white"/>
<path d="M1372.16 913.778H1606.78V1598.22H1489.47V1001.78H1483.6L1460.14 1598.22H1254.84L1231.38 1001.78H1225.52V1598.22H1108.2V913.778H1342.83L1354.56 1510.22H1360.42L1372.16 913.778Z" fill="white"/>
<path d="M1734.14 1500.44H1753.69V1347.91C1753.69 1282.4 1616.82 1281.42 1616.82 1146.49V1032.09C1616.82 944.089 1656.91 904 1743.91 904C1830.92 904 1871 944.089 1871 1032.09V1159.2H1753.69V1011.56H1734.14V1143.56C1734.14 1202.22 1871 1210.04 1871 1339.11V1479.91C1871 1567.91 1830.92 1608 1743.91 1608C1656.91 1608 1616.82 1567.91 1616.82 1479.91V1333.24H1734.14V1500.44Z" fill="white"/>
<path d="M6 12.5556H169.264C286.061 12.5556 332.528 59.0111 332.528 174.522V729.478C332.528 844.989 286.061 891.444 169.264 891.444H6V12.5556ZM181.823 765.889V138.111H156.705V765.889H181.823Z" fill="white"/>
<path d="M533.812 138.111H496.135V389.222H533.812V514.778H496.135V765.889H533.812V891.444H345.43V12.5556H533.812V138.111Z" fill="white"/>
<path d="M696.978 765.889H722.095V570.022C722.095 485.9 546.272 484.644 546.272 311.378V164.478C546.272 51.4778 597.763 0 709.536 0C821.309 0 872.8 51.4778 872.8 164.478V327.7H722.095V138.111H696.978V307.611C696.978 382.944 872.8 392.989 872.8 558.722V739.522C872.8 852.522 821.309 904 709.536 904C597.763 904 546.272 852.522 546.272 739.522V551.189H696.978V765.889Z" fill="white"/>
<path d="M885.703 891.444V12.5556H1036.41V891.444H885.703Z" fill="white"/>
<path d="M1385.1 364.111H1235.65V138.111H1197.97V765.889H1235.65V514.778H1216.81V389.222H1385.1V742.033C1385.1 852.522 1333.61 904 1216.81 904C1100.02 904 1048.53 852.522 1048.53 742.033V161.967C1048.53 51.4778 1100.02 0 1216.81 0C1333.61 0 1385.1 51.4778 1385.1 161.967V364.111Z" fill="white"/>
<path d="M1724.29 12.5556H1875V891.444H1586.15L1556.01 125.556H1548.47V891.444H1397.77V12.5556H1686.62L1716.76 778.444H1724.29V12.5556Z" fill="white"/>
<path d="M341 1936.44V1617.56H400.242C440.8 1617.56 459.485 1636.23 459.485 1676.32V1813.9C459.485 1853.99 440.8 1872.67 400.242 1872.67H395.685V1936.44H341ZM404.799 1827.11V1663.11H395.685V1827.11H404.799Z" fill="white"/>
<path d="M582.651 1670.86V1724.16C582.651 1755.59 569.891 1773.81 548.017 1776.09V1777.91C569.891 1781.1 582.651 1799.32 582.651 1830.76V1936.44H530.244H527.966V1799.78H518.851V1936.44H464.166V1617.56H530.244C563.967 1618.01 582.651 1637.14 582.651 1670.86ZM527.966 1754.22V1663.11H518.851V1754.22H527.966Z" fill="white"/>
<path d="M646.575 1613C687.133 1613 705.817 1631.68 705.817 1671.77V1882.23C705.817 1922.32 687.133 1941 646.575 1941C606.017 1941 587.333 1922.32 587.333 1882.23V1671.77C587.333 1631.68 606.017 1613 646.575 1613ZM651.132 1890.89V1663.11H642.018V1890.89H651.132Z" fill="white"/>
<path d="M710.499 1617.56H769.741C812.122 1617.56 828.983 1634.41 828.983 1676.32V1877.68C828.983 1919.59 812.122 1936.44 769.741 1936.44H710.499V1617.56ZM774.298 1890.89V1663.11H765.184V1890.89H774.298Z" fill="white"/>
<path d="M897.465 1617.56H952.15V1882.23C952.15 1922.32 933.466 1941 892.907 1941C852.349 1941 833.665 1922.32 833.665 1882.23V1617.56H888.35V1890.89H897.465V1617.56Z" fill="white"/>
<path d="M1075.32 1772.44H1020.63V1663.11H1011.52V1890.89H1020.63V1781.56H1075.32V1882.23C1075.32 1920.96 1054.81 1941 1016.07 1941C977.338 1941 956.831 1920.96 956.831 1882.23V1671.77C956.831 1633.04 977.338 1613 1016.07 1613C1054.81 1613 1075.32 1633.04 1075.32 1671.77V1772.44Z" fill="white"/>
<path d="M1075.55 1617.56H1157.58V1663.11H1143.9V1936.44H1089.22V1663.11H1075.55V1617.56Z" fill="white"/>
<path d="M1184.81 1617.56H1244.05C1286.43 1617.56 1303.3 1634.41 1303.3 1676.32V1877.68C1303.3 1919.59 1286.43 1936.44 1244.05 1936.44H1184.81V1617.56ZM1248.61 1890.89V1663.11H1239.5V1890.89H1248.61Z" fill="white"/>
<path d="M1376.33 1663.11H1362.66V1754.22H1376.33V1799.78H1362.66V1890.89H1376.33V1936.44H1307.98V1617.56H1376.33V1663.11Z" fill="white"/>
<path d="M1435.54 1890.89H1444.65V1819.82C1444.65 1789.3 1380.86 1788.84 1380.86 1725.98V1672.68C1380.86 1631.68 1399.54 1613 1440.1 1613C1480.66 1613 1499.34 1631.68 1499.34 1672.68V1731.9H1444.65V1663.11H1435.54V1724.61C1435.54 1751.94 1499.34 1755.59 1499.34 1815.72V1881.32C1499.34 1922.32 1480.66 1941 1440.1 1941C1399.54 1941 1380.86 1922.32 1380.86 1881.32V1812.99H1435.54V1890.89Z" fill="white"/>
<path d="M1504.02 1936.44V1617.56H1558.71V1936.44H1504.02Z" fill="white"/>
<path d="M1685.23 1745.11H1631V1663.11H1617.33V1890.89H1631V1799.78H1624.17V1754.22H1685.23V1882.23C1685.23 1922.32 1666.55 1941 1624.17 1941C1581.79 1941 1563.1 1922.32 1563.1 1882.23V1671.77C1563.1 1631.68 1581.79 1613 1624.17 1613C1666.55 1613 1685.23 1631.68 1685.23 1671.77V1745.11Z" fill="white"/>
<path d="M1808.31 1617.56H1863V1936.44H1758.19L1747.25 1658.56H1744.52V1936.44H1689.83V1617.56H1794.64L1805.58 1895.44H1808.31V1617.56Z" fill="white"/>
<circle cx="240.5" cy="1703.5" r="47.5" stroke="white" stroke-width="46"/>
<path d="M130 1703.5C130 1729.58 108.663 1751 82 1751C55.3368 1751 34 1729.58 34 1703.5C34 1677.42 55.3368 1656 82 1656C108.663 1656 130 1677.42 130 1703.5Z" stroke="white" stroke-width="46"/>
<path fill-rule="evenodd" clip-rule="evenodd" d="M6.19922 1794.87C14.803 1871.54 82.4797 1929.33 162.232 1929.33C241.985 1929.33 309.661 1871.54 318.265 1794.87H259.628C251.455 1837.44 211.943 1871.33 162.232 1871.33C112.521 1871.33 73.0091 1837.44 64.8361 1794.87H6.19922Z" fill="white"/>
</svg>
