<svg width="1899" height="1301" viewBox="0 0 1899 1301" fill="none" xmlns="http://www.w3.org/2000/svg">
<path d="M0 12.359H167.955C287.335 12.359 335.91 60.9711 335.91 178.794V419.382C335.91 538.029 287.335 586.641 167.955 586.641H0V12.359ZM181.128 458.107V140.893H155.605V458.107H181.128Z" fill="white"/>
<path d="M538.836 140.893H499.317V235.645H538.836V364.179H499.317V458.107H538.836V586.641H344.535V12.359H538.836V140.893Z" fill="white"/>
<path d="M701.543 458.107H727.065V414.439C727.065 327.926 546.761 355.116 546.761 168.906C546.761 51.9078 600.276 0 714.715 0C828.332 0 881.847 51.9078 881.847 168.906V186.209H727.065V140.893H701.543V165.611C701.543 252.124 881.847 224.11 881.847 410.319V430.094C881.847 546.268 828.332 599 714.715 599C600.276 599 546.761 546.268 546.761 430.094V393.84H701.543V458.107Z" fill="white"/>
<path d="M889.688 586.641V12.359H1044.47V586.641H889.688Z" fill="white"/>
<path d="M1399.95 210.927H1245.99V140.893H1206.48V458.107H1245.99V365.827H1226.23V236.469H1399.95V433.389C1399.95 546.268 1346.44 599 1226.23 599C1106.03 599 1052.52 546.268 1052.52 433.389V165.611C1052.52 52.7318 1106.03 0 1226.23 0C1346.44 0 1399.95 52.7318 1399.95 165.611V210.927Z" fill="white"/>
<path d="M1744.22 12.359H1899V586.641H1602.61L1571.32 128.534H1563.91V586.641H1408.31V12.359H1705.52L1735.98 470.466H1744.22V12.359Z" fill="white"/>
<path d="M0 1295.74V1051.26H71.1112C119.803 1051.26 142.573 1074.06 142.573 1122.11V1188.41C142.573 1236.46 119.803 1259.26 71.1112 1259.26H65.8567V1295.74H0ZM76.716 1204.19V1105.98H65.8567V1204.19H76.716Z" fill="white"/>
<path d="M152.915 1051.26H232.433C272.718 1051.26 295.488 1072.31 295.488 1112.99C295.488 1149.82 280.074 1169.12 253.802 1171.57V1173.68C280.074 1177.88 295.488 1199.63 295.488 1237.51V1295.74H229.631V1199.98H218.771V1295.74H152.915V1051.26ZM229.631 1145.26V1105.98H218.771V1145.26H229.631Z" fill="white"/>
<path d="M377.975 1301C329.283 1301 306.514 1278.55 306.514 1230.5V1116.5C306.514 1068.45 329.283 1046 377.975 1046C426.667 1046 449.086 1068.45 449.086 1116.5V1230.5C449.086 1278.55 426.667 1301 377.975 1301ZM372.37 1241.02H383.23V1105.98H372.37V1241.02Z" fill="white"/>
<path d="M459.429 1051.26H530.89C581.684 1051.26 602.352 1071.96 602.352 1122.11V1224.54C602.352 1275.04 581.684 1295.74 530.89 1295.74H459.429V1051.26ZM536.495 1241.02V1105.98H525.636V1241.02H536.495Z" fill="white"/>
<path d="M689.744 1051.26H755.6V1230.15C755.6 1278.55 732.831 1301 684.139 1301C635.797 1301 613.028 1278.55 613.028 1230.15V1051.26H678.884V1240.67H689.744V1051.26Z" fill="white"/>
<path d="M908.865 1168.06H842.658V1106.33H831.799V1240.67H842.658V1178.94H908.865V1229.8C908.865 1276.8 883.994 1301 837.404 1301C791.164 1301 765.942 1276.8 765.942 1229.8V1116.85C765.942 1070.2 791.164 1046 837.404 1046C883.994 1046 908.865 1070.2 908.865 1116.85V1168.06Z" fill="white"/>
<path d="M911.673 1051.26H1010.46V1105.98H993.994V1295.74H928.137V1105.98H911.673V1051.26Z" fill="white"/>
<path d="M1053.98 1051.26H1125.44C1176.24 1051.26 1196.91 1071.96 1196.91 1122.11V1224.54C1196.91 1275.04 1176.24 1295.74 1125.44 1295.74H1053.98V1051.26ZM1131.05 1241.02V1105.98H1120.19V1241.02H1131.05Z" fill="white"/>
<path d="M1290.25 1105.98H1273.44V1146.32H1290.25V1201.03H1273.44V1241.02H1290.25V1295.74H1207.58V1051.26H1290.25V1105.98Z" fill="white"/>
<path d="M1366.49 1241.02H1377.35V1222.43C1377.35 1185.6 1300.63 1197.18 1300.63 1117.91C1300.63 1068.1 1323.4 1046 1372.09 1046C1420.43 1046 1443.2 1068.1 1443.2 1117.91V1125.27H1377.35V1105.98H1366.49V1116.5C1366.49 1153.33 1443.2 1141.41 1443.2 1220.68V1229.09C1443.2 1278.55 1420.43 1301 1372.09 1301C1323.4 1301 1300.63 1278.55 1300.63 1229.09V1213.66H1366.49V1241.02Z" fill="white"/>
<path d="M1453.55 1295.74V1051.26H1519.4V1295.74H1453.55Z" fill="white"/>
<path d="M1677.66 1135.79H1612.15V1105.98H1595.34V1241.02H1612.15V1201.74H1603.75V1146.67H1677.66V1230.5C1677.66 1278.55 1654.89 1301 1603.75 1301C1552.6 1301 1529.83 1278.55 1529.83 1230.5V1116.5C1529.83 1068.45 1552.6 1046 1603.75 1046C1654.89 1046 1677.66 1068.45 1677.66 1116.5V1135.79Z" fill="white"/>
<path d="M1831.14 1051.26H1897V1295.74H1770.89L1757.58 1100.72H1754.43V1295.74H1688.22V1051.26H1814.68L1827.64 1246.28H1831.14V1051.26Z" fill="white"/>
<path d="M117.73 938.978H137.143V905.807C137.143 840.092 0 860.746 0 719.301C0 630.429 40.7044 591 127.749 591C214.168 591 254.872 630.429 254.872 719.301V732.444H137.143V698.022H117.73V716.798C117.73 782.513 254.872 761.234 254.872 902.678V917.699C254.872 1005.95 214.168 1046 127.749 1046C40.7044 1046 0 1005.95 0 917.699V890.161H117.73V938.978Z" fill="white"/>
<path d="M398.093 600.388H512.065L437.545 942.733V1036.61H319.815V942.733L245.295 600.388H359.267L375.549 828.201H381.811L398.093 600.388Z" fill="white"/>
<path d="M620.55 938.978H639.963V905.807C639.963 840.092 502.821 860.746 502.821 719.301C502.821 630.429 543.525 595 630.57 595C716.988 595 757.693 630.429 757.693 719.301V732.444H639.963V698.022H620.55V716.798C620.55 782.513 757.693 761.234 757.693 902.678V917.699C757.693 1005.95 716.988 1046 630.57 1046C543.525 1046 502.821 1005.95 502.821 917.699V890.161H620.55V938.978Z" fill="white"/>
<path d="M762.115 600.388H938.71V698.022H909.277V1036.61H791.548V698.022H762.115V600.388Z" fill="white"/>
<path d="M1104.99 698.022H1074.93V769.996H1104.99V867.63H1074.93V938.978H1104.99V1036.61H957.198V600.388H1104.99V698.022Z" fill="white"/>
<path d="M1388.43 600.388H1623.26V1036.61H1505.53V688.634H1500.52L1476.73 1036.61H1270.7L1247.53 688.634H1241.89V1036.61H1123.54V600.388H1359.62L1370.9 948.366H1376.53L1388.43 600.388Z" fill="white"/>
<path d="M1759.86 938.978H1779.27V905.807C1779.27 840.092 1642.13 860.746 1642.13 719.301C1642.13 630.429 1682.83 591 1769.88 591C1856.3 591 1897 630.429 1897 719.301V732.444H1779.27V698.022H1759.86V716.798C1759.86 782.513 1897 761.234 1897 902.678V917.699C1897 1005.95 1856.3 1046 1769.88 1046C1682.83 1046 1642.13 1005.95 1642.13 917.699V890.161H1759.86V938.978Z" fill="white"/>
</svg>
