<svg width="1871" height="1603" viewBox="0 0 1871 1603" fill="none" xmlns="http://www.w3.org/2000/svg">
<path d="M0 11.9834H162.886C278.804 11.9834 324.772 58.9185 324.772 173.76V549.24C324.772 664.081 278.804 711.017 162.886 711.017H0V11.9834ZM174.877 586.189V136.811H149.895V586.189H174.877Z" fill="white"/>
<path d="M526.263 136.811H488.29V298.587H526.263V423.414H488.29V586.189H526.263V711.017H338.395V11.9834H526.263V136.811Z" fill="white"/>
<path d="M690.062 586.189H715.045V469.351C715.045 395.453 540.168 384.468 540.168 221.693V163.773C540.168 50.9296 592.131 0 703.053 0C813.975 0 864.94 50.9296 864.94 163.773V230.681H715.045V136.811H690.062V208.711C690.062 282.609 864.94 295.591 864.94 448.38V559.226C864.94 672.07 813.975 723 703.053 723C592.131 723 540.168 672.07 540.168 559.226V448.38H690.062V586.189Z" fill="white"/>
<path d="M878.563 711.017V11.9834H1028.46V711.017H878.563Z" fill="white"/>
<path d="M1380.04 274.62H1230.14V136.811H1192.17V586.189H1230.14V424.413H1211.16V299.586H1380.04V562.222C1380.04 672.07 1328.08 723 1211.16 723C1094.24 723 1042.28 672.07 1042.28 562.222V160.778C1042.28 50.9296 1094.24 0 1211.16 0C1328.08 0 1380.04 50.9296 1380.04 160.778V274.62Z" fill="white"/>
<path d="M1720.11 11.9834H1870V711.017H1582.2L1552.22 124.827H1545.23V711.017H1394.33V11.9834H1682.13L1712.11 598.173H1720.11V11.9834Z" fill="white"/>
<path d="M116.806 1173.28H136.274V1082.13C136.274 1024.49 0 1015.92 0 888.939V843.757C0 755.729 40.4929 716 126.93 716C213.366 716 253.08 755.729 253.08 843.757V895.95H136.274V822.724H116.806V878.812C116.806 936.459 253.08 946.586 253.08 1065.77V1152.24C253.08 1240.27 213.366 1280 126.93 1280C40.4929 1280 0 1240.27 0 1152.24V1065.77H116.806V1173.28Z" fill="white"/>
<path d="M396.533 725.348H509.446L435.469 1177.17V1270.65H318.662V1177.17L244.685 725.348H357.598L373.951 1008.91H380.18L396.533 725.348Z" fill="white"/>
<path d="M628.229 1173.28H647.697V1082.13C647.697 1024.49 511.423 1015.92 511.423 888.939V843.757C511.423 755.729 551.916 716 638.353 716C724.789 716 764.503 755.729 764.503 843.757V895.95H647.697V822.724H628.229V878.812C628.229 936.459 764.503 946.586 764.503 1065.77V1152.24C764.503 1240.27 724.789 1280 638.353 1280C551.916 1280 511.423 1240.27 511.423 1152.24V1065.77H628.229V1173.28Z" fill="white"/>
<path d="M765.994 725.348H941.982V822.724H912.391V1270.65H795.585V822.724H765.994V725.348Z" fill="white"/>
<path d="M1099.28 822.724H1069.69V948.923H1099.28V1046.3H1069.69V1173.28H1099.28V1270.65H952.884V725.348H1099.28V822.724Z" fill="white"/>
<path d="M1373.32 725.348H1606.93V1270.65H1490.13V813.376H1484.68L1461.31 1270.65H1256.51L1233.15 813.376H1227.7V1270.65H1110.12V725.348H1344.51L1356.19 1182.62H1361.64L1373.32 725.348Z" fill="white"/>
<path d="M1734.73 1173.28H1754.19V1082.13C1754.19 1024.49 1617.92 1015.92 1617.92 888.939V843.757C1617.92 755.729 1658.41 716 1744.85 716C1831.29 716 1871 755.729 1871 843.757V895.95H1754.19V822.724H1734.73V878.812C1734.73 936.459 1871 946.586 1871 1065.77V1152.24C1871 1240.27 1831.29 1280 1744.85 1280C1658.41 1280 1617.92 1240.27 1617.92 1152.24V1065.77H1734.73V1173.28Z" fill="white"/>
<path d="M0 1597.66V1286.34H72.11C121.519 1286.34 144.665 1309.46 144.665 1358.39V1463.35C144.665 1512.27 121.519 1535.4 72.11 1535.4H66.7686V1597.66H0ZM77.8967 1479.8V1341.93H66.7686V1479.8H77.8967Z" fill="white"/>
<path d="M295.399 1351.72V1377.51C295.399 1416.2 280.264 1438.44 253.557 1441.11V1443.33C280.264 1447.34 295.399 1469.57 295.399 1507.82V1597.66H231.746H229.075V1470.02H217.947V1597.66H150.733V1286.34H231.746C272.697 1287.23 295.399 1310.35 295.399 1351.72ZM228.63 1414.43V1341.93H217.502V1414.43H228.63Z" fill="white"/>
<path d="M374.022 1603C324.613 1603 301.467 1580.32 301.467 1531.39V1352.6C301.467 1303.68 324.613 1281 374.022 1281C423.431 1281 446.132 1303.68 446.132 1352.6V1531.39C446.132 1580.32 423.431 1603 374.022 1603ZM368.236 1542.07H379.364V1341.93H368.236V1542.07Z" fill="white"/>
<path d="M452.2 1286.34H524.756C576.39 1286.34 596.866 1307.24 596.866 1358.39V1525.61C596.866 1576.76 576.39 1597.66 524.756 1597.66H452.2V1286.34ZM530.097 1542.07V1341.93H518.969V1542.07H530.097Z" fill="white"/>
<path d="M680.831 1286.34H747.599V1531.39C747.599 1580.32 724.453 1603 675.044 1603C626.08 1603 602.934 1580.32 602.934 1531.39V1286.34H669.703V1542.07H680.831V1286.34Z" fill="white"/>
<path d="M898.333 1436.22H831.564V1342.38H820.436V1541.62H831.564V1447.34H898.333V1530.95C898.333 1578.54 872.961 1603 825.778 1603C778.594 1603 753.667 1578.54 753.667 1530.95V1353.05C753.667 1305.46 778.594 1281 825.778 1281C872.961 1281 898.333 1305.46 898.333 1353.05V1436.22Z" fill="white"/>
<path d="M899.185 1286.34H999.783V1341.93H982.868V1597.66H916.099V1341.93H899.185V1286.34Z" fill="white"/>
<path d="M1035.03 1286.34H1107.59C1159.22 1286.34 1179.7 1307.24 1179.7 1358.39V1525.61C1179.7 1576.76 1159.22 1597.66 1107.59 1597.66H1035.03V1286.34ZM1112.93 1542.07V1341.93H1101.8V1542.07H1112.93Z" fill="white"/>
<path d="M1269.45 1341.93H1252.54V1413.98H1269.45V1469.57H1252.54V1542.07H1269.45V1597.66H1185.77V1286.34H1269.45V1341.93Z" fill="white"/>
<path d="M1342.41 1542.07H1353.54V1490.03C1353.54 1457.12 1275.64 1452.23 1275.64 1379.73V1353.94C1275.64 1303.68 1298.79 1281 1348.2 1281C1397.61 1281 1420.31 1303.68 1420.31 1353.94V1383.74H1353.54V1341.93H1342.41V1373.95C1342.41 1406.86 1420.31 1412.65 1420.31 1480.69V1530.06C1420.31 1580.32 1397.61 1603 1348.2 1603C1298.79 1603 1275.64 1580.32 1275.64 1530.06V1480.69H1342.41V1542.07Z" fill="white"/>
<path d="M1426.38 1597.66V1286.34H1493.15V1597.66H1426.38Z" fill="white"/>
<path d="M1649.75 1403.31H1582.99V1341.93H1566.07V1542.07H1582.99V1470.02H1574.53V1414.43H1649.75V1531.39C1649.75 1580.32 1626.61 1603 1574.53 1603C1522.45 1603 1499.3 1580.32 1499.3 1531.39V1352.6C1499.3 1303.68 1522.45 1281 1574.53 1281C1626.61 1281 1649.75 1303.68 1649.75 1352.6V1403.31Z" fill="white"/>
<path d="M1801.23 1286.34H1868V1597.66H1739.8L1726.45 1336.59H1723.33V1597.66H1656.12V1286.34H1784.32L1797.67 1547.41H1801.23V1286.34Z" fill="white"/>
</svg>
