<svg width="652" height="866" viewBox="0 0 652 866" fill="none" xmlns="http://www.w3.org/2000/svg">
<path d="M114 82.9998H91.2002V180.2H114V255.2H91.2002V353H114V428H1.2002V7.99979H114V82.9998Z" fill="white"/>
<path d="M122.349 7.99979H257.949V82.9998H235.149V428H145.149V82.9998H122.349V7.99979Z" fill="white"/>
<path d="M349.317 353H364.317V282.8C364.317 238.4 259.317 231.8 259.317 134V99.1998C259.317 31.3998 290.517 0.799805 357.117 0.799805C423.717 0.799805 454.317 31.3998 454.317 99.1998V139.4H364.317V82.9998H349.317V126.2C349.317 170.6 454.317 178.4 454.317 270.2V336.8C454.317 404.6 423.717 435.2 357.117 435.2C290.517 435.2 259.317 404.6 259.317 336.8V270.2H349.317V353Z" fill="white"/>
<path d="M564.849 7.99979H651.849L594.849 356V428H504.849V356L447.849 7.99979H534.849L547.449 226.4H552.249L564.849 7.99979Z" fill="white"/>
<path d="M72 800H84V706.4C84 666.2 0 665.6 0 582.8V512.6C0 458.6 24.6 434 78 434C131.4 434 156 458.6 156 512.6V590.6H84V500H72V581C72 617 156 621.8 156 701V787.4C156 841.4 131.4 866 78 866C24.6 866 0 841.4 0 787.4V697.4H72V800Z" fill="white"/>
<path d="M246.164 440H318.164V860H246.164V680H234.164V860H162.164V440H234.164V620H246.164V440Z" fill="white"/>
<path d="M402.328 434C455.728 434 480.328 458.6 480.328 511.4V788.6C480.328 841.4 455.728 866 402.328 866C348.928 866 324.328 841.4 324.328 788.6V511.4C324.328 458.6 348.928 434 402.328 434ZM408.328 800V500H396.328V800H408.328Z" fill="white"/>
<path d="M486.492 860V440H564.492C617.892 440 642.492 464.6 642.492 517.4V698.6C642.492 751.4 617.892 776 564.492 776H558.492V860H486.492ZM570.492 716V500H558.492V716H570.492Z" fill="white"/>
</svg>
