<svg width="315" height="305" viewBox="0 0 315 305" fill="none" xmlns="http://www.w3.org/2000/svg">
<path d="M305.821 34.072H287.513V49.793H305.821V81.036H287.513V96.757H305.821V128H253.882V2.82898H305.821V34.072Z" fill="white"/>
<path d="M247.091 128H213.46V2.82898H247.091V128Z" fill="white"/>
<path d="M175.558 2.82898H209.189L200.831 128H139.937L131.778 2.82898H165.409L168.991 96.757H171.976L175.558 2.82898Z" fill="white"/>
<path d="M94.8066 96.757V34.072H90.6276V96.757H94.8066ZM56.9966 34.072C56.9966 11.6514 68.8702 0.44104 92.6176 0.44104C116.498 0.44104 128.438 11.6514 128.438 34.072V96.757C128.438 119.178 116.498 130.388 92.6176 130.388C68.8702 130.388 56.9966 119.178 56.9966 96.757V34.072Z" fill="white"/>
<path d="M37.0138 96.757H55.3218V128H3.38281V2.82898H37.0138V96.757Z" fill="white"/>
<path d="M287.691 213.293V165.728H284.52V213.293H287.691ZM288.748 142.021C293.983 142.122 298.161 142.877 301.281 144.286C304.503 145.695 307.07 148.262 308.982 151.987C310.996 155.712 312.355 160.493 313.059 166.332C313.865 172.171 314.267 179.922 314.267 189.586C314.267 199.149 313.865 206.85 313.059 212.689C312.355 218.528 310.996 223.309 308.982 227.034C307.07 230.759 304.503 233.326 301.281 234.735C298.161 236.144 293.983 236.899 288.748 237H287.842H287.691H259.001V142.021H288.748Z" fill="white"/>
<path d="M226.79 184.15V165.728H223.619V184.15H226.79ZM249.138 193.814L256.235 237H229.81L226.79 207.857H223.619V237H198.1V142.021H226.79C230.917 142.021 234.441 142.424 237.36 143.229C240.279 143.934 242.897 145.192 245.212 147.004C247.628 148.816 249.39 151.484 250.497 155.007C251.705 158.43 252.309 162.708 252.309 167.842C252.309 168.345 252.309 168.798 252.309 169.201C252.208 175.644 251.302 180.576 249.591 183.999C247.98 187.321 245.212 189.687 241.286 191.096V193.814H249.138Z" fill="white"/>
<path d="M164.912 165.728V201.968H168.234V165.728H164.912ZM164.912 224.165V237H138.185L144.98 142.021H188.166L194.961 237H168.234V224.165H164.912Z" fill="white"/>
<path d="M114.181 142.021H139.7L131.395 237H101.648L98.9295 195.324H96.6645L93.9465 237H64.1995L55.8945 142.021H81.4135L82.4705 183.697H84.5845L88.8125 142.021H106.782L111.01 183.697H113.124L114.181 142.021Z" fill="white"/>
<path d="M27.331 165.728V201.968H30.653V165.728H27.331ZM27.331 224.165V237H0.604004L7.399 142.021H50.585L57.38 237H30.653V224.165H27.331Z" fill="white"/>
<path d="M282.659 305H276.527V254.046H295.069C299.79 254.046 303.391 255.336 305.873 257.915C308.355 260.494 309.596 264.096 309.596 268.719C309.596 272.856 308.526 276.165 306.384 278.647C304.243 281.129 301.128 282.565 297.04 282.954L310.034 305H303.172L290.762 283.246H282.659V305ZM294.923 278.063C297.503 278.063 299.498 277.43 300.909 276.165C302.369 274.851 303.099 273.002 303.099 270.617V266.821C303.099 264.436 302.369 262.611 300.909 261.346C299.498 260.032 297.503 259.375 294.923 259.375H282.659V278.063H294.923Z" fill="white"/>
<path d="M222.536 305V254.046H253.926V259.375H228.668V276.53H253.05V281.859H228.668V299.671H253.926V305H222.536Z" fill="white"/>
<path d="M173.873 261.857H173.362V305H167.814V254.046H176.501L193.875 296.751H194.386V254.046H199.934V305H191.247L173.873 261.857Z" fill="white"/>
<path d="M119.882 261.857H119.371V305H113.823V254.046H122.51L139.884 296.751H140.395V254.046H145.943V305H137.256L119.882 261.857Z" fill="white"/>
<path d="M60.1235 305V300.109H72.8255V258.937H60.1235V254.046H91.6595V258.937H78.9575V300.109H91.6595V305H60.1235Z" fill="white"/>
<path d="M6.57018 305L2.55518 254.046H8.03018L10.1472 283.246L11.2422 298.649H11.8262L18.5422 267.332H25.4042L32.1202 298.649H32.7042L33.7992 283.246L35.9162 254.046H41.2452L37.2302 305H28.3972L22.1922 274.559H21.6082L15.4032 305H6.57018Z" fill="white"/>
</svg>
