<svg width="1087" height="738" viewBox="0 0 1087 738" fill="none" xmlns="http://www.w3.org/2000/svg">
<path d="M94.5 222C119 222 139 205.5 139 172.5V52.5C139 18 120 4.00002 93.5 4.00002H1.5V376H64.5V222H94.5ZM64.5 52H69C75.5 52 76.5 55.5 76.5 61.5V162C76.5 169 74.5 171.5 69 171.5H64.5V52Z" fill="#FFFAEB"/>
<path d="M210.508 51H216.008C221.508 51 222.508 53.5 222.508 59.5V151C222.508 156.5 220.508 159.5 215.508 159.5H210.508V51ZM210.508 212.5H215.508C221.508 212.5 222.508 216 222.508 221V360.5C222.508 367 224.008 373 226.508 376H289.008V374.5C287.008 371 286.008 365 286.008 358V210.5C286.008 191.5 273.008 180.5 262.508 176C273.008 171.5 285.008 161 285.008 136V48.5C285.008 18 267.508 4.00002 245.508 4.00002H147.008V376H210.508V212.5Z" fill="#FFFAEB"/>
<path d="M439.469 74C439.469 29.5 418.969 0.5 371.969 0.5H361.969C314.969 0.5 294.469 28.5 294.469 74V307.5C294.469 353 318.469 379.5 361.969 379.5H372.469C413.469 379.5 439.469 354 439.469 307.5V74ZM374.469 313C374.469 319.5 371.969 323 366.969 323C361.969 323 359.969 319.5 359.969 313V67C359.969 59.5 361.469 56 366.969 56C372.469 56 374.469 60 374.469 67V313Z" fill="#FFFAEB"/>
<path d="M448.277 376H539.777C567.277 376 587.777 358.5 587.777 319.5V57.5C587.777 18 566.277 4.00002 538.777 4.00002H448.277V376ZM510.277 55H516.277C522.277 55 523.777 59 523.777 66.5V311C523.777 319.5 522.277 323.5 516.277 323.5H510.277V55Z" fill="#FFFAEB"/>
<path d="M673.215 380C718.215 380 739.715 351 739.715 318.5V4.00002H675.215V311C675.215 317.5 673.215 320.5 668.215 320.5C664.215 320.5 661.715 318 661.715 311V4.00002H596.715V318.5C596.715 351.5 614.715 380 663.215 380H673.215Z" fill="#FFFAEB"/>
<path d="M820.07 325C815.07 325 813.57 321 813.57 314.5V63C813.57 56.5 815.07 53.5 820.07 53.5C825.57 53.5 826.57 57 826.57 63V159.5H888.57V61C888.57 24.5 869.57 0.5 825.57 0.5H815.07C767.07 0.5 749.07 29 748.57 68V310C748.57 353.5 768.07 379.5 815.57 379.5H825.57C870.07 379.5 888.57 349.5 888.57 316V206H826.57V314.5C826.57 320.5 825.57 325 820.07 325Z" fill="#FFFAEB"/>
<path d="M923.043 376H985.543V61H1014.04V4.00002H894.543V61H923.043V376Z" fill="#FFFAEB"/>
<path d="M0 734.731H85.3629C111.018 734.731 130.143 718.385 130.143 681.958V437.24C130.143 400.346 110.085 387.269 84.43 387.269H0V734.731ZM57.8415 434.905H63.4391C69.0367 434.905 70.4361 438.641 70.4361 445.646V674.018C70.4361 681.958 69.0367 685.694 63.4391 685.694H57.8415V434.905Z" fill="#FFFAEB"/>
<path d="M138.481 387.269V734.731H239.704V680.557H196.323V580.148H231.774V525.04H196.323V440.509H238.305V387.269H138.481Z" fill="#FFFAEB"/>
<path d="M303.806 738H317.334C359.782 738 378.441 713.248 378.441 676.354V607.235C378.441 576.879 370.044 561 346.255 541.385L316.401 515.232C308.938 508.694 307.072 504.958 307.072 495.617V436.306C307.072 431.169 308.938 428.834 313.136 428.834C317.334 428.834 319.2 431.169 319.2 436.306V510.095H376.108V433.504C376.108 405.483 362.581 384 320.133 384H306.605C264.623 384 247.364 405.95 247.364 438.174V499.821C247.364 525.974 255.761 545.121 275.819 561.934L306.139 588.087C315.002 596.026 316.401 600.697 316.401 611.905V679.623C316.401 685.694 315.002 689.43 309.87 689.43C305.206 689.43 303.806 685.694 303.806 680.09V593.224H245.965V684.293C245.965 719.786 265.09 738 303.806 738Z" fill="#FFFAEB"/>
<path d="M445.076 387.269H385.835V734.731H445.076V387.269Z" fill="#FFFAEB"/>
<path d="M500.833 738C520.424 738 533.019 724.923 540.949 712.781C542.815 716.984 546.08 729.594 547.013 734.731H586.662V530.177H518.558V575.478H530.686V679.156C530.686 686.161 527.421 689.897 522.29 689.897C516.693 689.897 513.894 686.161 513.894 679.156V441.91C513.894 436.306 515.293 433.037 520.424 433.037C526.022 433.037 527.421 436.306 527.421 441.91V517.567H584.33V439.575C584.33 411.554 571.269 384 523.69 384H515.76C469.113 384 453.253 411.554 453.253 444.245V680.557C453.253 711.38 468.18 738 499.433 738H500.833Z" fill="#FFFAEB"/>
<path d="M594.924 387.269V734.731H644.369L643.902 526.441L671.424 734.731H726V387.269H677.021L677.488 575.478L654.631 387.269H594.924Z" fill="#FFFAEB"/>
<path d="M838 598C838 598 865.951 638 918.5 638C971.049 638 999 598 999 598" stroke="white" stroke-width="23"/>
<circle cx="917" cy="568" r="156.5" stroke="white" stroke-width="27"/>
<ellipse cx="870.5" cy="532.5" rx="16.5" ry="36.5" fill="white"/>
<ellipse cx="961" cy="532.5" rx="17" ry="36.5" fill="white"/>
</svg>
