<svg width="306" height="189" viewBox="0 0 306 189" fill="none" xmlns="http://www.w3.org/2000/svg">
<path d="M272.667 164.91V120.422H269.701V164.91H272.667ZM245.833 120.422C245.833 104.51 254.259 96.5535 271.113 96.5535C288.061 96.5535 296.535 104.51 296.535 120.422V164.91C296.535 180.822 288.061 188.778 271.113 188.778C254.259 188.778 245.833 180.822 245.833 164.91V120.422Z" fill="#362C27"/>
<path d="M241.719 187.083H217.851V98.2483H241.719V187.083Z" fill="#362C27"/>
<path d="M189.516 164.91V120.422H186.551V164.91H189.516ZM190.505 98.2483C195.401 98.3425 199.309 99.0486 202.227 100.367C205.24 101.685 207.641 104.086 209.43 107.57C211.313 111.053 212.584 115.526 213.243 120.987C213.997 126.448 214.373 133.698 214.373 142.736C214.373 151.681 213.997 158.884 213.243 164.345C212.584 169.806 211.313 174.278 209.43 177.762C207.641 181.246 205.24 183.647 202.227 184.965C199.309 186.283 195.401 186.989 190.505 187.083H189.658H189.516H162.682V98.2483H190.505Z" fill="#362C27"/>
<path d="M134.338 98.2483H158.206V164.91C158.206 180.822 149.732 188.778 132.784 188.778C115.931 188.778 107.504 180.822 107.504 164.91V98.2483H131.372V164.91H134.338V98.2483Z" fill="#362C27"/>
<path d="M105.978 98.2483V120.422H96.2329V187.083H72.3647V120.422H62.761V98.2483H105.978Z" fill="#362C27"/>
<path d="M50.3424 137.37C54.2027 139.818 57.1215 142.925 59.0988 146.691C61.076 150.457 62.0647 155.4 62.0647 161.52C62.0647 162.085 62.0647 162.65 62.0647 163.215C61.8764 171.406 59.805 177.715 55.8505 182.14C51.896 186.565 45.4464 188.778 36.5017 188.778C19.4597 188.778 10.9387 180.822 10.9387 164.91V156.295H34.8069V164.91H37.7728V160.39C37.7728 158.601 37.0195 157.236 35.5131 156.295L22.2373 147.962C19.7893 146.361 17.7649 144.572 16.1643 142.595C14.5637 140.524 13.2926 137.934 12.351 134.827C11.4095 131.626 10.9387 127.954 10.9387 123.811C10.9387 123.152 10.9387 122.54 10.9387 121.975C11.2212 113.784 13.2926 107.523 17.1529 103.191C21.1074 98.7661 27.5099 96.5535 36.3605 96.5535C53.2141 96.5535 61.641 104.51 61.641 120.422V129.037H37.7728V120.422H34.8069V124.941C34.8069 126.73 35.5601 128.095 37.0666 129.037L50.3424 137.37Z" fill="#362C27"/>
<path d="M279.521 2.69481H278.408L278.527 3.80175L283.634 51.2786H283.62L275.848 3.53413L275.711 2.69481H274.861H248.874H247.874V3.69481V92.5296V93.5296H248.874H272.742H273.859L273.736 92.4199L268.492 44.9459H268.631L275.708 92.6763L275.834 93.5296H276.697H303.39H304.39V92.5296V3.69481V2.69481H303.39H279.521Z" stroke="#362C27" stroke-width="2"/>
<path d="M241.997 35.4833H242.997V34.4833V25.8682C242.997 17.7413 240.83 11.4667 236.326 7.23801C231.834 3.02041 225.188 1 216.576 1C208.008 1 201.397 3.02105 196.929 7.23992C192.449 11.469 190.295 17.7428 190.295 25.8682V70.3562C190.295 78.4163 191.876 84.6458 195.205 88.8758C198.57 93.1514 203.591 95.2244 210.079 95.2244C213.957 95.2244 217.11 94.4522 219.415 92.7797C221.623 91.2407 223.254 88.9702 224.345 86.0443H225.603V92.5296V93.5296H226.603H241.997H242.997V92.5296V39.8501V38.8501H241.997L218.129 38.8501H217.129V39.8501V56.3743V69.3562H216.163V26.8682H217.129V34.4833V35.4833H218.129H241.997Z" stroke="#362C27" stroke-width="2"/>
<path d="M183.591 93.5296H184.591V92.5296V3.69481V2.69481H183.591H159.723H158.723V3.69481V92.5296V93.5296H159.723H183.591Z" stroke="#362C27" stroke-width="2"/>
<path d="M142.621 41.9715L142.618 41.969L132.284 35.4833H153.384H154.384V34.4833V25.8682C154.384 17.7428 152.23 11.469 147.751 7.23992C143.282 3.02105 136.671 1 128.104 1C119.11 1 112.372 3.24767 108.151 7.97156L108.15 7.97252C104.081 12.5377 101.97 19.0573 101.683 27.3873L101.682 27.4045V27.4217V27.425V27.4284V27.4317V27.435V27.4383V27.4416V27.4449V27.4482V27.4516V27.4549V27.4582V27.4615V27.4649V27.4682V27.4715V27.4748V27.4782V27.4815V27.4848V27.4882V27.4915V27.4948V27.4982V27.5015V27.5048V27.5082V27.5115V27.5148V27.5182V27.5215V27.5249V27.5282V27.5316V27.5349V27.5382V27.5416V27.5449V27.5483V27.5516V27.555V27.5584V27.5617V27.5651V27.5684V27.5718V27.5751V27.5785V27.5819V27.5852V27.5886V27.592V27.5953V27.5987V27.6021V27.6054V27.6088V27.6122V27.6155V27.6189V27.6223V27.6257V27.629V27.6324V27.6358V27.6392V27.6425V27.6459V27.6493V27.6527V27.6561V27.6595V27.6629V27.6662V27.6696V27.673V27.6764V27.6798V27.6832V27.6866V27.69V27.6934V27.6968V27.7002V27.7036V27.707V27.7104V27.7138V27.7172V27.7206V27.724V27.7274V27.7308V27.7342V27.7376V27.7411V27.7445V27.7479V27.7513V27.7547V27.7581V27.7616V27.765V27.7684V27.7718V27.7752V27.7787V27.7821V27.7855V27.7889V27.7924V27.7958V27.7992V27.8027V27.8061V27.8095V27.813V27.8164V27.8198V27.8233V27.8267V27.8301V27.8336V27.837V27.8405V27.8439V27.8474V27.8508V27.8543V27.8577V27.8612V27.8646V27.8681V27.8715V27.875V27.8784V27.8819V27.8853V27.8888V27.8923V27.8957V27.8992V27.9026V27.9061V27.9096V27.913V27.9165V27.92V27.9234V27.9269V27.9304V27.9338V27.9373V27.9408V27.9443V27.9477V27.9512V27.9547V27.9582V27.9617V27.9651V27.9686V27.9721V27.9756V27.9791V27.9826V27.9861V27.9896V27.993V27.9965V28V28.0035V28.007V28.0105V28.014V28.0175V28.021V28.0245V28.028V28.0315V28.035V28.0385V28.042V28.0455V28.049V28.0525V28.0561V28.0596V28.0631V28.0666V28.0701V28.0736V28.0771V28.0807V28.0842V28.0877V28.0912V28.0947V28.0983V28.1018V28.1053V28.1088V28.1124V28.1159V28.1194V28.123V28.1265V28.13V28.1336V28.1371V28.1406V28.1442V28.1477V28.1512V28.1548V28.1583V28.1619V28.1654V28.1689V28.1725V28.176V28.1796V28.1831V28.1867V28.1902V28.1938V28.1973V28.2009V28.2045V28.208V28.2116V28.2151V28.2187V28.2222V28.2258V28.2294V28.2329V28.2365V28.2401V28.2436V28.2472V28.2508V28.2543V28.2579V28.2615V28.2651V28.2686V28.2722V28.2758V28.2794V28.2829V28.2865V28.2901V28.2937V28.2973V28.3008V28.3044V28.308V28.3116V28.3152V28.3188V28.3224V28.326V28.3296V28.3332V28.3368V28.3403V28.3439V28.3475V28.3511V28.3547V28.3583V28.3619V28.3656V28.3692V28.3728V28.3764V28.38V28.3836V28.3872V28.3908V28.3944V28.398V28.4016V28.4053V28.4089V28.4125V28.4161V28.4197V28.4234V28.427V28.4306V28.4342V28.4379V28.4415V28.4451V28.4487V28.4524V28.456V28.4596V28.4633V28.4669V28.4705V28.4742V28.4778V28.4814V28.4851V28.4887V28.4924V28.496V28.4996V28.5033V28.5069V28.5106V28.5142V28.5179V28.5215V28.5252V28.5288V28.5325V28.5361V28.5398V28.5435V28.5471V28.5508V28.5544V28.5581V28.5618V28.5654V28.5691V28.5727V28.5764V28.5801V28.5837V28.5874V28.5911V28.5948V28.5984V28.6021V28.6058V28.6095V28.6131V28.6168V28.6205V28.6242V28.6279V28.6315V28.6352V28.6389V28.6426V28.6463V28.65V28.6537V28.6573V28.661V28.6647V28.6684V28.6721V28.6758V28.6795V28.6832V28.6869V28.6906V28.6943V28.698V28.7017V28.7054V28.7091V28.7128V28.7165V28.7202V28.7239V28.7277V28.7314V28.7351V28.7388V28.7425V28.7462V28.7499V28.7537V28.7574V28.7611V28.7648V28.7685V28.7723V28.776V28.7797V28.7834V28.7872V28.7909V28.7946V28.7984V28.8021V28.8058V28.8096V28.8133V28.817V28.8208V28.8245V28.8282V28.832V28.8357V28.8395V28.8432V28.847V28.8507V28.8545V28.8582V28.862V28.8657V28.8695V28.8732V28.877V28.8807V28.8845V28.8882V28.892V28.8957V28.8995V28.9033V28.907V28.9108V28.9146V28.9183V28.9221V28.9259V28.9296V28.9334V28.9372V28.9409V28.9447V28.9485V28.9523V28.956V28.9598V28.9636V28.9674V28.9711V28.9749V28.9787V28.9825V28.9863V28.9901V28.9939V28.9976V29.0014V29.0052V29.009V29.0128V29.0166V29.0204V29.0242V29.028V29.0318V29.0356V29.0394V29.0432V29.047V29.0508V29.0546V29.0584V29.0622V29.066V29.0698V29.0736V29.0774V29.0812V29.0851V29.0889V29.0927V29.0965V29.1003V29.1041V29.108V29.1118V29.1156V29.1194V29.1232V29.1271V29.1309V29.1347V29.1386V29.1424V29.1462V29.15V29.1539V29.1577V29.1615V29.1654V29.1692V29.1731V29.1769V29.1807V29.1846V29.1884V29.1923V29.1961V29.1999V29.2038V29.2076V29.2115V29.2153V29.2192V29.223V29.2269V29.2307V29.2346V29.2385V29.2423V29.2462V29.25V29.2539V29.2578C101.682 33.474 102.161 37.2441 103.135 40.556L103.135 40.556L103.138 40.5638C104.106 43.7603 105.426 46.4654 107.117 48.653L107.123 48.662L107.131 48.6708C108.806 50.7399 110.911 52.5962 113.434 54.2454L113.441 54.2504L113.449 54.2554L123.782 60.7411H102.682H101.682V61.7411V70.3562C101.682 78.4847 103.862 84.7599 108.391 88.9883C112.906 93.2046 119.586 95.2244 128.245 95.2244C137.33 95.2244 144.117 92.9787 148.34 88.2528C152.504 83.5928 154.616 77.0235 154.808 68.6844L154.808 68.6729V68.6614V68.6581V68.6548V68.6515V68.6482V68.6449V68.6416V68.6383V68.635V68.6316V68.6283V68.625V68.6217V68.6184V68.6151V68.6118V68.6085V68.6052V68.6019V68.5985V68.5952V68.5919V68.5886V68.5853V68.582V68.5787V68.5754V68.5721V68.5688V68.5654V68.5621V68.5588V68.5555V68.5522V68.5489V68.5456V68.5423V68.539V68.5357V68.5323V68.529V68.5257V68.5224V68.5191V68.5158V68.5125V68.5092V68.5059V68.5026V68.4992V68.4959V68.4926V68.4893V68.486V68.4827V68.4794V68.4761V68.4728V68.4695V68.4661V68.4628V68.4595V68.4562V68.4529V68.4496V68.4463V68.443V68.4397V68.4363V68.433V68.4297V68.4264V68.4231V68.4198V68.4165V68.4132V68.4099V68.4066V68.4033V68.3999V68.3966V68.3933V68.39V68.3867V68.3834V68.3801V68.3768V68.3735V68.3701V68.3668V68.3635V68.3602V68.3569V68.3536V68.3503V68.347V68.3437V68.3404V68.337V68.3337V68.3304V68.3271V68.3238V68.3205V68.3172V68.3139V68.3106V68.3073V68.3039V68.3006V68.2973V68.294V68.2907V68.2874V68.2841V68.2808V68.2775V68.2742V68.2708V68.2675V68.2642V68.2609V68.2576V68.2543V68.251V68.2477V68.2444V68.2411V68.2377V68.2344V68.2311V68.2278V68.2245V68.2212V68.2179V68.2146V68.2113V68.208V68.2046V68.2013V68.198V68.1947V68.1914V68.1881V68.1848V68.1815V68.1782V68.1749V68.1715V68.1682V68.1649V68.1616V68.1583V68.155V68.1517V68.1484V68.1451V68.1417V68.1384V68.1351V68.1318V68.1285V68.1252V68.1219V68.1186V68.1153V68.112V68.1087V68.1053V68.102V68.0987V68.0954V68.0921V68.0888V68.0855V68.0822V68.0789V68.0755V68.0722V68.0689V68.0656V68.0623V68.059V68.0557V68.0524V68.0491V68.0458V68.0424V68.0391V68.0358V68.0325V68.0292V68.0259V68.0226V68.0193V68.016V68.0127V68.0093V68.006V68.0027V67.9994V67.9961V67.9928V67.9895V67.9862V67.9829V67.9796V67.9762V67.9729V67.9696V67.9663V67.963V67.9597V67.9564V67.9531V67.9498V67.9465V67.9431V67.9398V67.9365V67.9332V67.9299V67.9266V67.9233V67.92V67.9167V67.9134V67.91V67.9067V67.9034V67.9001V67.8968V67.8935V67.8902V67.8869V67.8836V67.8802V67.8769V67.8736V67.8703V67.867V67.8637V67.8604V67.8571V67.8538V67.8505V67.8472V67.8438V67.8405V67.8372V67.8339V67.8306V67.8273V67.824V67.8207V67.8174V67.814V67.8107V67.8074V67.8041V67.8008V67.7975V67.7942V67.7909V67.7876V67.7843V67.7809V67.7776V67.7743V67.771V67.7677V67.7644V67.7611V67.7578V67.7545V67.7512V67.7478V67.7445V67.7412V67.7379V67.7346V67.7313V67.728V67.7247V67.7214V67.7181V67.7147V67.7114V67.7081V67.7048V67.7015V67.6982V67.6949V67.6916V67.6883V67.685V67.6816V67.6783V67.675V67.6717V67.6684V67.6651V67.6618V67.6585V67.6552V67.6519V67.6485V67.6452V67.6419V67.6386V67.6353V67.632V67.6287V67.6254V67.6221V67.6188V67.6154V67.6121V67.6088V67.6055V67.6022V67.5989V67.5956V67.5923V67.589V67.5856V67.5823V67.579V67.5757V67.5724V67.5691V67.5658V67.5625V67.5592V67.5559V67.5526V67.5492V67.5459V67.5426V67.5393V67.536V67.5327V67.5294V67.5261V67.5228V67.5194V67.5161V67.5128V67.5095V67.5062V67.5029V67.4996V67.4963V67.493V67.4897V67.4864V67.483V67.4797V67.4764V67.4731V67.4698V67.4665V67.4632V67.4599V67.4566V67.4532V67.4499V67.4466V67.4433V67.44V67.4367V67.4334V67.4301V67.4268V67.4235V67.4201V67.4168V67.4135V67.4102V67.4069V67.4036V67.4003V67.397V67.3937V67.3904V67.387V67.3837V67.3804V67.3771V67.3738V67.3705V67.3672V67.3639V67.3606V67.3573V67.3539V67.3506V67.3473V67.344V67.3407V67.3374V67.3341V67.3308V67.3275V67.3242V67.3208V67.3175V67.3142V67.3109V67.3076V67.3043V67.301V67.2977V67.2944V67.2911V67.2877V67.2844V67.2811V67.2778V67.2745V67.2712V67.2679V67.2646V67.2613V67.2579V67.2546V67.2513V67.248V67.2447V67.2414V67.2381V67.2348V67.2315V67.2282V67.2248V67.2215V67.2182V67.2149V67.2116V67.2083V67.205V67.2017V67.1984V67.1951V67.1917V67.1884V67.1851V67.1818V67.1785V67.1752V67.1719V67.1686V67.1653V67.162V67.1586V67.1553V67.152V67.1487V67.1454V67.1421V67.1388V67.1355V67.1322V67.1289V67.1255V67.1222V67.1189V67.1156V67.1123V67.109V67.1057V67.1024V67.0991V67.0958V67.0924V67.0891V67.0858V67.0825V67.0792V67.0759V67.0726V67.0693V67.066V67.0627V67.0593V67.056V67.0527V67.0494V67.0461V67.0428V67.0395V67.0362V67.0329V67.0295V67.0262V67.0229V67.0196V67.0163V67.013V67.0097V67.0064V67.0031V66.9998V66.9965V66.9931V66.9898V66.9865V66.9832V66.9799V66.9766V66.9733V66.97V66.9667C154.808 60.751 153.806 55.6311 151.728 51.6725C149.663 47.7398 146.618 44.506 142.621 41.9715ZM127.55 30.3876V26.8682H128.516V32.9781C127.865 32.3028 127.55 31.455 127.55 30.3876ZM127.55 63.2463C128.202 63.9216 128.516 64.7694 128.516 65.8368V69.3562H127.55V63.2463Z" stroke="#362C27" stroke-width="2"/>
<path d="M97.0446 26.8682H98.0446V25.8682V3.69481V2.69481H97.0446H60.1831H59.1831V3.69481V92.5296V93.5296H60.1831H97.0446H98.0446V92.5296V70.3562V69.3562H97.0446H85.0513V60.1989H97.0446H98.0446V59.1989V37.0255V36.0255H97.0446H85.0513V26.8682H97.0446Z" stroke="#362C27" stroke-width="2"/>
<path d="M30.4625 2.69499L30.4529 2.69481H30.4433H2.62061H1.62061V3.69481V92.5296V93.5296H2.62061H29.4547H29.5959H30.4433H30.4529L30.4625 93.5295C35.4264 93.434 39.4822 92.7189 42.5713 91.3251C45.8285 89.8987 48.3813 87.3156 50.2531 83.6746C52.2104 80.0498 53.505 75.4516 54.1734 69.9195C54.9347 64.3953 55.3115 57.1443 55.3115 48.1828C55.3115 39.1278 54.9348 31.8295 54.1734 26.3049C53.505 20.7728 52.2104 16.1747 50.2531 12.5499C48.3814 8.90906 45.8287 6.32604 42.5718 4.89951C39.4826 3.50565 35.4266 2.79046 30.4625 2.69499ZM27.4888 26.8682H28.4547V69.3562H27.4888V26.8682Z" stroke="#362C27" stroke-width="2"/>
</svg>
