<svg width="282" height="175" viewBox="0 0 282 175" fill="none" xmlns="http://www.w3.org/2000/svg">
<path d="M251.435 152.476V111.383H248.695V152.476H251.435ZM226.649 111.383C226.649 96.6855 234.432 89.3367 250 89.3367C265.654 89.3367 273.481 96.6855 273.481 111.383V152.476C273.481 167.173 265.654 174.522 250 174.522C234.432 174.522 226.649 167.173 226.649 152.476V111.383Z" fill="#FEB237"/>
<path d="M222.849 172.957H200.803V90.9021H222.849V172.957Z" fill="#FEB237"/>
<path d="M174.631 152.476V111.383H171.891V152.476H174.631ZM175.544 90.9021C180.066 90.9891 183.676 91.6413 186.372 92.8589C189.155 94.0764 191.372 96.2941 193.025 99.5119C194.764 102.73 195.938 106.861 196.547 111.905C197.243 116.949 197.59 123.646 197.59 131.995C197.59 140.257 197.243 146.91 196.547 151.954C195.938 156.998 194.764 161.129 193.025 164.347C191.372 167.565 189.155 169.782 186.372 171C183.676 172.217 180.066 172.87 175.544 172.957H174.761H174.631H149.845V90.9021H175.544Z" fill="#FEB237"/>
<path d="M123.664 90.9021H145.71V152.476C145.71 167.173 137.883 174.522 122.229 174.522C106.662 174.522 98.8779 167.173 98.8779 152.476V90.9021H120.924V152.476H123.664V90.9021Z" fill="#FEB237"/>
<path d="M97.4684 90.9021V111.383H88.4672V172.957H66.4208V111.383H57.55V90.9021H97.4684Z" fill="#FEB237"/>
<path d="M46.0794 127.037C49.6451 129.299 52.3411 132.168 54.1674 135.647C55.9938 139.126 56.9069 143.692 56.9069 149.345C56.9069 149.866 56.9069 150.388 56.9069 150.91C56.733 158.476 54.8197 164.303 51.167 168.391C47.5144 172.478 41.5571 174.522 33.2951 174.522C17.5538 174.522 9.68323 167.173 9.68323 152.476V144.518H31.7297V152.476H34.4691V148.301C34.4691 146.649 33.7734 145.388 32.3819 144.518L20.1194 136.821C17.8582 135.343 15.9884 133.69 14.51 131.864C13.0315 129.951 11.8574 127.559 10.9877 124.689C10.1181 121.732 9.68323 118.341 9.68323 114.514C9.68323 113.905 9.68323 113.34 9.68323 112.818C9.94413 105.252 11.8574 99.4684 15.4231 95.4679C19.0758 91.3804 24.9896 89.3367 33.1646 89.3367C48.7319 89.3367 56.5156 96.6855 56.5156 111.383V119.341H34.4691V111.383H31.7297V115.558C31.7297 117.21 32.4254 118.471 33.8169 119.341L46.0794 127.037Z" fill="#FEB237"/>
<path d="M257.766 2.56543H256.653L256.772 3.67237L261.212 44.9541L254.448 3.40475L254.311 2.56543H253.461H229.458H228.458V3.56543V85.6199V86.6199H229.458H251.504H252.621L252.498 85.5101L247.729 42.3375L254.168 85.7665L254.294 86.6199H255.157H279.812H280.812V85.6199V3.56543V2.56543H279.812H257.766Z" stroke="#FEB237" stroke-width="2"/>
<path d="M223.106 33.004H224.106V32.004V24.0464C224.106 16.5268 222.101 10.7077 217.92 6.78257C213.751 2.8686 207.591 1 199.625 1C191.701 1 185.572 2.86924 181.425 6.78448C177.267 10.7099 175.274 16.5283 175.274 24.0464V65.1389C175.274 72.5917 176.735 78.3658 179.825 82.2921C182.951 86.2641 187.614 88.1853 193.624 88.1853C197.214 88.1853 200.145 87.4706 202.292 85.913C204.333 84.4896 205.842 82.3956 206.854 79.7059H207.887V85.6199V86.6199H208.887H223.106H224.106V85.6199V36.9612V35.9612H223.106H199.32V25.0464H200.06V32.004V33.004H201.06H223.106ZM199.32 64.1389V53.2241H200.06V64.1389H199.32Z" stroke="#FEB237" stroke-width="2"/>
<path d="M169.158 86.6199H170.158V85.6199V3.56543V2.56543H169.158H147.111H146.111V3.56543V85.6199V86.6199H147.111H169.158Z" stroke="#FEB237" stroke-width="2"/>
<path d="M131.356 38.8562L131.352 38.8537L122.032 33.004H141.257H142.257V32.004V24.0464C142.257 16.5283 140.263 10.7099 136.105 6.78448C131.959 2.86924 125.83 1 117.906 1C109.587 1 103.338 3.07879 99.4186 7.46492L99.4177 7.46588C95.6434 11.7005 93.6906 17.7422 93.4249 25.4469L93.4243 25.4642V25.4814V25.4845V25.4875V25.4906V25.4936V25.4967V25.4998V25.5028V25.5059V25.509V25.512V25.5151V25.5182V25.5212V25.5243V25.5274V25.5304V25.5335V25.5366V25.5397V25.5427V25.5458V25.5489V25.552V25.5551V25.5581V25.5612V25.5643V25.5674V25.5705V25.5736V25.5767V25.5797V25.5828V25.5859V25.589V25.5921V25.5952V25.5983V25.6014V25.6045V25.6076V25.6107V25.6138V25.6169V25.62V25.6231V25.6262V25.6293V25.6324V25.6355V25.6386V25.6417V25.6448V25.6479V25.6511V25.6542V25.6573V25.6604V25.6635V25.6666V25.6698V25.6729V25.676V25.6791V25.6822V25.6854V25.6885V25.6916V25.6947V25.6979V25.701V25.7041V25.7072V25.7104V25.7135V25.7166V25.7198V25.7229V25.726V25.7292V25.7323V25.7355V25.7386V25.7417V25.7449V25.748V25.7512V25.7543V25.7575V25.7606V25.7637V25.7669V25.77V25.7732V25.7763V25.7795V25.7827V25.7858V25.789V25.7921V25.7953V25.7984V25.8016V25.8048V25.8079V25.8111V25.8142V25.8174V25.8206V25.8237V25.8269V25.8301V25.8332V25.8364V25.8396V25.8428V25.8459V25.8491V25.8523V25.8555V25.8586V25.8618V25.865V25.8682V25.8714V25.8745V25.8777V25.8809V25.8841V25.8873V25.8905V25.8937V25.8968V25.9V25.9032V25.9064V25.9096V25.9128V25.916V25.9192V25.9224V25.9256V25.9288V25.932V25.9352V25.9384V25.9416V25.9448V25.948V25.9512V25.9544V25.9576V25.9608V25.964V25.9673V25.9705V25.9737V25.9769V25.9801V25.9833V25.9865V25.9898V25.993V25.9962V25.9994V26.0026V26.0059V26.0091V26.0123V26.0155V26.0188V26.022V26.0252V26.0285V26.0317V26.0349V26.0382V26.0414V26.0446V26.0479V26.0511V26.0543V26.0576V26.0608V26.0641V26.0673V26.0705V26.0738V26.077V26.0803V26.0835V26.0868V26.09V26.0933V26.0965V26.0998V26.103V26.1063V26.1095V26.1128V26.1161V26.1193V26.1226V26.1258V26.1291V26.1324V26.1356V26.1389V26.1421V26.1454V26.1487V26.1519V26.1552V26.1585V26.1618V26.165V26.1683V26.1716V26.1749V26.1781V26.1814V26.1847V26.188V26.1912V26.1945V26.1978V26.2011V26.2044V26.2077V26.2109V26.2142V26.2175V26.2208V26.2241V26.2274V26.2307V26.234V26.2373V26.2406V26.2439V26.2472V26.2505V26.2537V26.257V26.2603V26.2637V26.267V26.2703V26.2736V26.2769V26.2802V26.2835V26.2868V26.2901V26.2934V26.2967V26.3V26.3034V26.3067V26.31V26.3133V26.3166V26.3199V26.3233V26.3266V26.3299V26.3332V26.3365V26.3399V26.3432V26.3465V26.3498V26.3532V26.3565V26.3598V26.3632V26.3665V26.3698V26.3732V26.3765V26.3798V26.3832V26.3865V26.3899V26.3932V26.3965V26.3999V26.4032V26.4066V26.4099V26.4133V26.4166V26.42V26.4233V26.4267V26.43V26.4334V26.4367V26.4401V26.4434V26.4468V26.4501V26.4535V26.4569V26.4602V26.4636V26.4669V26.4703V26.4737V26.477V26.4804V26.4838V26.4871V26.4905V26.4939V26.4973V26.5006V26.504V26.5074V26.5107V26.5141V26.5175V26.5209V26.5243V26.5276V26.531V26.5344V26.5378V26.5412V26.5446V26.5479V26.5513V26.5547V26.5581V26.5615V26.5649V26.5683V26.5717V26.5751V26.5785V26.5819V26.5853V26.5887V26.5921V26.5955V26.5989V26.6023V26.6057V26.6091V26.6125V26.6159V26.6193V26.6227V26.6261V26.6295V26.6329V26.6363V26.6398V26.6432V26.6466V26.65V26.6534V26.6568V26.6603V26.6637V26.6671V26.6705V26.6739V26.6774V26.6808V26.6842V26.6876V26.6911V26.6945V26.6979V26.7014V26.7048V26.7082V26.7117V26.7151V26.7185V26.722V26.7254V26.7288V26.7323V26.7357V26.7392V26.7426V26.7461V26.7495V26.753V26.7564V26.7598V26.7633V26.7667V26.7702V26.7736V26.7771V26.7806V26.784V26.7875V26.7909V26.7944V26.7978V26.8013V26.8048V26.8082V26.8117V26.8152V26.8186V26.8221V26.8255V26.829V26.8325V26.836V26.8394V26.8429V26.8464V26.8498V26.8533V26.8568V26.8603V26.8638V26.8672V26.8707V26.8742V26.8777V26.8812V26.8846V26.8881V26.8916V26.8951V26.8986V26.9021V26.9056V26.9091V26.9125V26.916V26.9195V26.923V26.9265V26.93V26.9335V26.937V26.9405V26.944V26.9475V26.951V26.9545V26.958V26.9615V26.965V26.9686V26.9721V26.9756V26.9791V26.9826V26.9861V26.9896V26.9931V26.9967V27.0002V27.0037V27.0072V27.0107V27.0142V27.0178V27.0213V27.0248V27.0283V27.0319V27.0354V27.0389V27.0424V27.046V27.0495V27.053V27.0566V27.0601V27.0636V27.0672V27.0707V27.0743V27.0778V27.0813V27.0849V27.0884V27.092V27.0955V27.099V27.1026V27.1061V27.1097V27.1132V27.1168V27.1203V27.1239V27.1274V27.131V27.1345V27.1381V27.1417V27.1452V27.1488V27.1523V27.1559V27.1595V27.163V27.1666V27.1701V27.1737V27.1773C93.4243 31.0774 93.8673 34.5672 94.7695 37.6347L94.7694 37.6347L94.7718 37.6426C95.6686 40.6019 96.8915 43.1094 98.4598 45.1389L98.4667 45.1478L98.4738 45.1566C100.027 47.0748 101.978 48.7946 104.313 50.3216L104.321 50.3266L104.329 50.3316L113.649 56.1813H94.4243H93.4243V57.1813V65.1389C93.4243 72.6601 95.4414 78.4798 99.6448 82.4046C103.835 86.3173 110.028 88.1853 118.036 88.1853C126.438 88.1853 132.733 86.1085 136.654 81.7204C140.516 77.3981 142.47 71.3102 142.648 63.5964L142.648 63.5849V63.5734V63.5704V63.5673V63.5643V63.5612V63.5582V63.5551V63.552V63.549V63.5459V63.5429V63.5398V63.5368V63.5337V63.5306V63.5276V63.5245V63.5215V63.5184V63.5153V63.5123V63.5092V63.5062V63.5031V63.5001V63.497V63.4939V63.4909V63.4878V63.4848V63.4817V63.4787V63.4756V63.4725V63.4695V63.4664V63.4634V63.4603V63.4573V63.4542V63.4511V63.4481V63.445V63.442V63.4389V63.4359V63.4328V63.4297V63.4267V63.4236V63.4206V63.4175V63.4145V63.4114V63.4083V63.4053V63.4022V63.3992V63.3961V63.393V63.39V63.3869V63.3839V63.3808V63.3778V63.3747V63.3716V63.3686V63.3655V63.3625V63.3594V63.3564V63.3533V63.3502V63.3472V63.3441V63.3411V63.338V63.335V63.3319V63.3288V63.3258V63.3227V63.3197V63.3166V63.3136V63.3105V63.3074V63.3044V63.3013V63.2983V63.2952V63.2922V63.2891V63.286V63.283V63.2799V63.2769V63.2738V63.2707V63.2677V63.2646V63.2616V63.2585V63.2555V63.2524V63.2493V63.2463V63.2432V63.2402V63.2371V63.2341V63.231V63.2279V63.2249V63.2218V63.2188V63.2157V63.2127V63.2096V63.2065V63.2035V63.2004V63.1974V63.1943V63.1913V63.1882V63.1851V63.1821V63.179V63.176V63.1729V63.1699V63.1668V63.1637V63.1607V63.1576V63.1546V63.1515V63.1485V63.1454V63.1423V63.1393V63.1362V63.1332V63.1301V63.127V63.124V63.1209V63.1179V63.1148V63.1118V63.1087V63.1056V63.1026V63.0995V63.0965V63.0934V63.0904V63.0873V63.0842V63.0812V63.0781V63.0751V63.072V63.069V63.0659V63.0628V63.0598V63.0567V63.0537V63.0506V63.0476V63.0445V63.0414V63.0384V63.0353V63.0323V63.0292V63.0262V63.0231V63.02V63.017V63.0139V63.0109V63.0078V63.0047V63.0017V62.9986V62.9956V62.9925V62.9895V62.9864V62.9833V62.9803V62.9772V62.9742V62.9711V62.9681V62.965V62.9619V62.9589V62.9558V62.9528V62.9497V62.9467V62.9436V62.9405V62.9375V62.9344V62.9314V62.9283V62.9253V62.9222V62.9191V62.9161V62.913V62.91V62.9069V62.9039V62.9008V62.8977V62.8947V62.8916V62.8886V62.8855V62.8825V62.8794V62.8763V62.8733V62.8702V62.8672V62.8641V62.861V62.858V62.8549V62.8519V62.8488V62.8458V62.8427V62.8396V62.8366V62.8335V62.8305V62.8274V62.8244V62.8213V62.8182V62.8152V62.8121V62.8091V62.806V62.803V62.7999V62.7968V62.7938V62.7907V62.7877V62.7846V62.7816V62.7785V62.7754V62.7724V62.7693V62.7663V62.7632V62.7602V62.7571V62.754V62.751V62.7479V62.7449V62.7418V62.7388V62.7357V62.7326V62.7296V62.7265V62.7235V62.7204V62.7173V62.7143V62.7112V62.7082V62.7051V62.7021V62.699V62.6959V62.6929V62.6898V62.6868V62.6837V62.6807V62.6776V62.6745V62.6715V62.6684V62.6654V62.6623V62.6593V62.6562V62.6531V62.6501V62.647V62.644V62.6409V62.6379V62.6348V62.6317V62.6287V62.6256V62.6226V62.6195V62.6165V62.6134V62.6103V62.6073V62.6042V62.6012V62.5981V62.595V62.592V62.5889V62.5859V62.5828V62.5798V62.5767V62.5736V62.5706V62.5675V62.5645V62.5614V62.5584V62.5553V62.5522V62.5492V62.5461V62.5431V62.54V62.537V62.5339V62.5308V62.5278V62.5247V62.5217V62.5186V62.5156V62.5125V62.5094V62.5064V62.5033V62.5003V62.4972V62.4942V62.4911V62.488V62.485V62.4819V62.4789V62.4758V62.4727V62.4697V62.4666V62.4636V62.4605V62.4575V62.4544V62.4513V62.4483V62.4452V62.4422V62.4391V62.4361V62.433V62.4299V62.4269V62.4238V62.4208V62.4177V62.4147V62.4116V62.4085V62.4055V62.4024V62.3994V62.3963V62.3933V62.3902V62.3871V62.3841V62.381V62.378V62.3749V62.3719V62.3688V62.3657V62.3627V62.3596V62.3566V62.3535V62.3504V62.3474V62.3443V62.3413V62.3382V62.3352V62.3321V62.329V62.326V62.3229V62.3199V62.3168V62.3138V62.3107V62.3076V62.3046V62.3015V62.2985V62.2954V62.2924V62.2893V62.2862V62.2832V62.2801V62.2771V62.274V62.271V62.2679V62.2648V62.2618V62.2587V62.2557V62.2526V62.2496V62.2465V62.2434V62.2404V62.2373V62.2343V62.2312V62.2281V62.2251V62.222V62.219V62.2159V62.2129V62.2098V62.2067V62.2037V62.2006V62.1976V62.1945V62.1915V62.1884V62.1853V62.1823V62.1792V62.1762V62.1731V62.1701V62.167V62.1639V62.1609V62.1578V62.1548V62.1517V62.1487V62.1456V62.1425V62.1395V62.1364V62.1334V62.1303V62.1273V62.1242V62.1211V62.1181V62.115V62.112V62.1089V62.1059V62.1028V62.0997V62.0967V62.0936V62.0906V62.0875V62.0844V62.0814V62.0783V62.0753V62.0722V62.0692V62.0661V62.063V62.06V62.0569V62.0539V62.0508V62.0478V62.0447V62.0416V62.0386V62.0355V62.0325V62.0294V62.0264V62.0233V62.0202V62.0172V62.0141V62.0111V62.008C142.648 56.2595 141.721 51.5168 139.794 47.8457C137.88 44.2004 135.058 41.2039 131.356 38.8562ZM117.471 58.7692C117.97 59.3539 118.21 60.0733 118.21 60.9644V64.1389H117.471V58.7692ZM117.471 28.2209V25.0464H118.21V30.4161C117.711 29.8314 117.471 29.112 117.471 28.2209Z" stroke="#FEB237" stroke-width="2"/>
<path d="M89.217 25.0464H90.217V24.0464V3.56543V2.56543H89.217H55.1689H54.1689V3.56543V85.6199V86.6199H55.1689H89.217H90.217V85.6199V65.1389V64.1389H89.217H78.2154V55.8331H89.217H90.217V54.8331V34.3521V33.3521H89.217H78.2154V25.0464H89.217Z" stroke="#FEB237" stroke-width="2"/>
<path d="M27.7183 2.56561L27.7087 2.56543H27.6991H2H1V3.56543V85.6199V86.6199H2H26.7859H26.9164H27.6991H27.7087L27.7183 86.6197C32.3086 86.5314 36.0661 85.8701 38.9326 84.577C41.9597 83.2511 44.3292 80.8513 46.0645 77.4761C47.878 74.1173 49.0756 69.8605 49.6937 64.7453C50.3975 59.6379 50.7455 52.9367 50.7455 44.6579C50.7455 36.2927 50.3976 29.5478 49.6937 24.44C49.0756 19.3247 47.878 15.0679 46.0644 11.7091C44.3292 8.33411 41.9598 5.93436 38.9329 4.60844C36.0664 3.31519 32.3087 2.65389 27.7183 2.56561ZM25.0464 25.0464H25.7859V64.1389H25.0464V25.0464Z" stroke="#FEB237" stroke-width="2"/>
</svg>
