<svg width="87" height="59" viewBox="0 0 87 59" fill="none" xmlns="http://www.w3.org/2000/svg">
<g clip-path="url(#clip0_1625_4230)">
<path d="M23.5684 0.72394C23.0693 1.0859 22.9623 1.66504 22.9623 2.28038C22.9623 2.64235 23.0336 3.04051 23.1049 3.36627L25.5295 14.8767H25.6008L28.5246 3.69204C28.6316 3.22149 28.8455 2.75093 28.8455 2.28038C28.8455 1.70124 28.7029 1.23069 28.4533 0.760137H39.0074C38.2229 1.59265 37.5811 2.75093 37.1176 4.12639L29.7012 26.2062C29.5586 26.7129 29.416 27.1111 29.416 27.6178C29.416 28.0884 29.6656 28.4865 29.9508 28.7761H22.0709L19.3254 16.8675H19.2541L17.4 26.6767C17.3287 27.0749 17.293 27.4006 17.293 27.6902C17.293 28.016 17.4 28.4865 17.7209 28.7761H10.1619L1.78278 3.0767C1.46188 2.1356 0.962699 1.26689 0.213928 0.72394H10.982C10.5541 1.19449 10.4115 1.55646 10.4115 2.0994C10.4115 2.53376 10.5541 3.1129 10.6967 3.54725L13.3709 15.0577H13.4422L16.0094 2.93192C16.0807 2.56995 16.1164 2.17179 16.1164 1.84603C16.1164 1.33928 15.7598 1.01351 15.4746 0.687744H23.5684V0.72394Z" fill="#FFC436"/>
<path d="M51.0234 0.72394L60.2225 26.3147C60.6148 27.3644 61.1852 28.1246 61.827 28.7399H50.6311C50.8094 28.3055 50.9164 27.7626 50.9164 27.2558C50.9164 26.3871 50.5955 25.5546 50.3459 24.7221H42.7512C42.3234 25.446 42.1094 26.4595 42.1094 27.292C42.1094 27.7264 42.2164 28.3055 42.5373 28.5589V28.7399H31.2701C32.2684 27.7626 32.732 26.3509 33.3025 24.8307L40.9684 3.69204C41.1111 3.25768 41.3607 2.42517 41.3607 1.95462C41.3607 1.33928 40.9684 1.01351 40.5049 0.687744H51.0234V0.72394ZM48.3492 18.2792L46.5307 9.66443H46.3881L44.641 18.2792H48.3492Z" fill="#FFC436"/>
<path d="M62.6115 0.108582C63.2176 0.651526 64.0734 1.01349 65.1074 1.01349C66.7832 1.01349 68.6373 0.108582 71.775 0.108582C77.7295 0.108582 82.5787 3.54723 82.5787 9.99018C82.5787 12.1982 81.616 14.4785 80.1541 16.1436C83.2562 17.7724 85.6451 21.573 85.6451 26.1699C85.6451 27.0386 85.8947 28.0521 86.5365 28.7761H75.9824C76.6242 28.0521 76.8738 27.0386 76.8738 26.1699C76.8738 23.8896 74.3779 21.211 71.3828 20.5957V26.1699C71.3828 27.0386 71.6324 28.0521 72.2742 28.7761H61.7201C62.3619 28.0521 62.6115 27.0386 62.6115 26.1699V0.108582ZM71.3828 13.3202C72.809 13.3202 74.6631 12.8135 74.6631 10.7141C74.6631 8.61472 72.809 8.10797 71.3828 8.10797V13.3202Z" fill="#FFC436"/>
<path d="M17.0434 55.5976C17.0434 56.4663 17.293 57.4798 17.9348 58.2037H7.41638C8.05819 57.4798 8.30778 56.4663 8.30778 55.5976V32.7939C8.30778 31.9252 8.05819 30.9117 7.41638 30.1877H25.4225V38.5129C24.3885 37.97 23.0336 37.8976 21.8213 37.8976H17.0434V40.8657H19.8602C20.716 40.8657 21.643 40.6847 22.4275 40.3227V47.7792C21.643 47.4172 20.716 47.2362 19.8602 47.2362H17.0434V55.5976Z" fill="#FFC436"/>
<path d="M39.8988 30.1877L49.0979 55.7785C49.4902 56.8282 50.0606 57.5884 50.7024 58.2037H39.5422C39.7205 57.7693 39.8274 57.2264 39.8274 56.7196C39.8274 55.8509 39.5065 55.0184 39.257 54.1859H31.591C31.1631 54.9098 30.9492 55.9233 30.9492 56.7558C30.9492 57.1902 31.0561 57.7693 31.377 58.0227V58.2037H20.1455C21.1438 57.2264 21.6074 55.8147 22.1779 54.2945L29.8438 33.1558C29.9865 32.7215 30.2361 31.889 30.2361 31.4184C30.2361 30.8031 29.8438 30.4773 29.3803 30.1516H39.8988V30.1877ZM37.2246 47.743L35.4061 39.1282H35.2635L33.5164 47.743H37.2246Z" fill="#FFC436"/>
<path d="M66.3197 58.8552C65.6066 58.6018 64.8221 58.5294 64.0377 58.5294C63.1107 58.5294 62.3619 58.8552 61.2566 58.8552C53.3053 58.8552 47.2795 52.1227 47.2795 44.2319C47.2795 36.3411 53.341 29.6086 61.2566 29.6086C62.3975 29.6086 63.1107 29.9343 64.0377 29.9343C64.8221 29.9343 65.6422 29.862 66.3197 29.6086V40.7209C65.0361 39.3454 63.2533 38.4767 61.4348 38.5129C58.2258 38.5129 56.0152 41.2276 56.0152 44.3405C56.0152 47.4534 58.2258 50.0233 61.4348 50.0233C63.2533 50.0233 65.0361 49.1546 66.3197 47.5982V58.8552V58.8552Z" fill="#FFC436"/>
<path d="M84.9676 58.2037H67.8528C68.4946 57.4798 68.7442 56.4663 68.7442 55.5976V32.7939C68.7442 31.9252 68.4946 30.9117 67.8528 30.1877H84.9676V38.6577C83.7553 38.1147 82.1865 37.8976 80.7959 37.8976H77.1233V40.8657H79.0844C80.0828 40.8657 81.1168 40.7571 82.1151 40.3227V47.7792C81.1168 47.3448 80.0828 47.2362 79.0844 47.2362H77.1233V50.4939H80.7959C82.1865 50.4939 83.791 50.3129 84.9676 49.7338V58.2037Z" fill="#FFC436"/>
</g>
<defs>
<clipPath id="clip0_1625_4230">
<rect width="87" height="59" fill="white"/>
</clipPath>
</defs>
</svg>
