<svg width="94" height="101" viewBox="0 0 94 101" fill="none" xmlns="http://www.w3.org/2000/svg">
<g clip-path="url(#clip0_119_72)">
<path d="M36.6709 75.5694H31.0202C24.4018 75.5694 19.0142 70.8604 19.0142 65.0726C19.0142 62.1788 18.9578 56.5082 18.9015 50.5047C18.8451 44.731 18.7887 38.7603 18.7887 35.8805C18.7887 30.0927 24.1764 25.3837 30.7947 25.3837H36.7V6.62265H30.7947C13.8144 6.62265 0 19.746 0 35.8805C0 38.8494 0.0563661 44.867 0.112732 50.6829C0.169098 56.3816 0.220767 62.2726 0.220767 65.0726C0.220767 81.2071 14.0352 94.3305 31.0155 94.3305H36.7V75.5694H36.6709Z" fill="white"/>
<path d="M84.7559 50.2561C87.7668 45.1953 89.4014 39.431 89.4014 33.5212C89.4014 16.7395 76.5312 2.76255 59.673 0.0234365C58.541 -0.159483 57.517 0.731665 57.517 1.88078V21.8144C63.318 23.2918 67.5736 27.9774 67.5736 33.5212C67.5736 36.7716 66.1081 39.8343 63.4495 42.1513C61.0539 44.2385 59.6871 47.2637 59.7106 50.439C59.734 53.6143 61.1432 56.6207 63.5669 58.6751C66.3148 61.0014 67.832 64.1111 67.832 67.4318C67.832 73.0554 63.4495 77.8019 57.517 79.2043V99.1191C57.517 100.259 58.5316 101.155 59.6589 100.976C76.6486 98.3452 89.6598 84.3073 89.6598 67.4318C89.6598 61.3344 87.9312 55.4153 84.7559 50.2561Z" fill="white"/>
<path d="M59.6119 42.7892C57.3996 44.7169 56.1407 47.5123 56.1595 50.4437C56.1783 53.3751 57.4794 56.1518 59.72 58.0466C59.72 58.0466 59.7294 58.0466 59.7294 58.056C60.1521 58.4171 60.805 58.131 60.805 57.5729V43.3005C60.805 42.686 60.0864 42.3765 59.6213 42.7798C59.6213 42.7798 59.6119 42.7892 59.6072 42.7892H59.6119Z" fill="white"/>
<path d="M60.805 75.3021C60.805 74.5235 59.9126 74.0874 59.2925 74.5611C57.0238 76.3152 54.0411 77.3846 50.7812 77.3846H36.6756V95.6297C36.6756 96.6663 37.5164 97.5058 38.5545 97.5058H50.7812C54.2759 97.5058 57.6438 96.9852 60.805 96.0237V75.3068V75.3021Z" fill="white"/>
<path d="M36.6709 5.32345V23.5686H50.537C53.2989 23.5686 55.8636 24.3331 57.9632 25.637C59.2033 26.4062 60.8003 25.4822 60.8003 24.0282V5.01389C57.5686 4.00549 54.1209 3.45673 50.537 3.45673H38.5497C37.5117 3.45673 36.6709 4.29628 36.6709 5.33283V5.32345Z" fill="white"/>
<path d="M88.3915 17.6729V83.7915C88.3915 84.9687 89.998 85.3486 90.5053 84.284C92.7458 79.6078 94 74.4203 94 68.9562C94 64.2519 93.0605 59.646 91.285 55.3544C89.904 52.015 89.904 48.2675 91.2286 44.9045C92.8539 40.7771 93.7181 36.373 93.7181 31.8938C93.7181 26.6829 92.5767 21.7206 90.5288 17.2179C90.0309 16.1251 88.3915 16.4675 88.3915 17.6729Z" fill="white"/>
</g>
<defs>
<clipPath id="clip0_119_72">
<rect width="94" height="101" fill="white"/>
</clipPath>
</defs>
</svg>
