<svg width="376" height="48" viewBox="0 0 376 48" fill="none" xmlns="http://www.w3.org/2000/svg">
<g clip-path="url(#clip0_1206_437)">
<path d="M373.693 24.527H369.594C368.715 24.527 368.071 24.8198 367.603 25.581L356.067 43.1477C355.599 43.9089 354.955 44.2017 354.076 44.2017H339.847C338.911 44.2017 338.149 43.4405 338.149 42.5036V24.8783C338.149 24.527 337.739 24.4099 337.564 24.7027L325.384 43.1477C324.916 43.9089 324.272 44.2017 323.393 44.2017H307.642C306.705 44.2017 305.944 43.4405 305.944 42.5036V5.49641C305.944 4.55952 306.705 3.79829 307.642 3.79829H318.24C319.177 3.79829 319.938 4.55952 319.938 5.49641V21.365C319.938 21.7163 320.407 21.8334 320.583 21.5407L331.005 5.67208C331.884 4.38385 332.938 3.79829 334.519 3.79829H346.816C347.752 3.79829 348.514 4.55952 348.514 5.49641V21.365C348.514 21.7163 348.982 21.8334 349.158 21.5407L359.581 5.67208C360.459 4.38385 361.513 3.79829 363.094 3.79829H373.693C374.629 3.79829 375.391 4.55952 375.391 5.49641V22.8289C375.391 23.7658 374.629 24.527 373.693 24.527ZM280.179 30.7339C276.842 30.7339 274.499 28.2746 274.499 24.8198C274.499 20.7209 277.778 17.2075 281.643 17.2075C284.981 17.2075 287.323 19.6669 287.323 23.1217C287.323 27.2206 284.044 30.7339 280.179 30.7339ZM278.891 44.9629C292.066 44.9629 303.133 34.4815 303.133 22.0091C303.133 10.9421 294.408 2.97852 282.931 2.97852C269.756 2.97852 258.689 13.46 258.689 25.9323C258.689 36.9994 267.414 44.9629 278.891 44.9629ZM222.209 42.5036V24.8783C222.209 24.527 221.799 24.4099 221.624 24.7027L209.444 43.1477C208.976 43.9089 208.331 44.2017 207.453 44.2017H191.702C190.765 44.2017 190.003 43.4405 190.003 42.5036V5.49641C190.003 4.55952 190.765 3.79829 191.702 3.79829H202.3C203.237 3.79829 203.998 4.55952 203.998 5.49641V21.365C203.998 21.7163 204.467 21.8334 204.642 21.5407L215.065 5.67208C215.944 4.38385 216.998 3.79829 218.579 3.79829H230.875C231.812 3.79829 232.573 4.55952 232.573 5.49641V21.365C232.573 21.7163 233.042 21.8334 233.218 21.5407L243.64 5.67208C244.519 4.38385 245.573 3.79829 247.154 3.79829H258.455C259.392 3.79829 260.153 4.55952 260.153 5.49641V11.5862C260.153 12.3474 259.977 12.9915 259.568 13.6356L240.127 43.1477C239.659 43.9089 239.015 44.2017 238.136 44.2017H223.907C222.97 44.2017 222.209 43.4405 222.209 42.5036ZM184.558 3.79829H181.747C178.234 3.79829 175.833 5.67208 173.022 8.48275L169.802 11.6448C169.685 11.7619 169.509 11.7619 169.509 11.5862V5.49641C169.509 4.55952 168.748 3.79829 167.811 3.79829H153.465C152.528 3.79829 151.767 4.55952 151.767 5.49641V42.5036C151.767 43.4405 152.528 44.2017 153.465 44.2017H167.811C168.748 44.2017 169.509 43.4405 169.509 42.5036V26.2251C169.509 25.2882 170.27 24.527 171.207 24.527H184.558C185.495 24.527 186.256 23.7658 186.256 22.8289V5.49641C186.256 4.55952 185.495 3.79829 184.558 3.79829ZM124.011 30.851C120.674 30.851 117.98 27.9232 117.98 24C117.98 20.0768 120.674 17.149 124.011 17.149C127.349 17.149 130.042 20.0768 130.042 24C130.042 27.9232 127.349 30.851 124.011 30.851ZM118.273 45.0215C123.718 45.0215 127.759 42.6792 129.691 37.3507C129.75 37.1165 130.042 37.175 130.042 37.4092V42.5036C130.042 43.4405 130.804 44.2017 131.741 44.2017H146.204C147.141 44.2017 147.902 43.4405 147.902 42.5036V5.49641C147.902 4.55952 147.141 3.79829 146.204 3.79829H131.741C130.804 3.79829 130.042 4.55952 130.042 5.49641V10.5907C130.042 10.825 129.75 10.8835 129.691 10.6493C127.759 5.32074 123.718 2.97852 118.273 2.97852C107.967 2.97852 100.94 11.4691 100.94 24C100.94 36.5309 107.967 45.0215 118.273 45.0215ZM87.4725 17.5589C90.6931 17.5589 93.5623 18.3201 96.4901 20.0768C97.427 20.6623 98.5981 20.0182 98.5981 18.9057V8.07286C98.5981 7.01886 98.0126 6.08196 97.0757 5.61352C93.4452 3.79829 89.4049 2.97852 84.1934 2.97852C71.077 2.97852 60.3027 11.0592 60.3027 24C60.3027 36.9408 71.077 45.0215 84.1934 45.0215C89.4049 45.0215 93.4452 44.2017 97.0757 42.3865C98.0126 41.918 98.5981 40.9811 98.5981 39.9271V29.0943C98.5981 27.9818 97.427 27.3377 96.4901 27.9232C93.5623 29.6799 90.6931 30.4411 87.4725 30.4411C82.4368 30.4411 78.8649 27.9818 78.8649 24C78.8649 20.0182 82.4368 17.5589 87.4725 17.5589ZM28.7983 26.8373C28.7983 27.3629 29.0364 27.8474 29.4388 28.1759L42.8985 39.0734C43.2024 39.3115 43.6458 39.2623 43.8758 38.9502C45.4278 36.9136 46.6679 34.6224 47.5302 32.1588C47.6533 31.8056 47.4645 31.4115 47.1113 31.2883L41.1329 29.227C40.9769 29.1695 40.9769 28.956 41.1329 28.8985L47.6369 26.6895C47.8915 26.6073 48.0804 26.3774 48.0968 26.1064C48.1625 25.4166 48.1953 24.7103 48.1953 23.9959C48.1953 23.2896 48.1625 22.5834 48.0968 21.8854C48.0804 21.6226 47.8915 21.3926 47.6369 21.3023L41.1329 19.1014C40.9769 19.044 40.9769 18.8304 41.1329 18.773L47.1113 16.7117C47.4645 16.5885 47.6533 16.1944 47.5302 15.8412C46.6679 13.3694 45.4278 11.0864 43.8758 9.04978C43.6458 8.73771 43.2024 8.68844 42.8985 8.92659L29.4388 19.8241C29.0364 20.1444 28.7983 20.6371 28.7983 21.1545C28.7983 21.8114 29.1678 22.4027 29.7509 22.6984L32.0585 23.8481C32.1899 23.9055 32.1899 24.0862 32.0585 24.1519L29.7509 25.3016C29.1678 25.589 28.7983 26.1885 28.7983 26.8373ZM9.12195 42.7032C8.87558 43.007 8.93307 43.4505 9.23692 43.6804C11.2817 45.2325 13.5647 46.4725 16.0284 47.3348C16.3897 47.4662 16.7839 47.2773 16.9071 46.916L18.9683 40.9375C19.0258 40.7815 19.2393 40.7897 19.2886 40.9375L21.4977 47.4416C21.588 47.6962 21.8097 47.885 22.0807 47.9097C22.7787 47.9672 23.485 48 24.1912 48C24.9057 48 25.6037 47.9672 26.3018 47.9097C26.5728 47.885 26.8027 47.6962 26.8848 47.4416L29.0939 40.9375C29.1432 40.7897 29.3649 40.7815 29.4142 40.9375L31.4754 46.916C31.5986 47.2773 31.9928 47.4662 32.3541 47.3348C34.8178 46.4725 37.109 45.2325 39.1456 43.6804C39.4494 43.4505 39.5069 43.007 39.2605 42.7032L28.3712 29.2435C28.0427 28.8411 27.55 28.6029 27.0326 28.6029C26.3839 28.6029 25.7844 28.9725 25.497 29.5555L24.3473 31.8713C24.2816 31.9945 24.1009 31.9945 24.0434 31.8713L22.8937 29.5555C22.5981 28.9725 22.0068 28.6029 21.3498 28.6029C20.8325 28.6029 20.3397 28.8411 20.0113 29.2435L9.12195 42.7032ZM0.195343 23.9959C0.195343 24.7103 0.228193 25.4084 0.285677 26.1064C0.310311 26.3774 0.490979 26.6074 0.753771 26.6895L7.25779 28.8985C7.40561 28.9478 7.40561 29.1695 7.25779 29.2188L1.27935 31.2801C0.918013 31.4033 0.729136 31.7974 0.85232 32.1588C1.71459 34.6224 2.96284 36.9136 4.51493 38.9502C4.74488 39.2541 5.18833 39.3116 5.48397 39.0652L18.9519 28.1759C19.3543 27.8474 19.5924 27.3547 19.5924 26.8373C19.5924 26.1885 19.2229 25.589 18.6398 25.3016L16.324 24.1519C16.2008 24.0862 16.2008 23.9056 16.324 23.8399L18.6398 22.6902C19.2229 22.4027 19.5924 21.8115 19.5924 21.1545C19.5924 20.6371 19.3543 20.1444 18.9519 19.8159L5.48397 8.9266C5.18833 8.68023 4.74487 8.73772 4.51493 9.04157C2.96284 11.0864 1.71459 13.3694 0.85232 15.833C0.729136 16.1944 0.918019 16.5885 1.27935 16.7117L7.25779 18.773C7.40561 18.8304 7.40561 19.044 7.25779 19.0932L0.753771 21.3023C0.490985 21.3926 0.310317 21.6144 0.285677 21.8854C0.228193 22.5834 0.195343 23.2896 0.195343 23.9959ZM31.4836 1.084L29.4224 7.06244C29.3649 7.21026 29.1514 7.21026 29.1021 7.05423L26.893 0.550212C26.8027 0.295636 26.581 0.114968 26.31 0.0903338C25.6119 0.0328497 24.9057 0 24.1994 0C23.485 0 22.787 0.0328497 22.0889 0.0903338C21.8179 0.114968 21.588 0.295636 21.5059 0.550212L19.2968 7.05423C19.2475 7.21027 19.0258 7.21027 18.9765 7.06244L16.9153 1.084C16.7921 0.722665 16.3979 0.533787 16.0366 0.656971C13.5729 1.51924 11.2817 2.76749 9.24512 4.31138C8.94127 4.54953 8.88379 4.99298 9.13016 5.28862L20.0195 18.7565C20.3479 19.1589 20.8407 19.3889 21.358 19.3889C22.0068 19.3889 22.6063 19.0275 22.8937 18.4363L24.0434 16.1287C24.1091 16.0055 24.2898 16.0055 24.3473 16.1287L25.497 18.4363C25.7926 19.0276 26.3839 19.3889 27.0408 19.3889C27.5582 19.3889 28.0509 19.1589 28.3794 18.7565L39.2687 5.28862C39.5151 4.99299 39.4576 4.54953 39.1538 4.31138C37.109 2.76749 34.826 1.51924 32.3623 0.656971C32.001 0.533787 31.6068 0.72267 31.4836 1.084Z" fill="black"/>
</g>
<defs>
<clipPath id="clip0_1206_437">
<rect width="375.195" height="48" fill="white" transform="translate(0.195343)"/>
</clipPath>
</defs>
</svg>
