<svg width="376" height="48" viewBox="0 0 376 48" fill="none" xmlns="http://www.w3.org/2000/svg">
<g clip-path="url(#clip0_2173_116753)">
<path d="M373.497 24.527H369.398C368.52 24.527 367.876 24.8198 367.407 25.581L355.872 43.1477C355.404 43.9089 354.759 44.2017 353.881 44.2017H339.652C338.715 44.2017 337.954 43.4405 337.954 42.5036V24.8783C337.954 24.527 337.544 24.4099 337.368 24.7027L325.189 43.1477C324.72 43.9089 324.076 44.2017 323.198 44.2017H307.446C306.51 44.2017 305.748 43.4405 305.748 42.5036V5.49641C305.748 4.55952 306.51 3.79829 307.446 3.79829H318.045C318.982 3.79829 319.743 4.55952 319.743 5.49641V21.365C319.743 21.7163 320.212 21.8334 320.387 21.5407L330.81 5.67208C331.688 4.38385 332.742 3.79829 334.323 3.79829H346.62C347.557 3.79829 348.318 4.55952 348.318 5.49641V21.365C348.318 21.7163 348.787 21.8334 348.962 21.5407L359.385 5.67208C360.264 4.38385 361.318 3.79829 362.899 3.79829H373.497C374.434 3.79829 375.195 4.55952 375.195 5.49641V22.8289C375.195 23.7658 374.434 24.527 373.497 24.527ZM279.984 30.7339C276.646 30.7339 274.304 28.2746 274.304 24.8198C274.304 20.7209 277.583 17.2075 281.448 17.2075C284.785 17.2075 287.128 19.6669 287.128 23.1217C287.128 27.2206 283.849 30.7339 279.984 30.7339ZM278.696 44.9629C291.871 44.9629 302.938 34.4815 302.938 22.0091C302.938 10.9421 294.213 2.97852 282.736 2.97852C269.561 2.97852 258.494 13.46 258.494 25.9323C258.494 36.9994 267.219 44.9629 278.696 44.9629ZM222.014 42.5036V24.8783C222.014 24.527 221.604 24.4099 221.428 24.7027L209.249 43.1477C208.78 43.9089 208.136 44.2017 207.258 44.2017H191.506C190.569 44.2017 189.808 43.4405 189.808 42.5036V5.49641C189.808 4.55952 190.569 3.79829 191.506 3.79829H202.105C203.042 3.79829 203.803 4.55952 203.803 5.49641V21.365C203.803 21.7163 204.271 21.8334 204.447 21.5407L214.87 5.67208C215.748 4.38385 216.802 3.79829 218.383 3.79829H230.68C231.617 3.79829 232.378 4.55952 232.378 5.49641V21.365C232.378 21.7163 232.847 21.8334 233.022 21.5407L243.445 5.67208C244.323 4.38385 245.377 3.79829 246.958 3.79829H258.26C259.197 3.79829 259.958 4.55952 259.958 5.49641V11.5862C259.958 12.3474 259.782 12.9915 259.372 13.6356L239.932 43.1477C239.463 43.9089 238.819 44.2017 237.941 44.2017H223.712C222.775 44.2017 222.014 43.4405 222.014 42.5036ZM184.362 3.79829H181.552C178.038 3.79829 175.638 5.67208 172.827 8.48275L169.606 11.6448C169.489 11.7619 169.314 11.7619 169.314 11.5862V5.49641C169.314 4.55952 168.552 3.79829 167.616 3.79829H153.269C152.333 3.79829 151.571 4.55952 151.571 5.49641V42.5036C151.571 43.4405 152.333 44.2017 153.269 44.2017H167.616C168.552 44.2017 169.314 43.4405 169.314 42.5036V26.2251C169.314 25.2882 170.075 24.527 171.012 24.527H184.362C185.299 24.527 186.061 23.7658 186.061 22.8289V5.49641C186.061 4.55952 185.299 3.79829 184.362 3.79829ZM123.816 30.851C120.478 30.851 117.785 27.9232 117.785 24C117.785 20.0768 120.478 17.149 123.816 17.149C127.154 17.149 129.847 20.0768 129.847 24C129.847 27.9232 127.154 30.851 123.816 30.851ZM118.077 45.0215C123.523 45.0215 127.563 42.6792 129.496 37.3507C129.554 37.1165 129.847 37.175 129.847 37.4092V42.5036C129.847 43.4405 130.608 44.2017 131.545 44.2017H146.009C146.945 44.2017 147.707 43.4405 147.707 42.5036V5.49641C147.707 4.55952 146.945 3.79829 146.009 3.79829H131.545C130.608 3.79829 129.847 4.55952 129.847 5.49641V10.5907C129.847 10.825 129.554 10.8835 129.496 10.6493C127.563 5.32074 123.523 2.97852 118.077 2.97852C107.772 2.97852 100.745 11.4691 100.745 24C100.745 36.5309 107.772 45.0215 118.077 45.0215ZM87.2772 17.5589C90.4978 17.5589 93.367 18.3201 96.2948 20.0768C97.2317 20.6623 98.4028 20.0182 98.4028 18.9057V8.07286C98.4028 7.01886 97.8172 6.08197 96.8803 5.61352C93.2499 3.79829 89.2095 2.97852 83.9981 2.97852C70.8816 2.97852 60.1074 11.0592 60.1074 24C60.1074 36.9408 70.8816 45.0215 83.9981 45.0215C89.2095 45.0215 93.2499 44.2017 96.8803 42.3865C97.8172 41.918 98.4028 40.9811 98.4028 39.9271V29.0943C98.4028 27.9818 97.2317 27.3377 96.2948 27.9232C93.367 29.6799 90.4978 30.4411 87.2772 30.4411C82.2414 30.4411 78.6695 27.9818 78.6695 24C78.6695 20.0182 82.2414 17.5589 87.2772 17.5589ZM28.6029 26.8373C28.6029 27.3629 28.8411 27.8474 29.2435 28.1759L42.7032 39.0734C43.007 39.3115 43.4505 39.2623 43.6804 38.9502C45.2325 36.9136 46.4725 34.6224 47.3348 32.1588C47.458 31.8056 47.2691 31.4115 46.916 31.2883L40.9375 29.227C40.7815 29.1695 40.7815 28.956 40.9375 28.8985L47.4416 26.6895C47.6961 26.6073 47.885 26.3774 47.9015 26.1064C47.9672 25.4166 48 24.7103 48 23.9959C48 23.2896 47.9671 22.5834 47.9015 21.8854C47.885 21.6226 47.6961 21.3926 47.4416 21.3023L40.9375 19.1014C40.7815 19.044 40.7815 18.8304 40.9375 18.773L46.916 16.7117C47.2691 16.5885 47.458 16.1944 47.3348 15.8412C46.4725 13.3694 45.2325 11.0864 43.6804 9.04978C43.4505 8.73772 43.007 8.68844 42.7032 8.92659L29.2435 19.8241C28.8411 20.1444 28.6029 20.6371 28.6029 21.1545C28.6029 21.8114 28.9725 22.4027 29.5555 22.6984L31.8631 23.8481C31.9945 23.9055 31.9945 24.0862 31.8631 24.1519L29.5555 25.3016C28.9725 25.589 28.6029 26.1885 28.6029 26.8373ZM8.9266 42.7032C8.68024 43.007 8.73773 43.4505 9.04157 43.6804C11.0864 45.2325 13.3694 46.4725 15.833 47.3348C16.1944 47.4662 16.5885 47.2773 16.7117 46.916L18.773 40.9375C18.8305 40.7815 19.044 40.7897 19.0932 40.9375L21.3023 47.4416C21.3926 47.6962 21.6144 47.885 21.8854 47.9097C22.5834 47.9672 23.2896 48 23.9959 48C24.7103 48 25.4084 47.9672 26.1064 47.9097C26.3774 47.885 26.6074 47.6962 26.6895 47.4416L28.8985 40.9375C28.9478 40.7897 29.1695 40.7815 29.2188 40.9375L31.2801 46.916C31.4033 47.2773 31.7974 47.4662 32.1588 47.3348C34.6224 46.4725 36.9136 45.2325 38.9502 43.6804C39.2541 43.4505 39.3116 43.007 39.0652 42.7032L28.1759 29.2435C27.8474 28.8411 27.3547 28.6029 26.8373 28.6029C26.1885 28.6029 25.589 28.9725 25.3016 29.5555L24.1519 31.8713C24.0862 31.9945 23.9056 31.9945 23.8481 31.8713L22.6984 29.5555C22.4027 28.9725 21.8115 28.6029 21.1545 28.6029C20.6371 28.6029 20.1444 28.8411 19.8159 29.2435L8.9266 42.7032ZM0 23.9959C0 24.7103 0.0328497 25.4084 0.0903338 26.1064C0.114968 26.3774 0.295636 26.6074 0.558428 26.6895L7.06245 28.8985C7.21027 28.9478 7.21027 29.1695 7.06245 29.2188L1.08401 31.2801C0.72267 31.4033 0.533793 31.7974 0.656977 32.1588C1.51925 34.6224 2.7675 36.9136 4.31959 38.9502C4.54953 39.2541 4.99299 39.3116 5.28862 39.0652L18.7565 28.1759C19.1589 27.8474 19.3971 27.3547 19.3971 26.8373C19.3971 26.1885 19.0275 25.589 18.4445 25.3016L16.1287 24.1519C16.0055 24.0862 16.0055 23.9056 16.1287 23.8399L18.4445 22.6902C19.0275 22.4027 19.3971 21.8115 19.3971 21.1545C19.3971 20.6371 19.1589 20.1444 18.7565 19.8159L5.28862 8.9266C4.99299 8.68023 4.54953 8.73772 4.31959 9.04157C2.7675 11.0864 1.51925 13.3694 0.656977 15.833C0.533793 16.1944 0.722676 16.5885 1.08401 16.7117L7.06245 18.773C7.21027 18.8304 7.21027 19.044 7.06245 19.0932L0.558428 21.3023C0.295642 21.3926 0.114974 21.6144 0.0903338 21.8854C0.0328497 22.5834 0 23.2896 0 23.9959ZM31.2883 1.084L29.227 7.06244C29.1695 7.21026 28.956 7.21026 28.9068 7.05423L26.6977 0.550212C26.6074 0.295636 26.3856 0.114968 26.1146 0.0903338C25.4166 0.0328497 24.7104 0 24.0041 0C23.2896 0 22.5916 0.0328497 21.8936 0.0903338C21.6226 0.114968 21.3926 0.295636 21.3105 0.550212L19.1015 7.05423C19.0522 7.21027 18.8305 7.21027 18.7812 7.06244L16.7199 1.084C16.5967 0.722665 16.2026 0.533787 15.8412 0.656971C13.3776 1.51924 11.0864 2.76749 9.04978 4.31138C8.74593 4.54953 8.68845 4.99298 8.93481 5.28862L19.8241 18.7565C20.1526 19.1589 20.6453 19.3889 21.1627 19.3889C21.8115 19.3889 22.411 19.0275 22.6984 18.4363L23.8481 16.1287C23.9138 16.0055 24.0944 16.0055 24.1519 16.1287L25.3016 18.4363C25.5973 19.0276 26.1885 19.3889 26.8455 19.3889C27.3629 19.3889 27.8556 19.1589 28.1841 18.7565L39.0734 5.28862C39.3198 4.99299 39.2623 4.54953 38.9584 4.31138C36.9136 2.76749 34.6306 1.51924 32.167 0.656971C31.8056 0.533787 31.4115 0.72267 31.2883 1.084Z" fill="white"/>
</g>
<defs>
<clipPath id="clip0_2173_116753">
<rect width="375.195" height="48" fill="white"/>
</clipPath>
</defs>
</svg>
