<svg width="521" height="142" viewBox="0 0 521 142" fill="none" xmlns="http://www.w3.org/2000/svg">
<g clip-path="url(#clip0)">
<path fill-rule="evenodd" clip-rule="evenodd" d="M454.625 76.0766V80.4018C453.334 81.9717 451.241 83.5749 448.985 84.7178C446.496 85.9825 444.337 86.6159 441.988 86.7674C435.992 87.1679 432.528 85.1746 432.528 81.4518C432.528 79.4906 434.486 77.8588 436.428 77.1106C438.758 76.2017 442.337 76.0766 445.857 76.0766H454.625ZM445.152 45.4812C440.224 45.4812 434.159 46.3901 428.608 48.2732C427.441 48.6692 425.308 49.5654 425.308 49.5654L428.015 59.3771L428.508 59.2234C428.508 59.2234 430.354 58.6473 431.422 58.3317C431.488 58.3088 437.935 56.0985 443.577 56.0985C447.411 56.0985 450.257 56.8777 452.035 58.4143C453.657 59.8098 454.523 62.2346 454.612 65.6268H444.774C437.556 65.6268 431.879 67.1474 427.899 70.1437C424.115 72.9908 422.198 76.9591 422.198 81.9384C422.198 86.5115 423.843 90.2698 427.088 93.1112C430.014 95.6588 433.761 96.975 438.543 97.1357C438.777 97.1426 439.019 97.146 439.265 97.146C442.332 97.146 446.365 96.9337 450.353 95.2755C451.557 94.7752 453.081 94.0923 454.62 93.1238V97.1151H465.693V65.0186C465.693 59.7031 464.023 55.2046 460.734 51.6551C457.036 47.5583 451.793 45.4812 445.152 45.4812V45.4812Z" fill="#401C00"/>
<path fill-rule="evenodd" clip-rule="evenodd" d="M383.688 82.4031C382.416 81.2496 381.352 79.6899 380.526 77.7685C379.694 75.8551 379.272 73.4682 379.272 70.6752C379.272 67.8718 379.694 65.4815 380.526 63.5715C382.855 58.2341 386.902 55.6384 392.897 55.6384C396.515 55.6384 399.598 56.7623 402.055 58.9746C405.023 61.7083 406.527 65.6275 406.527 70.6227C406.527 75.7992 405.031 79.7721 402.085 82.4259C400.775 83.568 399.295 84.4181 397.685 84.9543C394.395 86.0679 391.304 86.0679 388.012 84.9543C386.42 84.4249 384.964 83.568 383.688 82.4031M392.897 45.0115C388.266 45.0115 384.125 45.9379 380.568 47.7658V45.0115H368.689V111.236H380.568V93.6644C384.125 95.4945 388.267 96.421 392.897 96.421C400.41 96.421 406.538 94.0215 411.116 89.2865C415.668 84.515 417.973 78.266 417.973 70.7139C417.973 63.1688 415.666 56.922 411.11 52.1436C406.545 47.4109 400.418 45.0115 392.897 45.0115" fill="#401C00"/>
<path fill-rule="evenodd" clip-rule="evenodd" d="M510.498 71.1734C510.498 73.9913 510.074 76.3959 509.242 78.3184C506.914 83.6878 502.866 86.2979 496.872 86.2979C493.253 86.2979 490.171 85.1661 487.714 82.9417C484.745 80.1916 483.242 76.249 483.242 71.2239C483.242 66.0176 484.738 62.0198 487.683 59.3501C488.994 58.2034 490.473 57.3472 492.083 56.8066C493.729 56.2476 495.31 55.9756 496.919 55.9756C498.529 55.9756 500.111 56.2476 501.757 56.8066C503.349 57.3414 504.805 58.2034 506.081 59.373C507.352 60.5323 508.415 62.1013 509.242 64.0365C510.074 65.9602 510.498 68.3625 510.498 71.1734V71.1734ZM509.201 30.2949V48.0455C505.644 46.2056 501.501 45.2724 496.872 45.2724C489.359 45.2724 483.229 47.6862 478.653 52.4484C474.102 57.2496 471.795 63.5349 471.795 71.1333C471.795 78.7224 474.103 85.0077 478.658 89.8135C483.223 94.5746 489.351 96.9895 496.872 96.9895C501.503 96.9895 505.644 96.0587 509.201 94.2188V96.9895H521.079V30.2949H509.201Z" fill="#401C00"/>
<path fill-rule="evenodd" clip-rule="evenodd" d="M363.405 54.3153L356.119 45.025L330.408 65.3003V30.2949H318.624V96.7847H330.408V80.337L336.66 75.4064L355.03 96.9895L363.996 89.3161L345.932 68.0946L363.405 54.3153Z" fill="#401C00"/>
<path fill-rule="evenodd" clip-rule="evenodd" d="M240.121 82.5927C238.765 83.7389 237.234 84.5948 235.567 85.1375C233.915 85.6825 232.249 85.9624 230.618 85.967C228.987 85.9624 227.321 85.6825 225.666 85.1363C224.003 84.5948 222.472 83.7389 221.122 82.5973C218.08 79.9354 216.537 75.945 216.537 70.7406C216.537 65.6453 218.045 61.82 221.144 59.0481C223.682 56.8176 226.87 55.6863 230.618 55.6863C234.366 55.6863 237.554 56.8176 240.09 59.0446C243.191 61.82 244.7 65.6464 244.7 70.7406C244.7 75.945 243.156 79.9354 240.121 82.5927M230.617 45.0115C222.728 45.0115 216.15 47.4966 211.598 52.195C206.933 56.9427 204.567 63.2175 204.567 70.8508C204.567 78.484 206.93 84.76 211.588 89.5031C216.141 94.1957 222.721 96.6763 230.617 96.6763C238.514 96.6763 245.094 94.1957 249.645 89.5054C254.304 84.76 256.667 78.484 256.667 70.8508C256.667 63.2175 254.302 56.9427 249.64 52.1973C245.084 47.4966 238.507 45.0115 230.617 45.0115" fill="#401C00"/>
<path fill-rule="evenodd" clip-rule="evenodd" d="M295.819 82.5927C294.462 83.74 292.931 84.5959 291.267 85.1375C289.59 85.6905 287.97 85.9624 286.317 85.967C284.686 85.9624 283.021 85.6825 281.364 85.1363C279.701 84.5948 278.17 83.7389 276.82 82.5973C273.779 79.9354 272.235 75.945 272.235 70.7406C272.235 65.6464 273.743 61.82 276.842 59.0481C279.381 56.8176 282.568 55.6863 286.317 55.6863C290.065 55.6863 293.252 56.8176 295.788 59.0446C298.89 61.82 300.398 65.6464 300.398 70.7406C300.398 75.945 298.856 79.9354 295.819 82.5927M286.316 45.0115C278.427 45.0115 271.849 47.4966 267.297 52.195C262.631 56.9427 260.266 63.2175 260.266 70.8508C260.266 78.484 262.629 84.7612 267.286 89.5031C271.839 94.1957 278.42 96.6763 286.316 96.6763C294.212 96.6763 300.792 94.1957 305.343 89.5054C310.003 84.7612 312.366 78.484 312.366 70.8508C312.366 63.2175 310 56.9427 305.338 52.1973C300.783 47.4966 294.206 45.0115 286.316 45.0115" fill="#401C00"/>
<path fill-rule="evenodd" clip-rule="evenodd" d="M165.756 70.8439C165.756 72.9805 166.222 76.322 167.534 78.71C168.593 80.6412 170.126 82.3039 172.09 83.6522C174.282 85.1577 177.079 85.953 180.175 85.953C181.612 85.953 183.058 85.7808 184.474 85.44C188.259 84.5301 191.569 82.4738 194.594 79.1529L194.944 78.7685L202.689 86.3007C202.689 86.3007 200.521 88.7827 198.037 90.6083C193.093 94.2413 187.077 96.6763 179.816 96.6763C170.997 96.6763 163.071 92.8069 158.685 86.7023C155.377 82.1008 153.875 76.4494 153.875 70.8439C153.875 65.2372 155.377 59.587 158.685 54.9844C163.071 48.8808 170.997 45.0115 179.816 45.0115C187.077 45.0115 193.093 47.4465 198.037 51.0783C200.521 52.9051 202.689 55.3871 202.689 55.3871L194.944 62.9181L194.594 62.5337C191.569 59.2129 188.259 57.1577 184.474 56.2477C183.058 55.9069 181.612 55.7348 180.175 55.7348C177.079 55.7348 174.282 56.53 172.09 58.0355C170.126 59.3839 168.593 61.0454 167.534 62.9767C166.222 65.3646 165.756 68.7073 165.756 70.8439" fill="#401C00"/>
<path fill-rule="evenodd" clip-rule="evenodd" d="M141.985 71.0771C141.985 31.8669 110.218 0.0788574 71.0315 0.0788574C31.845 0.0788574 0.0791016 31.8669 0.0791016 71.0771C0.0791016 110.292 31.845 142.079 71.0315 142.079C110.218 142.079 141.985 110.292 141.985 71.0771" fill="#FF9933"/>
<path fill-rule="evenodd" clip-rule="evenodd" d="M0 71.0766C0 31.8231 31.8009 0 71.0307 0C110.26 0 142.063 31.8231 142.063 71.0766C142.063 110.335 110.26 142.157 71.0307 142.157C31.8009 142.157 0 110.335 0 71.0766ZM71.0307 0.15656C31.8873 0.15656 0.156457 31.9096 0.156457 71.0766C0.156457 110.248 31.8873 142 71.0307 142C110.174 142 141.906 110.248 141.906 71.0766C141.906 31.9096 110.174 0.15656 71.0307 0.15656Z" fill="#979797"/>
<path fill-rule="evenodd" clip-rule="evenodd" d="M102.241 37.8991C97.5022 37.8991 93.1372 39.5408 89.676 42.2847C86.5799 34.9654 79.3533 29.8252 70.9493 29.8252C63.8165 29.8252 57.5476 33.534 53.916 39.1235C51.3358 37.9299 48.4663 37.2737 45.4468 37.2737C34.2338 37.2737 25.1113 46.444 25.1113 57.7133C25.1113 66.5704 30.7407 74.1115 38.5932 76.9525L34.775 107.947C34.6686 108.899 34.9478 109.855 35.5634 110.574C36.1721 111.292 37.0611 111.706 37.9833 111.706H93.3408C94.9633 111.706 96.3443 110.446 96.556 108.786L100.252 78.6721C100.912 78.7349 101.565 78.783 102.241 78.783C113.462 78.783 122.584 69.6047 122.584 58.3353C122.584 47.0636 113.462 37.8991 102.241 37.8991" fill="#FEFEFE"/>
<path fill-rule="evenodd" clip-rule="evenodd" d="M103.794 72.399C103.371 72.399 102.964 72.3715 102.548 72.3292L103.033 68.4735C103.269 66.5296 101.931 64.7332 100.054 64.4896C98.1663 64.2518 96.4502 65.6217 96.2019 67.5678C96.2019 67.5678 94.773 79.1328 93.4551 89.8974H48.6118C46.7069 89.8974 45.1671 91.4903 45.1671 93.4616C45.1671 95.4158 46.7069 97.0121 48.6118 97.0121H92.581C91.9724 101.887 91.4896 105.868 91.2974 107.408H39.4136C40.0657 102.111 42.7817 80.0716 43.8045 71.7209C43.6867 71.7209 43.5608 71.7278 43.443 71.7278C35.3191 71.7278 28.703 65.1666 28.703 57.12C28.703 49.0551 35.3191 42.5042 43.443 42.5042C48.0695 42.5042 52.1995 44.6345 54.9063 47.9403C55.2702 48.4502 55.769 48.4502 55.8696 47.7516C56.5995 40.3648 62.9021 34.5812 70.5329 34.5812C77.8685 34.5812 83.9789 39.9246 85.0852 46.902C84.5532 47.8305 84.0784 48.8047 83.6895 49.8018L89.8342 53.119C91.7962 47.3422 97.3208 43.172 103.794 43.172C111.914 43.172 118.523 49.7229 118.523 57.7843C118.523 65.8458 111.914 72.399 103.794 72.399M103.794 36.0608C98.7509 36.0608 94.1129 37.8092 90.4325 40.7296C87.1422 32.9471 79.4691 27.4768 70.5329 27.4768C62.9604 27.4768 56.2929 31.4195 52.4363 37.3643C49.6941 36.102 46.6475 35.393 43.443 35.393C31.5208 35.393 21.8262 45.1445 21.8262 57.12C21.8262 66.5296 27.8153 74.5533 36.1577 77.5697L32.0963 110.516C31.9705 111.52 32.2839 112.545 32.9257 113.324C33.5847 114.073 34.524 114.524 35.5056 114.524H94.3257C96.0612 114.524 97.5245 113.186 97.7361 111.411L101.676 79.4004C102.38 79.4622 103.081 79.5182 103.794 79.5182C115.703 79.5182 125.4 69.7599 125.4 57.7843C125.4 45.8043 115.703 36.0608 103.794 36.0608" fill="#290200"/>
</g>
<defs>
<clipPath id="clip0">
<rect width="521" height="142" fill="white"/>
</clipPath>
</defs>
</svg>
