<svg width="939" height="256" viewBox="0 0 939 256" fill="none" xmlns="http://www.w3.org/2000/svg">
<g clip-path="url(#clip0)">
<path fill-rule="evenodd" clip-rule="evenodd" d="M819.372 137.152V144.95C817.046 147.78 813.274 150.67 809.208 152.731C804.722 155.011 800.831 156.153 796.597 156.426C785.79 157.148 779.547 153.554 779.547 146.843C779.547 143.307 783.076 140.365 786.576 139.016C790.776 137.378 797.226 137.152 803.57 137.152H819.372ZM802.299 81.9944C793.418 81.9944 782.487 83.6329 772.481 87.0279C770.379 87.7417 766.534 89.3575 766.534 89.3575L771.413 107.046L772.301 106.769C772.301 106.769 775.63 105.73 777.554 105.161C777.672 105.12 789.292 101.135 799.461 101.135C806.371 101.135 811.5 102.54 814.704 105.31C817.627 107.826 819.188 112.198 819.349 118.313H801.619C788.61 118.313 778.377 121.054 771.204 126.456C764.384 131.589 760.93 138.743 760.93 147.72C760.93 155.964 763.894 162.74 769.742 167.862C775.016 172.455 781.769 174.828 790.388 175.118C790.809 175.13 791.245 175.137 791.69 175.137C797.218 175.137 804.486 174.754 811.674 171.764C813.842 170.862 816.59 169.631 819.364 167.885V175.081H839.321V117.217C839.321 107.634 836.311 99.5239 830.382 93.1249C823.717 85.739 814.268 81.9944 802.299 81.9944V81.9944Z" fill="black"/>
<path fill-rule="evenodd" clip-rule="evenodd" d="M691.522 148.558C689.23 146.478 687.313 143.666 685.825 140.202C684.324 136.753 683.564 132.45 683.564 127.414C683.564 122.36 684.324 118.051 685.825 114.608C690.022 104.985 697.315 100.306 708.12 100.306C714.64 100.306 720.197 102.332 724.626 106.32C729.976 111.249 732.687 118.314 732.687 127.32C732.687 136.652 729.99 143.814 724.68 148.599C722.32 150.658 719.652 152.19 716.75 153.157C710.821 155.165 705.249 155.165 699.315 153.157C696.447 152.203 693.823 150.658 691.522 148.558M708.12 81.1475C699.773 81.1475 692.31 82.8177 685.899 86.1129V81.1475H664.491V200.539H685.899V168.86C692.31 172.159 699.776 173.829 708.12 173.829C721.66 173.829 732.705 169.504 740.957 160.967C749.16 152.365 753.316 141.099 753.316 127.484C753.316 113.882 749.158 102.62 740.946 94.0054C732.718 85.4732 721.675 81.1475 708.12 81.1475" fill="black"/>
<path fill-rule="evenodd" clip-rule="evenodd" d="M920.072 128.313C920.072 133.393 919.309 137.728 917.808 141.194C913.613 150.874 906.318 155.579 895.513 155.579C888.99 155.579 883.436 153.539 879.009 149.529C873.657 144.571 870.948 137.463 870.948 128.404C870.948 119.018 873.645 111.81 878.953 106.997C881.316 104.93 883.981 103.386 886.883 102.412C889.849 101.404 892.698 100.914 895.598 100.914C898.5 100.914 901.352 101.404 904.318 102.412C907.188 103.376 909.812 104.93 912.111 107.039C914.403 109.129 916.318 111.957 917.808 115.446C919.309 118.914 920.072 123.245 920.072 128.313V128.313ZM917.734 54.6162V86.6172C911.323 83.3002 903.857 81.6179 895.513 81.6179C881.973 81.6179 870.925 85.9695 862.679 94.5549C854.475 103.211 850.317 114.542 850.317 128.24C850.317 141.922 854.477 153.253 862.687 161.917C870.915 170.501 881.958 174.854 895.513 174.854C903.859 174.854 911.323 173.176 917.734 169.859V174.854H939.142V54.6162H917.734Z" fill="black"/>
<path fill-rule="evenodd" clip-rule="evenodd" d="M654.967 97.9206L641.834 81.1719L595.496 117.724V54.6162H574.258V174.485H595.496V144.833L606.764 135.944L639.872 174.854L656.032 161.021L623.475 122.762L654.967 97.9206Z" fill="black"/>
<path fill-rule="evenodd" clip-rule="evenodd" d="M432.771 148.899C430.327 150.966 427.568 152.509 424.564 153.487C421.585 154.47 418.583 154.975 415.643 154.983C412.704 154.975 409.702 154.47 406.719 153.485C403.721 152.509 400.962 150.966 398.528 148.908C393.045 144.109 390.266 136.915 390.266 127.532C390.266 118.346 392.983 111.45 398.568 106.453C403.142 102.432 408.889 100.392 415.643 100.392C422.398 100.392 428.145 102.432 432.715 106.447C438.304 111.45 441.023 118.349 441.023 127.532C441.023 136.915 438.241 144.109 432.771 148.899M415.641 81.1475C401.422 81.1475 389.569 85.6277 381.364 94.098C372.956 102.657 368.692 113.97 368.692 127.731C368.692 141.492 372.951 152.807 381.345 161.358C389.552 169.818 401.41 174.29 415.641 174.29C429.875 174.29 441.733 169.818 449.936 161.362C458.333 152.807 462.592 141.492 462.592 127.731C462.592 113.97 458.329 102.657 449.927 94.1022C441.716 85.6277 429.862 81.1475 415.641 81.1475" fill="black"/>
<path fill-rule="evenodd" clip-rule="evenodd" d="M533.157 148.899C530.711 150.968 527.952 152.511 524.952 153.487C521.929 154.484 519.01 154.975 516.031 154.983C513.092 154.975 510.09 154.47 507.104 153.485C504.107 152.509 501.348 150.966 498.914 148.908C493.433 144.109 490.651 136.915 490.651 127.532C490.651 118.349 493.369 111.45 498.954 106.453C503.53 102.432 509.274 100.392 516.031 100.392C522.786 100.392 528.53 102.432 533.101 106.447C538.691 111.45 541.409 118.349 541.409 127.532C541.409 136.915 538.629 144.109 533.157 148.899M516.029 81.1475C501.81 81.1475 489.954 85.6277 481.752 94.098C473.341 102.657 469.078 113.97 469.078 127.731C469.078 141.492 473.337 152.809 481.731 161.358C489.938 169.818 501.798 174.29 516.029 174.29C530.261 174.29 542.119 169.818 550.321 161.362C558.719 152.809 562.978 141.492 562.978 127.731C562.978 113.97 558.715 102.657 550.313 94.1022C542.102 85.6277 530.248 81.1475 516.029 81.1475" fill="black"/>
<path fill-rule="evenodd" clip-rule="evenodd" d="M298.743 127.719C298.743 131.571 299.583 137.595 301.947 141.9C303.857 145.381 306.62 148.379 310.159 150.81C314.111 153.524 319.151 154.957 324.73 154.957C327.321 154.957 329.926 154.647 332.478 154.033C339.301 152.392 345.266 148.685 350.718 142.698L351.348 142.005L365.308 155.584C365.308 155.584 361.4 160.059 356.923 163.35C348.013 169.9 337.169 174.29 324.084 174.29C308.189 174.29 293.904 167.314 285.998 156.308C280.037 148.013 277.33 137.824 277.33 127.719C277.33 117.611 280.037 107.424 285.998 99.1267C293.904 88.1232 308.189 81.1475 324.084 81.1475C337.169 81.1475 348.013 85.5373 356.923 92.0848C361.4 95.3782 365.308 99.8529 365.308 99.8529L351.348 113.43L350.718 112.737C345.266 106.75 339.301 103.045 332.478 101.404C329.926 100.79 327.321 100.48 324.73 100.48C319.151 100.48 314.111 101.913 310.159 104.627C306.62 107.058 303.857 110.054 301.947 113.535C299.583 117.84 298.743 123.867 298.743 127.719" fill="black"/>
<path fill-rule="evenodd" clip-rule="evenodd" d="M0 128.138C0 57.3713 57.3149 0 128.019 0C198.723 0 256.04 57.3713 256.04 128.138C256.04 198.913 198.723 256.282 128.019 256.282C57.3149 256.282 0 198.913 0 128.138ZM128.019 0.282249C57.4707 0.282249 0.281982 57.5272 0.281982 128.138C0.281982 198.757 57.4707 256 128.019 256C198.567 256 255.758 198.757 255.758 128.138C255.758 57.5272 198.567 0.282249 128.019 0.282249Z" fill="#979797"/>
<path fill-rule="evenodd" clip-rule="evenodd" d="M187.068 130.522C186.305 130.522 185.573 130.473 184.822 130.396L185.696 123.445C186.121 119.941 183.711 116.702 180.327 116.263C176.925 115.834 173.832 118.304 173.385 121.812C173.385 121.812 170.809 142.662 168.434 162.069H87.6127C84.1796 162.069 81.4043 164.94 81.4043 168.494C81.4043 172.017 84.1796 174.895 87.6127 174.895H166.859C165.762 183.683 164.892 190.861 164.545 193.638H71.0349C72.2102 184.087 77.1052 144.354 78.9485 129.3C78.7361 129.3 78.5093 129.312 78.297 129.312C63.6552 129.312 51.7311 117.483 51.7311 102.977C51.7311 88.4374 63.6552 76.6273 78.297 76.6273C86.6354 76.6273 94.0789 80.4678 98.9574 86.4275C99.6131 87.3469 100.512 87.3469 100.694 86.0873C102.009 72.7703 113.368 62.3435 127.121 62.3435C140.342 62.3435 151.355 71.9767 153.349 84.5557C152.39 86.2296 151.534 87.986 150.833 89.7835L161.908 95.7638C165.444 85.3493 175.401 77.8312 187.068 77.8312C201.703 77.8312 213.615 89.6413 213.615 104.175C213.615 118.708 201.703 130.522 187.068 130.522M187.068 65.011C177.979 65.011 169.62 68.163 162.986 73.4279C157.056 59.3977 143.227 49.5356 127.121 49.5356C113.473 49.5356 101.456 56.6436 94.5057 67.3611C89.5633 65.0852 84.0724 63.8071 78.297 63.8071C56.8097 63.8071 39.3369 81.3872 39.3369 102.977C39.3369 119.941 50.1311 134.406 65.1666 139.844L57.8468 199.241C57.62 201.051 58.185 202.898 59.3417 204.302C60.5294 205.652 62.2222 206.466 63.9913 206.466H170.003C173.131 206.466 175.768 204.054 176.15 200.853L183.251 143.144C184.519 143.256 185.783 143.357 187.068 143.357C208.532 143.357 226.009 125.764 226.009 104.175C226.009 82.5767 208.532 65.011 187.068 65.011" fill="black"/>
</g>
<defs>
<clipPath id="clip0">
<rect width="939" height="256" fill="white"/>
</clipPath>
</defs>
</svg>
