<svg width="224" height="73" viewBox="0 0 224 73" fill="none" xmlns="http://www.w3.org/2000/svg">
<g clip-path="url(#clip0)">
<path d="M35.3139 17.064H27.1139C24.6139 17.064 22.7139 15.064 22.7139 12.664V4.46396C22.7139 2.06396 24.7139 0.0639648 27.1139 0.0639648H35.3139C37.7139 0.0639648 39.7139 1.96396 39.7139 4.46396V12.664C39.7139 15.064 37.8139 17.064 35.3139 17.064Z" fill="#406EB3"/>
<path d="M14.1137 35.3638H4.91367C2.11367 35.3638 0.0136719 33.1638 0.0136719 30.4638V21.2638C0.0136719 18.5638 2.21367 16.3638 4.91367 16.3638H14.1137C16.9137 16.3638 19.0137 18.5638 19.0137 21.2638V30.4638C19.1137 33.2638 16.9137 35.3638 14.1137 35.3638Z" fill="#632678"/>
<path d="M13.3139 54.5639H7.71387C6.11387 54.5639 4.71387 53.1639 4.71387 51.5639V45.9639C4.71387 44.2639 6.01387 42.9639 7.71387 42.9639H13.3139C14.9139 42.9639 16.3139 44.3639 16.3139 45.9639V51.5639C16.3139 53.1639 14.9139 54.5639 13.3139 54.5639Z" fill="#982881"/>
<path d="M28.3137 72.2638H21.6137C19.7137 72.2638 18.0137 70.6638 18.0137 68.6638V61.9638C18.0137 59.9638 19.6137 58.3638 21.6137 58.3638H28.3137C30.3137 58.3638 31.9137 59.9638 31.9137 61.9638V68.6638C31.9137 70.7638 30.4137 72.2638 28.3137 72.2638Z" fill="#BA2F7D"/>
<path d="M52.7133 20.3642H48.1133C46.8133 20.3642 45.6133 19.2642 45.6133 17.8642V13.2642C45.6133 11.8642 46.7133 10.7642 48.1133 10.7642H52.7133C54.0133 10.7642 55.2133 11.8642 55.2133 13.2642V17.8642C55.3133 19.2642 54.1133 20.3642 52.7133 20.3642Z" fill="#BA2F7D"/>
<path d="M153.714 23.4642C155.214 23.4642 156.314 22.2642 156.314 20.8642C156.314 19.3642 155.114 18.2642 153.714 18.2642C152.214 18.2642 151.014 19.4642 151.014 20.8642C151.014 22.2642 152.214 23.4642 153.714 23.4642Z" fill="#26478D"/>
<path d="M56.7139 51.8638C56.3139 52.4638 55.7139 52.7638 54.9139 52.7638C54.5139 52.7638 54.0139 52.6638 53.7139 52.4638C53.1139 52.0638 52.7139 51.3638 52.7139 50.5638C52.7139 50.1638 52.8139 49.7638 53.0139 49.5638L59.1139 39.8638L53.0139 30.1638C52.8139 29.8638 52.7139 29.3638 52.7139 29.0638C52.7139 28.2638 53.1139 27.5638 53.8139 27.1638C54.2139 26.9638 54.5139 26.8638 54.9139 26.8638C55.7139 26.8638 56.3139 27.1638 56.8139 27.7638L61.8139 35.6638L66.9139 27.7638C67.3139 27.1638 68.0139 26.8638 68.8139 26.8638C69.2139 26.8638 69.6139 26.9638 69.9139 27.1638C70.6139 27.5638 70.9139 28.2638 70.9139 29.0638C70.9139 29.4638 70.8139 29.8638 70.6139 30.1638L64.4139 39.8638L70.6139 49.5638C70.8139 49.8638 70.9139 50.2638 70.9139 50.5638C70.9139 51.3638 70.5139 52.1638 69.9139 52.4638C69.5139 52.6638 69.1139 52.7638 68.7139 52.7638C68.0139 52.7638 67.4139 52.4638 66.9139 51.8638L61.8139 43.9638L56.7139 51.8638Z" fill="#26478D"/>
<path d="M78.7135 29.8639C81.0135 27.7639 84.2135 26.4639 87.6135 26.4639C95.0135 26.4639 100.913 32.3639 100.913 39.7639C100.913 47.0639 95.0135 52.9639 87.6135 52.9639C84.2135 52.9639 81.1135 51.6639 78.7135 49.5639V60.8639C78.7135 61.9639 77.7135 62.9639 76.5135 62.9639C75.5135 62.9639 74.3135 61.9639 74.3135 60.8639V28.7639C74.3135 27.6639 75.3135 26.6639 76.5135 26.6639C77.7135 26.6639 78.7135 27.6639 78.7135 28.7639V29.8639ZM87.4135 30.8639C82.5135 30.8639 78.5135 34.7639 78.5135 39.7639C78.5135 44.6639 82.4135 48.6639 87.4135 48.6639C92.3135 48.6639 96.3135 44.7639 96.3135 39.7639C96.4135 34.7639 92.5135 30.8639 87.4135 30.8639Z" fill="#26478D"/>
<path d="M138.414 37.364V50.664C138.414 51.764 137.414 52.764 136.214 52.764C135.014 52.764 134.014 51.764 134.014 50.664V28.864C134.014 27.764 135.014 26.764 136.214 26.764C137.214 26.764 138.314 27.664 138.414 28.764C140.214 27.364 142.514 26.564 145.014 26.564C146.414 26.564 147.414 27.564 147.414 28.764C147.414 29.964 146.414 30.964 145.014 30.964C141.614 31.064 138.414 32.264 138.414 37.364Z" fill="#26478D"/>
<path d="M153.714 26.6641C152.514 26.6641 151.514 27.6641 151.514 28.7641V50.6641C151.514 51.7641 152.514 52.7641 153.714 52.7641C154.714 52.7641 155.914 51.7641 155.914 50.6641V28.7641C155.814 27.6641 154.814 26.6641 153.714 26.6641Z" fill="#26478D"/>
<path d="M181.614 28.7639C181.614 27.6639 182.714 26.6639 183.814 26.6639C184.814 26.6639 186.014 27.6639 186.014 28.7639V50.6639C186.014 51.7639 185.014 52.7639 183.814 52.7639C182.614 52.7639 181.614 51.7639 181.614 50.6639V49.5639C179.214 51.6639 176.114 52.9639 172.814 52.9639C165.414 52.9639 159.514 47.0639 159.514 39.6639C159.514 32.3639 165.414 26.4639 172.814 26.4639C176.214 26.4639 179.314 27.7639 181.614 29.8639V28.7639ZM172.714 48.5639C177.714 48.5639 181.514 44.6639 181.514 39.6639C181.514 34.7639 177.614 30.7639 172.714 30.7639C167.814 30.7639 163.914 34.6639 163.914 39.6639C163.914 44.6639 167.814 48.5639 172.714 48.5639Z" fill="#26478D"/>
<path d="M208.214 37.664C208.214 33.964 205.014 30.864 201.414 30.864C197.914 30.864 194.614 32.264 194.614 37.464V50.764C194.614 51.864 193.514 52.864 192.414 52.864C191.214 52.864 190.214 51.864 190.214 50.764V28.864C190.214 27.764 191.314 26.764 192.414 26.764C193.514 26.764 194.514 27.664 194.614 28.764C196.514 27.364 198.814 26.564 201.314 26.564C207.214 26.564 212.514 31.164 212.514 37.064V50.664C212.514 51.764 211.414 52.764 210.314 52.764C209.114 52.764 208.114 51.764 208.114 50.664V37.664H208.214Z" fill="#26478D"/>
<path d="M51.4141 38.964C51.4141 32.264 45.4141 26.564 38.2141 26.564C30.8141 26.564 24.9141 32.464 24.9141 39.764C24.9141 47.164 30.8141 53.064 38.2141 53.064C41.7141 53.064 45.0141 51.664 47.4141 49.264C47.9141 48.864 48.1141 48.164 48.1141 47.664C48.1141 46.464 47.1141 45.464 45.9141 45.464C45.2141 45.464 44.6141 45.864 44.2141 46.364C42.7141 47.964 40.5141 48.664 38.2141 48.664C33.8141 48.664 30.2141 45.664 29.4141 41.464H49.2141C49.2141 41.464 49.2141 41.464 49.3141 41.464H49.4141H49.5141C49.6141 41.464 49.6141 41.464 49.7141 41.364C50.7141 41.064 51.4141 40.164 51.4141 38.964ZM38.2141 30.864C42.2141 30.864 45.5141 33.464 46.6141 37.064H29.7141C30.9141 33.464 34.2141 30.864 38.2141 30.864Z" fill="#26478D"/>
<path d="M130.313 38.964C130.313 32.264 124.213 26.564 117.113 26.564C109.713 26.564 103.813 32.464 103.813 39.764C103.813 47.164 109.713 53.064 117.113 53.064C120.613 53.064 123.913 51.664 126.313 49.264C126.813 48.864 127.013 48.164 127.013 47.664C127.013 46.464 126.013 45.464 124.813 45.464C124.113 45.464 123.513 45.864 123.113 46.364C121.613 47.964 119.413 48.664 117.113 48.664C112.713 48.664 109.113 45.664 108.313 41.464H128.213C128.213 41.464 128.213 41.464 128.313 41.464H128.413C128.513 41.464 128.613 41.464 128.613 41.464H128.713C129.513 41.064 130.313 40.164 130.313 38.964ZM117.113 30.864C121.113 30.864 124.413 33.464 125.513 37.064H108.613C109.813 33.464 113.113 30.864 117.113 30.864Z" fill="#26478D"/>
<path d="M217.213 52.7638C217.013 52.7638 216.813 52.6638 216.813 52.3638V48.6638H216.013C215.813 48.6638 215.613 48.5638 215.613 48.2638C215.613 48.0638 215.813 47.8638 216.013 47.8638H218.413C218.613 47.8638 218.813 47.9638 218.813 48.2638C218.813 48.4638 218.613 48.6638 218.413 48.6638H217.613V52.3638C217.613 52.6638 217.413 52.7638 217.213 52.7638Z" fill="#26478D"/>
<path d="M221.514 52.764C221.314 52.764 221.214 52.664 221.114 52.464L220.014 49.464V52.364C220.014 52.564 219.814 52.764 219.614 52.764C219.414 52.764 219.214 52.664 219.214 52.364V48.564C219.214 48.264 219.414 48.064 219.714 48.064C219.914 48.064 220.114 48.164 220.214 48.464L221.314 51.564L222.414 48.464C222.514 48.264 222.714 48.064 222.914 48.064C223.214 48.064 223.414 48.264 223.414 48.564V52.464C223.414 52.664 223.214 52.864 223.014 52.864C222.814 52.864 222.614 52.764 222.614 52.464V49.564C222.414 49.964 222.214 50.764 222.014 51.364C221.614 52.564 221.614 52.564 221.614 52.564C221.814 52.764 221.614 52.764 221.514 52.764Z" fill="#26478D"/>
</g>
<defs>
<clipPath id="clip0">
<rect width="223.5" height="72.3" fill="white"/>
</clipPath>
</defs>
</svg>
