<svg width="1413" height="457" viewBox="0 0 1413 457" fill="none" xmlns="http://www.w3.org/2000/svg">
<path d="M223.253 107.859H171.411C155.606 107.859 143.594 95.2174 143.594 80.0472V28.2159C143.594 13.0458 156.238 0.404053 171.411 0.404053H223.253C238.426 0.404053 251.07 12.4137 251.07 28.2159V80.0472C251.07 95.2174 239.058 107.859 223.253 107.859Z" fill="white"/>
<path d="M89.2282 223.53H31.0645C13.3625 223.53 0.0859375 209.624 0.0859375 192.558V134.406C0.0859375 117.339 13.9947 103.433 31.0645 103.433H89.2282C106.93 103.433 120.207 117.339 120.207 134.406V192.558C120.839 210.256 106.93 223.53 89.2282 223.53Z" fill="white"/>
<path d="M84.1654 344.892H48.7614C38.6459 344.892 29.7949 336.043 29.7949 325.929V290.532C29.7949 279.787 38.0137 271.569 48.7614 271.569H84.1654C94.2808 271.569 103.132 280.419 103.132 290.532V325.929C103.132 336.043 94.2808 344.892 84.1654 344.892Z" fill="white"/>
<path d="M179.003 456.771H136.644C124.632 456.771 113.885 446.658 113.885 434.016V391.666C113.885 379.024 124 368.911 136.644 368.911H179.003C191.647 368.911 201.763 379.024 201.763 391.666V434.016C201.763 447.29 192.279 456.771 179.003 456.771Z" fill="white"/>
<path d="M333.26 128.719H304.178C295.96 128.719 288.373 121.766 288.373 112.917V83.8408C288.373 74.9915 295.327 68.0386 304.178 68.0386H333.26C341.479 68.0386 349.066 74.9915 349.066 83.8408V112.917C349.698 121.766 342.111 128.719 333.26 128.719Z" fill="white"/>
<path d="M971.8 148.314C981.283 148.314 988.238 140.729 988.238 131.88C988.238 122.398 980.651 115.445 971.8 115.445C962.317 115.445 954.73 123.03 954.73 131.88C954.73 140.729 962.317 148.314 971.8 148.314Z" fill="white"/>
<path d="M358.548 327.825C356.019 331.617 352.226 333.514 347.168 333.514C344.64 333.514 341.479 332.882 339.582 331.617C335.789 329.089 333.26 324.664 333.26 319.608C333.26 317.079 333.892 314.551 335.156 313.287L373.721 251.974L335.156 190.662C333.892 188.765 333.26 185.605 333.26 183.709C333.26 178.652 335.789 174.227 340.214 171.699C342.743 170.435 344.64 169.803 347.168 169.803C352.226 169.803 356.019 171.699 359.181 175.491L390.791 225.427L423.034 175.491C425.563 171.699 429.989 169.803 435.046 169.803C437.575 169.803 440.104 170.435 442.001 171.699C446.426 174.227 448.323 178.652 448.323 183.709C448.323 186.237 447.691 188.765 446.426 190.662L407.229 251.974L446.426 313.287C447.691 315.183 448.323 317.711 448.323 319.608C448.323 324.664 445.794 329.721 442.001 331.617C439.472 332.882 436.943 333.514 434.414 333.514C429.989 333.514 426.195 331.617 423.034 327.825L390.791 277.89L358.548 327.825Z" fill="white"/>
<path d="M497.644 188.766C512.185 175.492 532.415 167.275 553.911 167.275C600.695 167.275 637.995 204.568 637.995 251.343C637.995 297.485 600.695 334.778 553.911 334.778C532.415 334.778 512.817 326.561 497.644 313.287V384.713C497.644 391.666 491.321 397.987 483.735 397.987C477.413 397.987 469.826 391.666 469.826 384.713V181.813C469.826 174.86 476.148 168.539 483.735 168.539C491.321 168.539 497.644 174.86 497.644 181.813V188.766ZM552.646 195.087C521.668 195.087 496.379 219.738 496.379 251.343C496.379 282.315 521.036 307.599 552.646 307.599C583.625 307.599 608.913 282.947 608.913 251.343C609.546 219.738 584.889 195.087 552.646 195.087Z" fill="white"/>
<path d="M875.071 236.173V320.241C875.071 327.194 868.749 333.515 861.163 333.515C853.576 333.515 847.254 327.194 847.254 320.241V182.446C847.254 175.493 853.576 169.172 861.163 169.172C867.485 169.172 874.439 174.86 875.071 181.813C886.451 172.964 900.992 167.907 916.797 167.907C925.648 167.907 931.971 174.228 931.971 181.813C931.971 189.398 925.648 195.719 916.797 195.719C895.302 196.351 875.071 203.937 875.071 236.173Z" fill="white"/>
<path d="M971.799 168.54C964.213 168.54 957.891 174.861 957.891 181.814V320.241C957.891 327.194 964.213 333.515 971.799 333.515C978.121 333.515 985.708 327.194 985.708 320.241V181.814C985.076 174.861 978.754 168.54 971.799 168.54Z" fill="white"/>
<path d="M1148.19 181.813C1148.19 174.86 1155.14 168.539 1162.1 168.539C1168.42 168.539 1176.01 174.86 1176.01 181.813V320.24C1176.01 327.193 1169.68 333.514 1162.1 333.514C1154.51 333.514 1148.19 327.193 1148.19 320.24V313.287C1133.02 326.561 1113.42 334.778 1092.55 334.778C1045.77 334.778 1008.47 297.485 1008.47 250.711C1008.47 204.568 1045.77 167.275 1092.55 167.275C1114.05 167.275 1133.65 175.492 1148.19 188.766V181.813ZM1091.92 306.967C1123.53 306.967 1147.56 282.315 1147.56 250.711C1147.56 219.738 1122.9 194.455 1091.92 194.455C1060.94 194.455 1036.29 219.106 1036.29 250.711C1036.29 282.315 1060.94 306.967 1091.92 306.967Z" fill="white"/>
<path d="M1316.35 238.069C1316.35 214.682 1296.12 195.087 1273.36 195.087C1251.24 195.087 1230.37 203.936 1230.37 236.805V320.873C1230.37 327.826 1223.42 334.147 1216.46 334.147C1208.88 334.147 1202.55 327.826 1202.55 320.873V182.446C1202.55 175.493 1209.51 169.172 1216.46 169.172C1223.42 169.172 1229.74 174.86 1230.37 181.813C1242.38 172.964 1256.93 167.907 1272.73 167.907C1310.03 167.907 1343.54 196.984 1343.54 234.277V320.241C1343.54 327.194 1336.58 333.515 1329.63 333.515C1322.04 333.515 1315.72 327.194 1315.72 320.241V238.069H1316.35Z" fill="white"/>
<path d="M325.047 246.286C325.047 203.936 287.114 167.907 241.594 167.907C194.81 167.907 157.51 205.201 157.51 251.343C157.51 298.118 194.81 335.411 241.594 335.411C263.722 335.411 284.585 326.562 299.758 311.392C302.919 308.863 304.184 304.439 304.184 301.278C304.184 293.693 297.861 287.372 290.275 287.372C285.849 287.372 282.056 289.901 279.527 293.061C270.044 303.174 256.135 307.599 241.594 307.599C213.777 307.599 191.017 288.636 185.959 262.089H311.138C311.138 262.089 311.138 262.089 311.77 262.089H312.402H313.035C313.667 262.089 313.667 262.089 314.299 261.457C320.621 259.56 325.047 253.871 325.047 246.286ZM241.594 195.087C266.883 195.087 287.746 211.522 294.7 234.277H187.856C195.443 211.522 216.306 195.087 241.594 195.087Z" fill="white"/>
<path d="M823.865 246.286C823.865 203.936 785.3 167.907 740.413 167.907C693.629 167.907 656.328 205.201 656.328 251.343C656.328 298.118 693.629 335.411 740.413 335.411C762.54 335.411 783.403 326.562 798.576 311.392C801.737 308.863 803.002 304.439 803.002 301.278C803.002 293.693 796.68 287.372 789.093 287.372C784.668 287.372 780.874 289.901 778.346 293.061C768.862 303.174 754.954 307.599 740.413 307.599C712.595 307.599 689.835 288.636 684.778 262.089H810.588C810.588 262.089 810.588 262.089 811.221 262.089H811.853C812.485 262.089 813.117 262.089 813.117 262.089H813.75C818.807 259.56 823.865 253.871 823.865 246.286ZM740.413 195.087C765.701 195.087 786.564 211.522 793.519 234.277H686.674C694.261 211.522 715.124 195.087 740.413 195.087Z" fill="white"/>
<path d="M1373.25 333.514C1371.99 333.514 1370.73 332.882 1370.73 330.985V307.598H1365.67C1364.4 307.598 1363.14 306.966 1363.14 305.07C1363.14 303.805 1364.4 302.541 1365.67 302.541H1380.84C1382.1 302.541 1383.37 303.173 1383.37 305.07C1383.37 306.334 1382.1 307.598 1380.84 307.598H1375.78V330.985C1375.78 332.882 1374.52 333.514 1373.25 333.514Z" fill="white"/>
<path d="M1400.44 333.515C1399.17 333.515 1398.54 332.883 1397.91 331.618L1390.95 312.656V330.986C1390.95 332.251 1389.69 333.515 1388.43 333.515C1387.16 333.515 1385.9 332.883 1385.9 330.986V306.967C1385.9 305.071 1387.16 303.807 1389.06 303.807C1390.32 303.807 1391.59 304.439 1392.22 306.335L1399.17 325.93L1406.13 306.335C1406.76 305.071 1408.02 303.807 1409.29 303.807C1411.18 303.807 1412.45 305.071 1412.45 306.967V331.618C1412.45 332.883 1411.18 334.147 1409.92 334.147C1408.66 334.147 1407.39 333.515 1407.39 331.618V313.288C1406.13 315.816 1404.86 320.873 1403.6 324.665C1401.07 332.251 1401.07 332.251 1401.07 332.251C1402.33 333.515 1401.07 333.515 1400.44 333.515Z" fill="white"/>
</svg>
