<svg width="720" height="261" viewBox="0 0 720 261" fill="none" xmlns="http://www.w3.org/2000/svg">
<path d="M0 0.0125977V201.62L25.9411 201.7V105.692H88.4868V80.3152H25.9411V25.3771H107.398V0L0 0.0125977Z" fill="black"/>
<path d="M154.09 40.938C163.434 40.938 171.008 33.3635 171.008 24.0199C171.008 14.6763 163.434 7.10181 154.09 7.10181C144.747 7.10181 137.172 14.6763 137.172 24.0199C137.172 33.3635 144.747 40.938 154.09 40.938Z" fill="black"/>
<path d="M140.894 66.3149V201.66H166.835V66.3149H140.894Z" fill="black"/>
<path fill-rule="evenodd" clip-rule="evenodd" d="M263.05 62.3674C228.602 62.3674 204.562 91.5015 204.562 126.092C204.562 160.683 228.602 189.817 263.05 189.817C278.821 189.817 291.818 183.711 301.277 173.772V191.791C301.277 214.215 283.663 232.958 260.674 232.958C252.411 232.958 244.201 229.755 237.66 225.247L224.662 247.759C235.043 254.451 247.405 258.335 260.674 258.335C297.426 258.335 327.218 228.542 327.218 191.791V66.3149H301.277V78.4128C291.818 68.473 278.821 62.3674 263.05 62.3674ZM230.503 126.092C230.503 104.621 246.927 87.7445 265.87 87.7445C284.814 87.7445 301.237 104.621 301.237 126.092C301.237 147.563 284.814 164.44 265.87 164.44C246.927 164.44 230.503 147.563 230.503 126.092Z" fill="black"/>
<path d="M420.691 87.7445C405.352 87.7445 392.917 100.743 392.917 116.082V201.66H366.976V66.3149H392.917V78.7133C400.518 68.8876 411.716 62.3674 426.33 62.3674C444.507 62.3674 458.458 71.3957 466.538 85.2126C475.523 71.8667 490.179 62.3674 507.819 62.3674C537.344 62.3674 555.721 86.188 555.895 115.659C555.895 115.748 555.895 115.837 555.895 115.927V115.932V115.936V115.941C555.895 115.988 555.895 116.035 555.895 116.082V201.66H529.954V116.082C529.954 100.743 517.519 87.7445 502.18 87.7445C486.84 87.7445 474.406 100.743 474.406 116.082V201.66H448.465V116.082C448.465 100.743 436.03 87.7445 420.691 87.7445Z" fill="black"/>
<path fill-rule="evenodd" clip-rule="evenodd" d="M694.059 81.6575C682.518 69.7409 666.713 62.3674 648.38 62.3674C609.788 62.3674 582.4 95.0423 582.4 133.987C582.4 172.932 609.788 205.607 648.38 205.607C666.713 205.607 682.518 198.234 694.059 186.317V201.66H720V66.3149H694.059V81.6575ZM608.341 133.987C608.341 108.15 628.124 87.7445 651.2 87.7445C674.275 87.7445 694.059 108.15 694.059 133.987C694.059 159.825 674.275 180.23 651.2 180.23C628.124 180.23 608.341 159.825 608.341 133.987Z" fill="black"/>
</svg>
