<svg width="172" height="247" viewBox="0 0 172 247" fill="none" xmlns="http://www.w3.org/2000/svg">
<g clip-path="url(#clip0_829_17678)">
<path d="M164 46.4999C164 67.7629 146.763 84.9999 125.5 84.9999H86V8H125.5C146.763 8 164 25.237 164 46.4999Z" stroke="white" stroke-width="15.081"/>
<path d="M8 46.4999C8 67.7629 25.237 84.9999 46.5 84.9999H86V8H46.5C25.237 8 8 25.237 8 46.4999Z" stroke="white" stroke-width="15.081"/>
<path d="M8 123.501C8 144.764 25.237 162.001 46.5 162.001H86V85.001H46.5C25.237 85.001 8 102.238 8 123.501Z" stroke="white" stroke-width="15.081"/>
<path d="M8 200.5C8 221.763 25.4854 239 46.7484 239C68.2875 239 86 221.539 86 200V162H46.5C25.237 162 8 179.237 8 200.5Z" stroke="white" stroke-width="15.081"/>
<path d="M86 123.501C86 144.764 103.237 162.001 124.5 162.001H125.5C146.763 162.001 164 144.764 164 123.501C164 102.238 146.763 85.001 125.5 85.001H124.5C103.237 85.001 86 102.238 86 123.501Z" stroke="white" stroke-width="15.081"/>
</g>
<defs>
<clipPath id="clip0_829_17678">
<rect width="172" height="247" fill="white"/>
</clipPath>
</defs>
</svg>
