<?xml version="1.0" encoding="UTF-8"?>
<svg width="165px" height="34px" viewBox="0 0 165 34" version="1.1" xmlns="http://www.w3.org/2000/svg" xmlns:xlink="http://www.w3.org/1999/xlink">
    <!-- Generator: Sketch 59.1 (86144) - https://sketch.com -->
    <title>govuk-black-logo</title>
    <desc>Created with Sketch.</desc>
    <g id="Page-1" stroke="none" stroke-width="1" fill="none" fill-rule="evenodd">
        <g id="govuk-black-logo" fill="#000000" fill-rule="nonzero">
            <g id="govuk-ar21">
                <path d="M41.3697993,9.77370349 C42.6723502,9.81201381 43.7067289,10.8847028 43.7067289,12.1872537 C43.7067289,13.4898046 42.6340399,14.5624936 41.331489,14.5241833 C40.0289381,14.485873 38.9945594,13.413184 38.9945594,12.1106331 C38.9945594,10.8080822 40.0672484,9.77370349 41.3697993,9.77370349 Z M35.9297337,6.63225717 C37.2322846,6.63225717 38.3049736,7.66663584 38.3049736,8.96918675 C38.3049736,10.2717377 37.270595,11.3444267 35.9297337,11.3444267 C34.5888725,11.3444267 33.5544938,10.310048 33.5544938,9.00749707 C33.5928041,7.70494616 34.6271828,6.63225717 35.9297337,6.63225717 Z M29.9533236,8.54777322 C31.2558746,8.54777322 32.3285636,9.62046221 32.3285636,10.9230131 C32.3285636,12.225564 31.2558746,13.298253 29.9533236,13.298253 C28.6507727,13.298253 27.5780837,12.225564 27.5780837,10.9230131 C27.5780837,9.58215189 28.6507727,8.5094629 29.9533236,8.54777322 Z M18.7283996,6.3257746 L18.7283996,4.10377598 C19.2647441,4.25701727 19.7627783,4.41025855 20.2225021,4.56349984 C20.6056053,4.6784308 20.9887085,4.83167208 21.3718117,4.90829272 C21.525053,4.94660305 21.754915,4.94660305 21.8315356,4.8699824 C21.9081562,4.75505144 21.9464666,4.52518951 21.9081562,4.37194823 C21.6016737,3.29925924 21.2568808,2.26488058 20.9120879,1.19219159 C20.8737776,1.11557095 20.8737776,1.0389503 20.8354673,0.92401934 L25.1262232,0.92401934 C24.74312,2.07332897 24.3983271,3.18432828 24.0535342,4.29532759 C24.0152239,4.44856887 23.9769136,4.75505144 24.0918445,4.83167208 C24.1684652,4.94660305 24.4749477,4.94660305 24.628189,4.8699824 C25.4710161,4.64012048 26.3138432,4.37194823 27.1949805,4.06546566 L27.1949805,8.47115258 C26.1989122,7.93480808 25.2411542,7.43677391 24.0918445,6.8621191 C24.0535342,7.16860166 23.9769136,7.43677391 24.0535342,7.62832552 L25.5859471,12.340495 C26.1222915,13.9878388 25.2411542,15.558562 23.5938104,15.9799755 C21.5633634,16.51632 19.6478473,14.6391143 20.2225021,12.6086672 C20.682226,10.9230131 21.2951911,9.31397964 21.8315356,7.62832552 C21.9081562,7.43677391 21.8315356,7.16860166 21.7932253,6.8621191 C20.682226,7.43677391 19.7244679,7.93480808 18.6900893,8.5094629 C18.7283996,7.74325648 18.7283996,7.0536707 18.7283996,6.3257746 L18.7283996,6.3257746 Z M16.0466771,8.54777322 C17.349228,8.54777322 18.421917,9.62046221 18.421917,10.9230131 C18.421917,12.225564 17.3109177,13.298253 16.0466771,13.298253 C14.7441262,13.298253 13.6714372,12.225564 13.6714372,10.9230131 C13.6714372,9.58215189 14.7441262,8.54777322 16.0466771,8.54777322 L16.0466771,8.54777322 Z M10.0319567,6.63225717 C11.3345076,6.63225717 12.4071966,7.66663584 12.4071966,9.00749707 C12.4071966,10.310048 11.372818,11.382737 10.0319567,11.382737 C8.72940582,11.382737 7.65671683,10.310048 7.65671683,9.00749707 C7.65671683,7.70494616 8.72940582,6.67056749 10.0319567,6.63225717 Z M8.57616453,26.9750376 C7.73333747,26.5536241 7.08206125,25.9789693 6.0859929,25.9789693 C6.85219932,27.5113821 7.65671683,28.8905537 9.26575031,29.5801394 C11.0280251,30.3080355 12.7902998,28.9671743 12.5604379,27.1665892 C12.445507,26.4770034 12.0240934,25.8640383 11.4494386,25.7491073 C10.9514044,25.6341764 10.4533703,25.9023486 10.0319567,26.5919344 C9.99364641,26.6685551 9.91702577,26.7451757 9.84040512,26.898417 C9.45730191,26.0172796 9.18912967,25.2127629 9.68716384,24.4082461 C10.2618187,23.4887984 11.1812664,23.5654191 12.2922657,23.8335913 C10.0702671,21.5732824 9.76378448,19.2746631 11.7176109,16.8228026 C12.7519895,17.6656296 13.6331269,18.546767 13.9396095,19.8493179 C14.246092,21.1518688 13.7863682,22.3394888 13.3649547,23.6420397 C14.246092,23.0290746 15.0889191,22.5693507 16.0083668,23.3355571 C16.6213319,23.8335913 16.7745732,24.86797 16.3531597,25.940659 C16.1999184,25.7491073 16.0466771,25.5575557 15.8934358,25.4043145 C15.2421604,24.8296596 14.475954,25.0212112 14.0928508,25.7874177 C13.6714372,26.6685551 13.9396095,27.7029337 14.7824365,28.3925195 C15.7785049,29.2353466 17.0044352,29.4652085 18.2686757,29.4268982 C18.5751583,29.4268982 18.8433306,29.3885878 19.1498131,29.3119672 C21.0653292,28.928864 22.0230872,27.7795544 22.1763285,25.7874177 C22.2146388,25.4426248 22.2146388,25.0978319 22.2529491,24.6764184 C20.567295,24.7913493 19.609537,25.940659 18.5751583,27.1282789 C18.421917,25.2893835 18.2686757,23.5654191 18.1154345,21.8031443 C18.7667099,22.2245578 19.3413647,22.6842817 20.0309505,22.9907642 C20.682226,23.2589365 21.4484324,23.3738674 22.1763285,23.4504881 C21.639984,21.9180752 20.6439156,20.8070759 19.6478473,19.5428353 L26.4287741,19.5428353 C25.9307399,20.1941108 25.4327058,20.7687656 25.0112922,21.4200411 C24.5898787,22.0330062 24.2067755,22.6842817 23.7470516,23.4121778 C25.4710161,23.4504881 26.773567,22.837523 27.961187,21.649903 C27.8079457,23.5654191 27.6547044,25.2893835 27.5014631,27.1282789 C26.4670844,25.940659 25.5093264,24.7913493 23.8619826,24.6764184 C23.7470516,28.0860369 25.3177748,29.5035188 28.4592211,29.4268982 C29.3403585,29.3885878 30.1831856,29.1587259 30.949392,28.6606917 C31.7539087,28.1243473 32.2519429,27.3964512 32.1370119,26.4003828 C32.0603913,25.825728 31.8688397,25.3276938 31.2941849,25.1361422 C30.7195301,24.9062803 30.2981165,25.2510732 29.9533236,25.6724867 C29.9150133,25.7491073 29.8383927,25.7874177 29.761772,25.8640383 C29.3020482,25.0978319 29.4552895,23.8719016 30.0682546,23.3355571 C30.7195301,22.722592 31.6006675,22.837523 32.8265977,23.7569707 C31.6006675,20.9603172 31.8688397,18.6233876 34.3973209,16.8611129 C35.9297337,18.7766289 36.5043885,21.0369379 33.8609764,23.8719016 C34.8570447,23.6037294 35.7764924,23.5271087 36.3894576,24.4465564 C36.9258021,25.2510732 36.6576298,26.0939002 36.2745266,26.9750376 C36.082975,26.7451757 35.968044,26.5153138 35.8148028,26.3620725 C35.1635273,25.5958661 34.2823899,25.6724867 33.7843557,26.5536241 C33.3629422,27.2815202 33.4395629,28.3158989 33.937597,29.0054846 C34.5122518,29.7716911 35.5466305,30.1164839 36.5043885,29.8483117 C37.3855259,29.5801394 38.0751117,29.043795 38.6114562,28.3158989 C39.1094904,27.6646234 39.5309039,26.9367273 39.9523174,26.2088312 C38.9945594,26.1322106 38.3049736,26.6685551 37.5004569,27.1665892 C38.0368014,25.4426248 38.4965252,23.795281 38.9945594,22.1479372 C39.4542833,23.0673849 39.8756968,23.9868326 40.2971103,24.86797 L40.4886619,24.7913493 C40.9483858,23.7186603 40.6419032,22.607661 40.4886619,21.4583514 C41.5613509,21.8414546 42.5957296,22.2245578 43.6684186,22.5693507 C43.5534876,22.722592 43.5151773,22.837523 43.4385566,22.9524539 C41.4464199,25.7874177 40.2971103,29.0054846 39.3776626,32.3001722 C39.2627317,32.6832754 39.1478007,33.0663787 39.07118,33.4494819 C39.0328697,33.8708954 38.8030078,33.9092057 38.4199046,33.8708954 C32.7116668,33.0663787 27.0034289,32.7598961 21.2185705,32.8748271 C16.6979526,32.9514477 12.1773347,33.2196199 7.65671683,33.8708954 C7.23530253,33.947516 7.04375093,33.8708954 6.92881996,33.4111715 C6.20092386,30.3846562 5.24316584,27.4347615 3.67244268,24.7147287 C3.28933947,24.0251429 2.82961562,23.3355571 2.36989176,22.5693507 C3.40427043,22.1862475 4.4386491,21.8414546 5.54964841,21.4200411 C5.39640712,22.5693507 5.12823488,23.68035 5.58795873,24.8296596 C6.31585483,24.0251429 6.66064772,23.0673849 7.04375093,22.1096269 C7.54178586,23.6037294 8.03982004,25.2510732 8.57616453,26.9750376 L8.57616453,26.9750376 Z M4.66851102,9.77370349 C5.97106194,9.77370349 7.0054406,10.8463925 7.0054406,12.1489434 C7.0054406,13.4514943 5.93275162,14.5241833 4.6302007,14.5241833 C3.32764979,14.5241833 2.2549608,13.4514943 2.2549608,12.1489434 C2.29327112,10.8463925 3.36596011,9.77370349 4.66851102,9.77370349 L4.66851102,9.77370349 Z M0.684237639,18.1253535 C0.684237639,16.8228026 1.75692663,15.7501136 3.05947754,15.7501136 C4.36202846,15.7501136 5.43471744,16.7844922 5.43471744,18.1253535 C5.43471744,19.4279044 4.40033878,20.4622831 3.05947754,20.4622831 C1.75692663,20.5005934 0.684237639,19.4279044 0.684237639,18.1253535 Z M42.9405225,20.5005934 C41.5996612,20.5005934 40.5652826,19.504525 40.5652826,18.1636638 C40.5652826,16.8228026 41.5996612,15.7884239 42.9022121,15.7884239 C44.2430734,15.7884239 45.277452,16.8228026 45.3157624,18.1253535 C45.3157624,19.4279044 44.2430734,20.5005934 42.9405225,20.5005934 L42.9405225,20.5005934 Z" id="path4"></path>
            </g>
            <path d="M74,30.5703647 L70.2423484,30.5703647 C70.2423484,29.9500819 70.1407903,29.2264185 70.1407903,28.3993747 C67.9065089,30.6737452 65.3675552,31.2940281 62.523927,30.8805062 C58.0553683,30.1568428 54.9070657,26.8486675 54.1961586,22.0931654 C53.789926,19.405273 53.9930423,16.820761 55.0086238,14.236249 C56.7351124,10.4111713 59.6802988,8.3435617 63.7426248,8.03342026 C68.2111834,7.72327882 71.6641625,9.58412745 73.5937674,13.0990637 C72.2735114,13.8227271 71.0548136,14.5463905 69.937674,15.1666733 C69.0236506,14.236249 68.3127436,13.3058247 67.29716,12.6855418 C64.55509,11.0314542 61.0005547,12.0652589 59.5787406,14.9599124 C58.1569265,17.9579463 58.1569265,21.0593606 59.5787406,23.9540141 C61.0005547,26.745287 64.3519737,27.7790918 67.0940437,26.4351456 C68.7189762,25.6081017 69.5314414,24.2641555 69.5314414,21.989785 L64.0472992,21.989785 L64.0472992,18.3714682 L73.8984418,18.3714682 C74,22.4033069 74,26.4351456 74,30.5703647 L74,30.5703647 Z" id="path4-path"></path>
            <path d="M97.9988686,20.6807694 C97.8980188,23.8514215 96.4861224,27.6357482 92.5529824,29.6813302 C88.8215419,31.6246331 85.0901014,31.4200749 81.5603603,29.0676556 C78.4340183,26.9197945 77.2238213,23.7491424 77.0221219,20.0670948 C76.7195726,14.7485817 79.5433654,10.1460222 84.0816039,8.61183572 C91.4436352,6.15713734 98.0997183,11.2710923 97.9988686,20.6807694 Z M81.387308,16.7371781 C80.83893,18.7897425 80.83893,20.8423069 81.6066591,22.8948712 C82.4840638,25.4605767 84.6775755,27 87.419465,27 C90.2710302,27 92.3548663,25.5632049 93.3419465,22.9974995 C93.6709733,21.9712173 93.7806489,20.8423069 94,19.7133965 L93.8903244,19.7133965 C93.8903244,18.9949989 93.8903244,18.3792296 93.7806489,17.7634603 C93.3419465,14.4793573 91.0387593,12.2215365 87.9678429,12.0162801 C84.787251,11.8110236 82.2647126,13.5557033 81.387308,16.7371781 Z" id="Combined-Shape"></path>
            <path d="M106.060109,31 C105.748634,31 105.229508,30.6826776 105.229508,30.3653551 C103.153005,22.961165 101.076503,15.6627491 99,8.04701073 C100.557377,8.04701073 102.010929,7.94123659 103.464481,8.04701073 C103.775956,8.04701073 104.295082,8.6816556 104.398907,9.10475217 C105.748634,14.0761369 106.994536,19.0475217 108.240437,24.0189065 C108.344262,24.2304548 108.344262,24.5477772 108.759563,24.8650996 C110.10929,19.3648441 111.562842,13.7588145 112.912568,8.15278487 L118,8.15278487 C115.819672,15.8742974 113.743169,23.3842616 111.666667,31 L106.060109,31 Z" id="path4-path"></path>
            <path d="M120.051542,31 C118.307804,31 117,29.6328761 117,27.9502621 C117,26.2676481 118.416787,24.9005242 120.051542,25.0056876 C121.686297,25.0056876 123.103084,26.4779748 122.994101,28.0554255 C122.994101,29.6328761 121.686297,31 120.051542,31 Z" id="path4-path"></path>
            <path d="M143,10.4245202 L143,22.1254655 C143,27.2907476 140.172511,30.6639931 135.325386,30.9802349 C133.406732,31.0856488 131.387097,30.769407 129.569425,30.0315096 C126.943899,28.9773704 125.227209,26.763678 125.126227,23.7066743 C124.924264,18.8576339 125.025245,13.9031796 125.025245,9.05413922 C125.025245,8.73789745 125.025245,8.42165569 125.126227,8 L129.569425,8 L129.569425,22.1254655 C129.569425,25.9203667 132.295933,27.9232312 135.729313,26.763678 C137.546985,26.1311945 138.556802,24.5499857 138.556802,22.2308794 L138.556802,8 L143,8 L143,10.4245202 Z" id="path4-path"></path>
            <path d="M160.4,30.8946185 C160,30.8946185 159.6,30.3677111 159.4,30.0515667 C157.7,26.9955038 156,24.0448223 154.2,20.7779964 C152.9,22.4641001 151,23.5179149 151.4,26.1524519 C151.6,27.7331741 151.4,29.3138963 151.4,30.8946185 L147,30.8946185 L147,8.13221884 L151.3,8.13221884 L151.3,17.5111706 L151.6,17.616552 C153.3,15.5089224 155.2,13.5066743 156.6,11.1882818 C158.2,8.65912624 160.1,7.60531144 162.9,8.13221884 C163.3,8.23760032 163.8,8.13221884 164.5,8.13221884 C162.4,10.6613744 160.5,12.9797669 158.5,15.2981595 C156.9,17.1950261 156.9,17.1950261 158.2,19.4080372 C160.4,23.2017705 162.6,26.9955038 165,31 L160.4,30.8946185 Z" id="path4-path"></path>
        </g>
    </g>
</svg>