<svg width="165" height="34" viewBox="0 0 165 34" fill="none" xmlns="http://www.w3.org/2000/svg">
<g clip-path="url(#clip0_798_17617)">
<path d="M41.3701 9.77376C42.6727 9.81207 43.7071 10.8848 43.7071 12.1873C43.7071 13.4899 42.6344 14.5625 41.3318 14.5242C40.0293 14.4859 38.9949 13.4132 38.9949 12.1107C38.9949 10.8081 40.0676 9.77376 41.3701 9.77376ZM35.9301 6.63231C37.2326 6.63231 38.3053 7.66669 38.3053 8.96924C38.3053 10.2718 37.2709 11.3445 35.9301 11.3445C34.5892 11.3445 33.5548 10.3101 33.5548 9.00755C33.5931 7.705 34.6275 6.63231 35.9301 6.63231ZM29.9537 8.54783C31.2562 8.54783 32.3289 9.62051 32.3289 10.9231C32.3289 12.2256 31.2562 13.2983 29.9537 13.2983C28.6511 13.2983 27.5784 12.2256 27.5784 10.9231C27.5784 9.5822 28.6511 8.50952 29.9537 8.54783ZM18.7287 6.32583V4.10383C19.2651 4.25707 19.7631 4.41031 20.2228 4.56355C20.6059 4.67848 20.989 4.83173 21.3721 4.90835C21.5254 4.94666 21.7552 4.94666 21.8319 4.87004C21.9085 4.7551 21.9468 4.52524 21.9085 4.372C21.602 3.29931 21.2572 2.26493 20.9124 1.19224C20.8741 1.11562 20.8741 1.039 20.8358 0.924072H25.1266C24.7435 2.07338 24.3987 3.18438 24.0539 4.29538C24.0156 4.44862 23.9772 4.7551 24.0922 4.83173C24.1688 4.94666 24.4753 4.94666 24.6285 4.87004C25.4713 4.64017 26.3142 4.372 27.1953 4.06552V8.47121C26.1992 7.93486 25.2415 7.43683 24.0922 6.86217C24.0539 7.16865 23.9772 7.43683 24.0539 7.62838L25.5863 12.3405C26.1226 13.9879 25.2415 15.5586 23.5941 15.98C21.5637 16.5164 19.6482 14.6392 20.2228 12.6087C20.6826 10.9231 21.2955 9.31403 21.8319 7.62838C21.9085 7.43683 21.8319 7.16865 21.7936 6.86217C20.6826 7.43683 19.7248 7.93486 18.6904 8.50952C18.7287 7.74331 18.7287 7.05372 18.7287 6.32583ZM16.047 8.54783C17.3496 8.54783 18.4222 9.62051 18.4222 10.9231C18.4222 12.2256 17.3113 13.2983 16.047 13.2983C14.7445 13.2983 13.6718 12.2256 13.6718 10.9231C13.6718 9.5822 14.7445 8.54783 16.047 8.54783ZM10.0323 6.63231C11.3348 6.63231 12.4075 7.66669 12.4075 9.00755C12.4075 10.3101 11.3732 11.3828 10.0323 11.3828C8.72974 11.3828 7.65705 10.3101 7.65705 9.00755C7.65705 7.705 8.72974 6.67062 10.0323 6.63231ZM8.5765 26.9751C7.73367 26.5537 7.08239 25.979 6.08633 25.979C6.85253 27.5114 7.65705 28.8906 9.26608 29.5802C11.0284 30.3081 12.7906 28.9672 12.5608 27.1666C12.4458 26.4771 12.0244 25.8641 11.4498 25.7492C10.9517 25.6342 10.4537 25.9024 10.0323 26.592C9.99398 26.6686 9.91736 26.7452 9.84074 26.8985C9.45764 26.0173 9.18946 25.2128 9.6875 24.4083C10.2622 23.4889 11.1816 23.5655 12.2926 23.8336C10.0706 21.5733 9.76412 19.2747 11.7179 16.8229C12.7523 17.6657 13.6335 18.5468 13.9399 19.8494C14.2464 21.1519 13.7867 22.3395 13.3653 23.6421C14.2464 23.0291 15.0893 22.5694 16.0087 23.3356C16.6217 23.8336 16.7749 24.868 16.3535 25.9407C16.2003 25.7492 16.047 25.5576 15.8938 25.4044C15.2425 24.8297 14.4763 25.0213 14.0932 25.7875C13.6718 26.6686 13.9399 27.703 14.7828 28.3926C15.7788 29.2354 17.0048 29.4653 18.269 29.427C18.5755 29.427 18.8437 29.3886 19.1501 29.312C21.0657 28.9289 22.0234 27.7796 22.1767 25.7875C22.215 25.4427 22.215 25.0979 22.2533 24.6765C20.5676 24.7914 19.6099 25.9407 18.5755 27.1283C18.4222 25.2894 18.269 23.5655 18.1158 21.8032C18.767 22.2246 19.3417 22.6843 20.0313 22.9908C20.6826 23.259 21.4488 23.3739 22.1767 23.4505C21.6403 21.9181 20.6442 20.8071 19.6482 19.5429H26.4291C25.9311 20.1942 25.433 20.7688 25.0116 21.4201C24.5902 22.0331 24.2071 22.6843 23.7474 23.4122C25.4713 23.4505 26.7739 22.8376 27.9615 21.65C27.8083 23.5655 27.655 25.2894 27.5018 27.1283C26.4674 25.9407 25.5097 24.7914 23.8623 24.6765C23.7474 28.0861 25.3181 29.5036 28.4596 29.427C29.3407 29.3886 30.1835 29.1588 30.9497 28.6607C31.7542 28.1244 32.2523 27.3965 32.1373 26.4004C32.0607 25.8258 31.8692 25.3277 31.2945 25.1362C30.7199 24.9063 30.2984 25.2511 29.9537 25.6725C29.9153 25.7492 29.8387 25.7875 29.7621 25.8641C29.3024 25.0979 29.4556 23.872 30.0686 23.3356C30.7199 22.7226 31.601 22.8376 32.8269 23.757C31.601 20.9604 31.8692 18.6234 34.3977 16.8612C35.9301 18.7767 36.5047 21.037 33.8613 23.872C34.8574 23.6038 35.7768 23.5272 36.3898 24.4466C36.9261 25.2511 36.658 26.094 36.2749 26.9751C36.0833 26.7452 35.9684 26.5154 35.8151 26.3621C35.1639 25.5959 34.2827 25.6725 33.7847 26.5537C33.3633 27.2816 33.4399 28.316 33.9379 29.0055C34.5126 29.7717 35.547 30.1165 36.5047 29.8484C37.3859 29.5802 38.0754 29.0438 38.6118 28.316C39.1098 27.6647 39.5312 26.9368 39.9526 26.2089C38.9949 26.1323 38.3053 26.6686 37.5008 27.1666C38.0371 25.4427 38.4969 23.7953 38.9949 22.148C39.4546 23.0674 39.876 23.9869 40.2974 24.868L40.489 24.7914C40.9487 23.7187 40.6422 22.6077 40.489 21.4584C41.5617 21.8415 42.5961 22.2246 43.6688 22.5694C43.5538 22.7226 43.5155 22.8376 43.4389 22.9525C41.4468 25.7875 40.2974 29.0055 39.378 32.3002C39.2631 32.6833 39.1481 33.0664 39.0715 33.4495C39.0332 33.8709 38.8033 33.9093 38.4202 33.8709C32.712 33.0664 27.0038 32.76 21.2189 32.8749C16.6983 32.9515 12.1777 33.2197 7.65705 33.8709C7.23564 33.9476 7.04408 33.8709 6.92915 33.4112C6.20126 30.3847 5.2435 27.4348 3.67278 24.7148C3.28967 24.0252 2.82995 23.3356 2.37022 22.5694C3.4046 22.1863 4.43898 21.8415 5.54998 21.4201C5.39674 22.5694 5.12857 23.6804 5.58829 24.8297C6.31619 24.0252 6.66098 23.0674 7.04408 22.1097C7.54212 23.6038 8.04015 25.2511 8.5765 26.9751ZM4.66884 9.77376C5.97139 9.77376 7.00577 10.8464 7.00577 12.149C7.00577 13.4515 5.93308 14.5242 4.63053 14.5242C3.32798 14.5242 2.25529 13.4515 2.25529 12.149C2.2936 10.8464 3.36629 9.77376 4.66884 9.77376ZM0.68457 18.1254C0.68457 16.8229 1.75726 15.7502 3.05981 15.7502C4.36236 15.7502 5.43505 16.7845 5.43505 18.1254C5.43505 19.428 4.40067 20.4623 3.05981 20.4623C1.75726 20.5006 0.68457 19.428 0.68457 18.1254ZM42.9409 20.5006C41.6 20.5006 40.5656 19.5046 40.5656 18.1637C40.5656 16.8229 41.6 15.7885 42.9025 15.7885C44.2434 15.7885 45.2778 16.8229 45.3161 18.1254C45.3161 19.428 44.2434 20.5006 42.9409 20.5006Z" fill="white"/>
<path d="M74 30.5704H70.2423C70.2423 29.9501 70.1408 29.2264 70.1408 28.3994C67.9065 30.6737 65.3676 31.294 62.5239 30.8805C58.0554 30.1568 54.9071 26.8487 54.1962 22.0932C53.7899 19.4053 53.993 16.8208 55.0086 14.2362C56.7351 10.4112 59.6803 8.34356 63.7426 8.03342C68.2112 7.72328 71.6642 9.58413 73.5938 13.0991C72.2735 13.8227 71.0548 14.5464 69.9377 15.1667C69.0237 14.2362 68.3127 13.3058 67.2972 12.6855C64.5551 11.0315 61.0006 12.0653 59.5787 14.9599C58.1569 17.9579 58.1569 21.0594 59.5787 23.954C61.0006 26.7453 64.352 27.7791 67.094 26.4351C68.719 25.6081 69.5314 24.2642 69.5314 21.9898H64.0473V18.3715H73.8984C74 22.4033 74 26.4351 74 30.5704Z" fill="white"/>
<path d="M97.9989 20.6808C97.898 23.8514 96.4861 27.6357 92.553 29.6813C88.8215 31.6246 85.0901 31.4201 81.5604 29.0677C78.434 26.9198 77.2238 23.7491 77.0221 20.0671C76.7196 14.7486 79.5434 10.146 84.0816 8.61184C91.4436 6.15714 98.0997 11.2711 97.9989 20.6808ZM81.3873 16.7372C80.8389 18.7897 80.8389 20.8423 81.6067 22.8949C82.4841 25.4606 84.6776 27 87.4195 27C90.271 27 92.3549 25.5632 93.3419 22.9975C93.671 21.9712 93.7806 20.8423 94 19.7134H93.8903C93.8903 18.995 93.8903 18.3792 93.7806 17.7635C93.3419 14.4794 91.0388 12.2215 87.9678 12.0163C84.7872 11.811 82.2647 13.5557 81.3873 16.7372Z" fill="white"/>
<path d="M106.06 31C105.749 31 105.23 30.6827 105.23 30.3654C103.153 22.9612 101.077 15.6627 99 8.04701C100.557 8.04701 102.011 7.94124 103.464 8.04701C103.776 8.04701 104.295 8.68166 104.399 9.10475C105.749 14.0761 106.995 19.0475 108.24 24.0189C108.344 24.2305 108.344 24.5478 108.76 24.8651C110.109 19.3648 111.563 13.7588 112.913 8.15279H118C115.82 15.8743 113.743 23.3843 111.667 31H106.06Z" fill="white"/>
<path d="M120.052 31C118.308 31 117 29.6329 117 27.9503C117 26.2676 118.417 24.9005 120.052 25.0057C121.686 25.0057 123.103 26.478 122.994 28.0554C122.994 29.6329 121.686 31 120.052 31Z" fill="white"/>
<path d="M143 10.4245V22.1255C143 27.2907 140.173 30.664 135.325 30.9802C133.407 31.0856 131.387 30.7694 129.569 30.0315C126.944 28.9774 125.227 26.7637 125.126 23.7067C124.924 18.8576 125.025 13.9032 125.025 9.05414C125.025 8.7379 125.025 8.42166 125.126 8H129.569V22.1255C129.569 25.9204 132.296 27.9232 135.729 26.7637C137.547 26.1312 138.557 24.55 138.557 22.2309V8H143V10.4245Z" fill="white"/>
<path d="M160.4 30.8946C160 30.8946 159.6 30.3677 159.4 30.0516C157.7 26.9955 156 24.0448 154.2 20.778C152.9 22.4641 151 23.5179 151.4 26.1525C151.6 27.7332 151.4 29.3139 151.4 30.8946H147V8.13222H151.3V17.5112L151.6 17.6166C153.3 15.5089 155.2 13.5067 156.6 11.1883C158.2 8.65913 160.1 7.60531 162.9 8.13222C163.3 8.2376 163.8 8.13222 164.5 8.13222C162.4 10.6614 160.5 12.9798 158.5 15.2982C156.9 17.195 156.9 17.195 158.2 19.408C160.4 23.2018 162.6 26.9955 165 31L160.4 30.8946Z" fill="white"/>
</g>
<defs>
<clipPath id="clip0_798_17617">
<rect width="165" height="34" fill="white"/>
</clipPath>
</defs>
</svg>
