<svg width="539" height="77" viewBox="0 0 539 77" fill="none" xmlns="http://www.w3.org/2000/svg">
<g clip-path="url(#clip0)">
<path d="M42.838 11.0001V29.6851H19.6963V1.43164H9.58585H8.31268C3.81914 1.43164 0.149414 5.12342 0.149414 9.64397V11.7536V75.2673H19.6963V43.6234H42.838V75.2673H62.3849V1.43164H51.8251H51.0013C46.5078 1.43164 42.838 5.12342 42.838 9.64397V11.0001Z" fill="#62BB46" stroke="#62BB46" stroke-width="0.4755"/>
<path d="M206.703 1.43164H222.954V75.2673H205.879L205.954 32.3221L206.029 32.3974L191.5 75.2673H173.525L160.045 32.5481V32.6234L159.97 75.2673H143.119V11.0001V9.64397C143.119 5.34945 146.34 1.8837 150.533 1.43164H152.181H167.609L183.187 48.37H183.411L197.566 7.83575L197.94 6.70561C199.139 3.61657 202.059 1.43164 205.579 1.43164H206.703Z" fill="#62BB46" stroke="#62BB46" stroke-width="0.4755"/>
<path d="M239.58 1.43164H280.921V15.37H248.717V30.5892H279.123V44.5275H248.717V61.2536H282.044V75.1919H229.17V12.0549V9.64397C229.17 5.12342 232.84 1.43164 237.333 1.43164H239.58Z" fill="#62BB46" stroke="#62BB46" stroke-width="0.4755"/>
<path d="M496.311 1.43164H537.651V15.37H505.448V30.5892H535.854V44.5275H505.522V61.2536H538.85V75.1919H485.976V12.0549V9.64397C485.976 5.12342 489.645 1.43164 494.139 1.43164H496.311Z" fill="#62BB46" stroke="#62BB46" stroke-width="0.4755"/>
<path d="M307.807 44.0001H313.798C320.538 44.0001 328.177 44.7536 328.177 52.8152C328.177 60.3494 320.688 61.4042 313.573 61.4042H307.807V44.0001ZM288.26 12.2056V75.2673H319.19C332.296 75.2673 347.799 71.5755 347.799 53.87C347.799 44.9042 342.781 39.5549 332.97 37.596V37.37C341.134 34.6577 345.927 29.459 345.927 20.1166C345.927 7.45904 335.742 1.43164 322.036 1.43164H300.018H296.498C292.004 1.43164 288.335 5.12342 288.335 9.64397L288.26 12.2056ZM307.807 15.4453H313.498C320.014 15.4453 326.305 16.0481 326.305 22.8289C326.305 29.0823 319.715 30.6645 313.274 30.6645H307.807V15.4453Z" fill="#62BB46" stroke="#62BB46" stroke-width="0.4755"/>
<path d="M396.929 1.43164H380.527H378.505C374.835 1.43164 371.765 3.8426 370.716 7.23301L370.267 8.36315L345.028 75.2673H364.875L370.716 59.5207H398.277L403.744 75.2673H425.163L396.929 1.43164ZM375.285 45.5823L384.721 16.7262H384.946L393.708 45.5823H375.285Z" fill="#62BB46" stroke="#62BB46" stroke-width="0.4755"/>
<path d="M430.107 57.1095C435.124 59.8218 442.164 62.0067 450.327 62.0067C456.544 62.0067 462.385 60.7259 462.385 54.8492C462.385 41.1369 427.71 49.8013 427.71 22.904C427.71 5.12319 444.935 0.30127 459.689 0.30127C466.729 0.30127 473.694 1.35606 478.637 3.08894L477.364 18.3081C472.346 15.9725 466.654 14.9177 461.037 14.9177C456.094 14.9177 447.931 15.3698 447.931 21.7739C447.931 33.7533 482.606 25.6917 482.606 52.3629C482.606 71.4999 466.654 76.6985 450.327 76.6985C443.512 76.6985 434.975 75.6437 428.459 73.5341L430.107 57.1095Z" fill="#62BB46" stroke="#62BB46" stroke-width="0.4755"/>
<path d="M102.677 77.0753C123.482 77.0753 140.348 60.1081 140.348 39.178C140.348 18.2479 123.482 1.28076 102.677 1.28076C81.8717 1.28076 65.0059 18.2479 65.0059 39.178C65.0059 60.1081 81.8717 77.0753 102.677 77.0753Z" fill="#F58220"/>
</g>
<defs>
<clipPath id="clip0">
<rect width="539" height="77" fill="white"/>
</clipPath>
</defs>
</svg>
