<svg width="1211" height="173" viewBox="0 0 1211 173" fill="none" xmlns="http://www.w3.org/2000/svg">
<g clip-path="url(#clip0)">
<path d="M96.2487 24.7144V66.6948H44.2549V3.21631H21.5392H18.6787C8.58286 3.21631 0.337891 11.5108 0.337891 21.6674V26.4071V169.107H44.2549V98.0108H96.2487V169.107H140.166V3.21631H116.44H114.59C104.494 3.21631 96.2487 11.5108 96.2487 21.6674V24.7144Z" fill="black" stroke="black" stroke-width="0.4755"/>
<path d="M464.411 3.21631H500.925V169.107H462.56L462.729 72.6194L462.897 72.7887L430.254 169.107H389.87L359.582 73.1273V73.2965L359.414 169.107H321.555V24.7144V21.6674C321.555 12.0187 328.79 4.23196 338.213 3.21631H341.915H376.577L411.576 108.675H412.081L443.883 17.6048L444.724 15.0656C447.417 8.12531 453.979 3.21631 461.887 3.21631H464.411Z" fill="black" stroke="black" stroke-width="0.4755"/>
<path d="M538.281 3.21631H631.163V34.5324H558.81V68.7261H627.125V100.042H558.81V137.621H633.687V168.937H514.893V27.0842V21.6674C514.893 11.5108 523.138 3.21631 533.233 3.21631H538.281Z" fill="black" stroke="black" stroke-width="0.4755"/>
<path d="M1115.09 3.21631H1207.97V34.5324H1135.62V68.7261H1203.93V100.042H1135.79V137.621H1210.66V168.937H1091.87V27.0842V21.6674C1091.87 11.5108 1100.11 3.21631 1110.21 3.21631H1115.09Z" fill="black" stroke="black" stroke-width="0.4755"/>
<path d="M691.569 98.8572H705.031C720.174 98.8572 737.337 100.55 737.337 118.663C737.337 135.59 720.511 137.96 704.526 137.96H691.569V98.8572ZM647.652 27.4228V169.107H717.146C746.592 169.107 781.423 160.812 781.423 121.032C781.423 100.889 770.149 88.8699 748.106 84.4688V83.9609C766.447 77.867 777.216 66.187 777.216 45.1967C777.216 16.7584 754.332 3.21631 723.54 3.21631H674.07H666.161C656.066 3.21631 647.821 11.5108 647.821 21.6674L647.652 27.4228ZM691.569 34.7016H704.358C718.997 34.7016 733.131 36.0558 733.131 51.2907C733.131 65.3406 718.323 68.8954 703.853 68.8954H691.569V34.7016Z" fill="black" stroke="black" stroke-width="0.4755"/>
<path d="M891.803 3.21631H854.953H850.41C842.165 3.21631 835.266 8.63314 832.91 16.2506L831.9 18.7897L775.195 169.107H819.785L832.91 133.728H894.831L907.115 169.107H955.238L891.803 3.21631ZM843.174 102.412L864.376 37.5793H864.88L884.567 102.412H843.174Z" fill="black" stroke="black" stroke-width="0.4755"/>
<path d="M966.345 128.311C977.619 134.405 993.436 139.314 1011.78 139.314C1025.74 139.314 1038.87 136.437 1038.87 123.233C1038.87 92.4248 960.961 111.892 960.961 51.46C960.961 11.5109 999.662 0.677246 1032.81 0.677246C1048.63 0.677246 1064.28 3.04711 1075.38 6.94046L1072.52 41.1342C1061.25 35.8866 1048.46 33.5168 1035.84 33.5168C1024.73 33.5168 1006.39 34.5324 1006.39 48.9209C1006.39 75.8358 1084.3 57.7232 1084.3 117.647C1084.3 160.643 1048.46 172.323 1011.78 172.323C996.465 172.323 977.283 169.953 962.644 165.213L966.345 128.311Z" fill="black" stroke="black" stroke-width="0.4755"/>
<path d="M230.694 173.17C277.437 173.17 315.331 135.048 315.331 88.0237C315.331 40.999 277.437 2.87793 230.694 2.87793C183.95 2.87793 146.057 40.999 146.057 88.0237C146.057 135.048 183.95 173.17 230.694 173.17Z" fill="black"/>
</g>
<defs>
<clipPath id="clip0">
<rect width="1211" height="173" fill="white"/>
</clipPath>
</defs>
</svg>
