<svg width="601" height="174" viewBox="0 0 601 174" fill="none" xmlns="http://www.w3.org/2000/svg">
<path d="M542.1 171.3V50.4999L569.7 50.7V63.0999L569.6 66.7C571.1 60.4 581.3 49.5 600.1 48.2V77.2C586.4 78.1 571.3 82.0999 570.8 103V171.4L542.1 171.3Z" fill="black"/>
<path d="M218.2 173.8C183.7 173.8 155.6 145.7 155.6 111.2C155.6 76.7001 183.7 48.6001 218.2 48.6001C252.7 48.6001 280.8 76.7001 280.8 111.2C280.8 145.7 252.7 173.8 218.2 173.8ZM219.2 76.0001C199.8 76.0001 184 91.8001 184 111.2C184 130.6 199.8 146.4 219.2 146.4C238.6 146.4 254.4 130.6 254.4 111.2C254.3 91.8001 238.6 76.0001 219.2 76.0001Z" fill="black"/>
<path d="M351.8 173.9C337.3 173.7 327.5 170.6 317.5 161L317.7 160.9L317 171.5H290.7V28.5L319.3 0L319.2 61.3L319.3 61.1C326.8 53.9 338.8 48.7 352.5 48.7H352.8C384.4 48.7 411.1 77.4 411.1 111.3C411.1 127.7 404.6 143.4 392.8 155.5C381.5 167.1 366.8 173.8 352.5 173.9H351.8ZM348.4 76.1C336.9 76.1 326.1 81.7 319.5 91.2L319.2 91.6V130.9L319.5 131.3C326.1 140.8 336.9 146.4 348.4 146.4C367.8 146.4 383.6 130.6 383.6 111.2C383.5 91.8 367.8 76.1 348.4 76.1Z" fill="black"/>
<path d="M459.7 173C433.8 173 415.7 157.6 415.7 135.6C415.7 110.7 435.1 97.6 471.7 97.6H498.1V93.1C498.1 82.6 488.6 71.8 472.6 71.8C461.2 71.8 451.2 75.2 445.6 81L430.1 65.5C431.9 63.6 433.9 61.9 436 60.3C446.1 52.8 459.1 48.8 473.8 48.8C505.5 48.8 525.9 66.2 525.9 93.1V171.6H498.6V160L495.9 162.7C486.3 172.2 475.3 173 459.7 173ZM472.4 118.1C454.2 118.1 445 123.7 445 134.8C445 144.4 453.3 150.6 466 150.6C485.5 150.6 498.1 140.4 498.1 124.6V118.1H472.4Z" fill="black"/>
<path d="M29.7998 50.7H1.7998V171.5H29.7998V50.7Z" fill="black"/>
<path d="M15.6 34.5999C7 34.5999 0 27.5999 0 18.8999C0 10.2999 7 3.19995 15.6 3.19995C24.2 3.19995 31.3 10.1999 31.3 18.8999C31.3 27.5999 24.3 34.5999 15.6 34.5999Z" fill="black"/>
<path d="M56.9 137.4C68.4 146 80.1 149.8 96.6 149.8C115.4 149.8 123.9 144.2 123.9 135.9C123.9 127.2 115.6 123.4 92.8 121.4C62.9 118.7 43 110.2 43 84.8001C43 62.9001 64.2 48.6001 93.5 48.6001C113.2 48.6001 131.5 55.3001 145.8 67.1001C146 67.2001 146.1 67.4001 146.3 67.5001L129.8 84.5001C119.9 76.9001 107.2 72.7001 92.3 72.7001C77.1 72.7001 68.8 77.2001 68.8 83.9001C68.8 91.1001 75.5 94.6001 95.8 96.6001C127.1 99.7001 149.7 109.8 149.7 135.5C149.7 159.9 126.9 173.9 96.3 173.9C74.2 173.9 56.5 168.5 40.4 155.1C40.2 155 40.1 154.8 40 154.7L56.9 137.4Z" fill="black"/>
</svg>
