<svg width="576" height="142" viewBox="0 0 576 142" fill="none" xmlns="http://www.w3.org/2000/svg">
<g clip-path="url(#clip0)">
<path d="M141.174 69.0152C136.59 61.0754 131.395 53.7463 125.59 46.4173V46.1119C125.284 45.8066 124.673 44.8904 124.367 44.585C121.923 41.2259 118.867 13.1313 118.562 10.9936C118.256 8.55064 117.339 6.10763 113.978 5.49687C111.228 5.1915 106.95 4.58075 102.061 4.58075C99.9217 4.58075 98.6994 5.49687 98.0883 6.71838C97.7827 7.32913 97.4772 8.24526 97.4772 9.16139C97.4772 12.8259 97.4772 14.6582 97.4772 14.9635C97.4772 15.2689 97.1716 15.2689 97.1716 15.5743C96.866 15.8797 96.2549 15.8797 95.6437 15.5743C93.5047 13.742 81.8931 5.1915 75.4761 1.22161C75.1705 0.916229 74.865 0.916229 74.5594 0.610853C72.1148 -0.305276 69.3647 -0.610652 67.2257 0.916229C66.9201 0.916229 66.9201 1.22161 66.9201 1.22161C64.4756 2.44311 28.4183 23.2087 0.916957 68.7098C0.916957 68.7098 -0.916465 71.1528 0.611386 73.2904C1.83367 75.7334 13.7509 76.6496 15.5843 76.6496C17.7233 76.9549 17.7233 78.7872 17.7233 78.7872C18.0289 97.7205 18.3345 106.882 21.3902 138.641C21.3902 138.641 22.0013 142 25.057 142C26.2793 142 31.1684 141.695 44.3079 141.389C44.9191 141.389 45.2246 141.084 45.2246 140.473C45.2246 140.473 45.2246 140.473 45.2246 140.168C44.0024 127.342 43.6968 116.043 43.3912 115.432C43.3912 114.822 43.0857 114.211 42.4745 114.211C37.5854 111.462 34.8353 106.576 34.8353 101.08C34.5297 75.4281 36.0575 55.5786 36.0575 55.5786C36.0575 55.5786 36.0575 52.8302 38.5021 53.1356C40.9467 53.441 40.6411 56.1893 40.6411 56.1893C39.7244 67.1829 39.4188 87.3377 39.4188 87.3377C39.4188 87.3377 39.4188 91.0022 43.0857 91.0022C46.7525 91.0022 46.7525 87.3377 46.7525 87.3377C46.7525 71.7635 47.9748 56.1893 47.9748 56.1893C47.9748 56.1893 47.9748 53.441 50.4193 53.441C51.9472 53.441 52.2528 54.3571 52.5583 55.2732C52.5583 55.5786 52.5583 56.1893 52.5583 56.4947C52.2528 69.6259 51.9472 87.0324 51.9472 87.0324C51.9472 87.0324 51.9472 90.6969 55.614 90.6969C59.2809 90.6969 59.2809 86.727 59.2809 86.727C59.2809 73.9012 60.5032 55.884 60.5032 55.884C60.5032 54.3571 61.4199 53.1356 62.9477 53.1356C65.0867 53.1356 65.3923 55.2732 65.0867 55.884C64.17 69.9313 64.17 91.3076 64.17 100.469C64.4756 105.966 61.4199 111.157 56.8363 114.211C56.5307 114.516 56.2252 115.127 56.2252 115.432C56.5307 123.983 57.1419 133.45 57.753 140.168C57.753 140.473 58.0586 141.084 58.6697 141.084C62.3366 141.084 69.3647 141.084 73.6427 141.084C80.6708 141.084 83.4209 141.084 88.6156 141.084C89.2268 141.084 89.5323 140.779 89.5323 140.168C90.7546 127.953 91.3658 119.097 91.3658 118.181C91.3658 117.265 90.449 117.265 90.449 117.265C88.9212 116.959 84.9488 116.654 81.8931 116.043C78.8374 115.432 78.5318 111.768 78.5318 111.768C75.7817 73.2904 95.9493 49.4711 95.9493 49.4711C95.9493 49.4711 98.0883 46.7227 100.838 47.9442C103.283 48.8603 103.894 55.884 103.894 56.4947C106.644 88.2539 103.589 125.204 101.755 140.473C101.755 141.084 102.061 141.695 102.672 141.695C103.283 141.695 115.506 142.305 116.728 142C118.562 141.695 120.395 140.168 120.701 138.336C124.978 108.714 124.367 78.7872 124.367 78.7872C124.367 77.8711 125.284 76.9549 126.506 76.6496L138.118 75.4281C139.646 75.1227 140.868 74.5119 141.479 73.2904C141.785 72.0689 141.785 70.2367 141.174 69.0152Z" fill="#FF8000"/>
<path d="M202.898 48.5547H184.564C178.758 48.5547 178.758 48.5547 177.23 55.5783C176.008 62.602 176.008 62.9074 181.508 62.9074H192.509L186.398 98.331C184.87 106.271 181.508 111.768 170.813 114.821C168.063 115.432 167.452 116.654 167.452 117.875C167.452 119.402 168.063 120.624 169.286 123.677C171.119 127.953 172.036 128.563 173.564 128.563C175.091 128.563 177.842 127.953 178.758 127.647C193.731 122.761 200.148 111.157 202.593 97.1095L209.621 57.1052C210.232 48.5547 210.232 48.5547 202.898 48.5547Z" fill="#FF8000"/>
<path d="M265.235 48.5547C257.901 48.5547 257.901 48.5547 256.679 54.6622L251.179 86.7267C249.651 96.1934 247.207 101.69 238.039 101.69C229.178 101.69 225.817 96.1934 227.344 87.9482L232.539 57.1052C234.067 48.5547 233.761 48.5547 226.122 48.5547C218.788 48.5547 218.483 48.5547 217.566 54.3568L212.066 86.4213C208.705 104.744 220.316 116.043 236.512 116.043C254.54 116.043 263.707 107.798 266.763 88.559L271.958 57.1052C273.18 48.5547 272.874 48.5547 265.235 48.5547Z" fill="#FF8000"/>
<path d="M299.153 101.385C304.959 101.08 308.32 98.3312 308.32 95.5828C308.32 92.2237 304.042 91.0022 298.542 89.1699C287.542 85.8108 277.152 81.8409 277.152 69.9312C277.152 55.8839 288.764 48.2495 303.431 48.2495C309.543 48.2495 316.571 48.5549 321.154 48.8603C325.127 49.471 326.043 50.6925 324.821 56.8001C323.599 62.9076 322.071 63.5183 318.71 63.213C314.432 62.9076 308.931 62.6022 302.514 62.6022C295.181 62.6022 292.736 65.3506 292.736 67.7936C292.736 71.1527 295.792 72.6796 302.514 74.8173C315.348 78.4818 323.904 83.6732 323.904 94.9721C323.904 108.103 314.126 115.738 298.542 116.348C289.986 116.654 282.652 116.043 276.235 115.127C271.346 114.516 271.041 114.516 272.263 107.187C273.485 100.774 273.485 100.163 278.069 100.774C287.542 101.385 293.042 101.69 299.153 101.385Z" fill="#FF8000"/>
<path d="M380.13 48.5547H338.266C332.461 48.5547 332.461 48.5547 330.933 55.8837C329.71 63.2127 330.016 63.2128 335.211 63.2128H348.961L341.322 107.492C339.794 116.043 340.1 116.043 347.739 116.043C355.073 116.043 355.073 116.043 356.295 109.935L364.24 63.2128H377.379C383.185 63.2128 383.185 63.2127 384.713 55.8837C385.63 48.5547 385.63 48.5547 380.13 48.5547Z" fill="#FF8000"/>
<path d="M454.077 62.6022C459.883 62.6022 459.883 62.6022 461.411 55.2731C462.633 47.9441 462.633 47.9441 457.133 47.9441H427.187C416.492 47.9441 416.798 47.9441 414.964 58.6323L407.02 103.828C404.881 115.432 405.186 115.432 415.881 115.432H445.216C451.327 115.432 451.022 115.432 452.55 108.409C453.772 101.08 453.772 101.08 448.272 101.08H422.909L425.048 88.2538H446.133C451.938 88.2538 451.938 88.2538 452.855 81.5355C453.772 74.5118 453.772 74.5118 446.133 74.5118H427.493L429.632 62.2968L454.077 62.6022Z" fill="#FF8000"/>
<path d="M485.857 86.4215L495.636 65.0452C496.247 63.2129 496.247 63.213 497.775 63.213C498.997 63.213 498.997 63.2129 499.302 65.3506L502.358 86.4215H485.857ZM512.136 56.8C510.608 48.2495 510.608 48.2495 498.691 48.2495C487.691 48.2495 487.691 48.2495 484.329 55.2732L459.273 107.493C455.606 114.822 456.217 115.738 465.384 115.738C472.718 115.738 472.718 115.738 475.468 109.019L479.44 100.163H503.886L505.108 109.019C506.025 115.738 506.331 115.738 513.664 115.738C521.915 115.738 522.526 115.127 520.998 107.187L512.136 56.8Z" fill="#FF8000"/>
<path d="M571.111 48.5547H528.942C523.136 48.5547 523.136 48.5547 521.608 55.8837C520.08 63.2127 520.691 63.2128 525.886 63.2128H539.637L531.998 107.492C530.47 116.043 530.775 116.043 538.415 116.043C545.748 116.043 545.748 116.043 546.97 109.935L554.915 63.2128H568.055C573.861 63.2128 573.861 63.2127 575.389 55.8837C576.611 48.5547 576.611 48.5547 571.111 48.5547Z" fill="#FF8000"/>
</g>
<defs>
<clipPath id="clip0">
<rect width="576" height="142" fill="white"/>
</clipPath>
</defs>
</svg>
