<svg width="921" height="227" viewBox="0 0 921 227" fill="none" xmlns="http://www.w3.org/2000/svg">
<g clip-path="url(#clip0)">
<path d="M225.73 110.327C218.401 97.6346 210.095 85.9185 200.812 74.2023V73.7142C200.323 73.226 199.346 71.7615 198.858 71.2733C194.949 65.9034 190.063 20.9916 189.574 17.5744C189.086 13.669 187.62 9.76363 182.245 8.78729C177.848 8.29911 171.008 7.32277 163.19 7.32277C159.77 7.32277 157.816 8.78729 156.839 10.74C156.35 11.7163 155.861 13.1808 155.861 14.6454C155.861 20.5034 155.861 23.4324 155.861 23.9206C155.861 24.4088 155.373 24.4088 155.373 24.897C154.884 25.3851 153.907 25.3851 152.93 24.897C149.51 21.9679 130.943 8.29911 120.683 1.95288C120.194 1.46471 119.705 1.46471 119.217 0.976534C115.308 -0.487983 110.911 -0.976154 107.491 1.46471C107.002 1.46471 107.002 1.95288 107.002 1.95288C103.093 3.90557 45.4391 37.1013 1.46559 109.839C1.46559 109.839 -1.46597 113.744 0.976999 117.161C2.93138 121.067 21.9865 122.531 24.9181 122.531C28.3383 123.02 28.3383 125.949 28.3383 125.949C28.8269 156.215 29.3155 170.86 34.2014 221.63C34.2014 221.63 35.1786 227 40.0645 227C42.0189 227 49.8364 226.512 70.846 226.024C71.8232 226.024 72.3117 225.536 72.3117 224.559C72.3117 224.559 72.3117 224.559 72.3117 224.071C70.3574 203.568 69.8688 185.506 69.3802 184.529C69.3802 183.553 68.8916 182.577 67.9144 182.577C60.0969 178.183 55.6995 170.372 55.6995 161.585C55.211 120.579 57.6539 88.8475 57.6539 88.8475C57.6539 88.8475 57.6539 84.4539 61.5627 84.9421C65.4714 85.4303 64.9828 89.8238 64.9828 89.8238C63.5171 107.398 63.0285 139.617 63.0285 139.617C63.0285 139.617 63.0285 145.475 68.8916 145.475C74.7547 145.475 74.7547 139.617 74.7547 139.617C74.7547 114.721 76.7091 89.8238 76.7091 89.8238C76.7091 89.8238 76.7091 85.4303 80.6178 85.4303C83.0608 85.4303 83.5494 86.8948 84.038 88.3593C84.038 88.8475 84.038 89.8238 84.038 90.312C83.5494 111.303 83.0608 139.129 83.0608 139.129C83.0608 139.129 83.0608 144.987 88.924 144.987C94.7871 144.987 94.7871 138.641 94.7871 138.641C94.7871 118.138 96.7415 89.3357 96.7415 89.3357C96.7415 86.8948 98.2072 84.9421 100.65 84.9421C104.07 84.9421 104.559 88.3593 104.07 89.3357C102.605 111.792 102.605 145.964 102.605 160.609C103.093 169.396 98.2072 177.695 90.8783 182.577C90.3897 183.065 89.9011 184.041 89.9011 184.529C90.3897 198.198 91.3669 213.331 92.3441 224.071C92.3441 224.559 92.8327 225.536 93.8099 225.536C99.673 225.536 110.911 225.536 117.751 225.536C128.989 225.536 133.386 225.536 141.692 225.536C142.669 225.536 143.158 225.048 143.158 224.071C145.112 204.544 146.089 190.387 146.089 188.923C146.089 187.458 144.624 187.458 144.624 187.458C142.181 186.97 135.829 186.482 130.943 185.506C126.057 184.529 125.569 178.671 125.569 178.671C121.171 117.161 153.418 79.0841 153.418 79.0841C153.418 79.0841 156.839 74.6905 161.236 76.6432C165.145 78.1077 166.122 89.3357 166.122 90.312C170.519 141.082 165.633 200.151 162.702 224.559C162.702 225.536 163.19 226.512 164.167 226.512C165.145 226.512 184.688 227.488 186.643 227C189.574 226.512 192.506 224.071 192.995 221.142C199.835 173.789 198.858 125.949 198.858 125.949C198.858 124.484 200.323 123.02 202.278 122.531L220.844 120.579C223.287 120.091 225.242 119.114 226.219 117.161C226.707 115.209 226.708 112.28 225.73 110.327Z" fill="white"/>
<path d="M324.426 77.6191H295.11C285.827 77.6191 285.827 77.6191 283.384 88.8471C281.43 100.075 281.43 100.563 290.224 100.563H307.814L298.042 157.191C295.599 169.884 290.224 178.671 273.124 183.552C268.726 184.529 267.749 186.482 267.749 188.434C267.749 190.875 268.726 192.828 270.681 197.709C273.612 204.544 275.078 205.52 277.521 205.52C279.964 205.52 284.361 204.544 285.827 204.056C309.768 196.245 320.029 177.694 323.937 155.239L335.175 91.288C336.152 77.6191 336.152 77.6191 324.426 77.6191Z" fill="white"/>
<path d="M424.099 77.6191C412.372 77.6191 412.372 77.6191 410.418 87.3826L401.623 138.641C399.18 153.774 395.272 162.561 380.614 162.561C366.444 162.561 361.07 153.774 363.513 140.593L371.819 91.288C374.262 77.6191 373.773 77.6191 361.559 77.6191C349.832 77.6191 349.344 77.6191 347.878 86.8944L339.083 138.152C333.709 167.443 352.275 185.505 378.171 185.505C406.998 185.505 421.656 172.325 426.542 141.57L434.848 91.288C436.802 77.6191 436.313 77.6191 424.099 77.6191Z" fill="white"/>
<path d="M478.333 162.073C487.617 161.585 492.991 157.192 492.991 152.798C492.991 147.428 486.151 145.475 477.356 142.546C459.767 137.177 443.155 130.83 443.155 111.792C443.155 89.3356 461.721 77.1313 485.174 77.1313C494.946 77.1313 506.183 77.6195 513.512 78.1077C519.864 79.084 521.33 81.0367 519.375 90.8002C517.421 100.564 514.978 101.54 509.603 101.052C502.763 100.564 493.968 100.075 483.708 100.075C471.982 100.075 468.073 104.469 468.073 108.374C468.073 113.744 472.959 116.185 483.708 119.602C504.229 125.46 517.909 133.759 517.909 151.822C517.909 172.813 502.274 185.017 477.356 185.994C463.675 186.482 451.949 185.506 441.689 184.041C433.871 183.065 433.383 183.065 435.337 171.349C437.291 161.097 437.291 160.121 444.62 161.097C459.767 162.073 468.561 162.561 478.333 162.073Z" fill="white"/>
<path d="M607.811 77.6191H540.874C531.591 77.6191 531.591 77.6191 529.148 89.3353C527.193 101.051 527.682 101.051 535.988 101.051H557.975L545.76 171.836C543.317 185.505 543.805 185.505 556.02 185.505C567.747 185.505 567.747 185.505 569.701 175.742L582.404 101.051H603.414C612.697 101.051 612.697 101.051 615.14 89.3353C616.606 77.6191 616.606 77.6191 607.811 77.6191Z" fill="white"/>
<path d="M726.05 100.075C735.333 100.075 735.333 100.075 737.776 88.359C739.73 76.6428 739.73 76.6428 730.936 76.6428H683.053C665.953 76.6428 666.441 76.6428 663.51 93.7288L650.806 165.978C647.386 184.529 647.875 184.529 664.975 184.529H711.88C721.652 184.529 721.164 184.529 723.607 173.301C725.561 161.585 725.561 161.585 716.766 161.585H676.213L679.633 141.082H713.346C722.63 141.082 722.63 141.082 724.095 130.342C725.561 119.114 725.561 119.114 713.346 119.114H683.542L686.962 99.5869L726.05 100.075Z" fill="white"/>
<path d="M776.865 138.153L792.5 103.981C793.477 101.052 793.477 101.052 795.92 101.052C797.875 101.052 797.875 101.052 798.363 104.469L803.249 138.153H776.865ZM818.884 90.8002C816.441 77.1313 816.441 77.1313 797.386 77.1313C779.797 77.1313 779.797 77.1313 774.422 88.3593L734.358 171.837C728.495 183.553 729.472 185.017 744.13 185.017C755.856 185.017 755.856 185.017 760.253 174.278L766.605 160.121H805.692L807.647 174.278C809.112 185.017 809.601 185.017 821.327 185.017C834.519 185.017 835.497 184.041 833.054 171.349L818.884 90.8002Z" fill="white"/>
<path d="M913.182 77.6191H845.756C836.472 77.6191 836.472 77.6191 834.029 89.3353C831.586 101.051 832.564 101.051 840.87 101.051H862.856L850.642 171.836C848.199 185.505 848.687 185.505 860.902 185.505C872.628 185.505 872.628 185.505 874.583 175.742L887.286 101.051H908.296C917.579 101.051 917.579 101.051 920.022 89.3353C921.976 77.6191 921.976 77.6191 913.182 77.6191Z" fill="white"/>
</g>
<defs>
<clipPath id="clip0">
<rect width="921" height="227" fill="white"/>
</clipPath>
</defs>
</svg>
