<svg width="1121" height="503" viewBox="0 0 1121 503" fill="none" xmlns="http://www.w3.org/2000/svg">
<g clip-path="url(#clip0)">
<path d="M1101.61 269.871C1110.95 276.877 1120.76 281.547 1120.76 292.756C1120.76 296.025 1116.55 298.828 1107.68 298.828C1100.67 298.828 1093.2 296.959 1089.93 291.822C1087.13 288.086 1091.33 282.948 1088.53 279.212C1086.66 275.943 1082.46 277.811 1079.65 275.943C1076.38 274.075 1075.92 272.673 1073.58 268.003C1071.25 262.399 1062.84 253.058 1052.56 243.25C1044.15 234.843 1035.28 230.64 1031.08 230.64C1028.27 231.107 1027.34 231.107 1024.54 231.107C1017.53 231.107 1010.99 238.113 1000.72 242.316C993.71 245.585 989.506 247.453 984.835 247.92L983.434 249.789L992.776 249.321C1001.65 249.321 1012.86 247.92 1021.73 247.92C1030.61 247.92 1035.28 255.86 1038.55 264.267C1045.56 281.547 1055.83 305.833 1067.98 326.383C1074.05 336.191 1078.72 342.262 1078.72 353.938C1078.72 357.674 1078.25 362.812 1073.58 362.812C1066.57 362.812 1049.29 355.806 1049.29 347.867C1049.29 341.795 1053.96 339.46 1053.96 333.388C1053.96 329.652 1048.36 330.119 1046.96 326.85C1042.75 308.635 1037.15 290.421 1026.87 279.679C1021.73 274.075 1020.8 271.739 1015.66 271.739C1012.86 271.739 1010.06 272.206 1007.72 273.14C993.243 278.278 974.559 294.157 950.738 301.63C941.864 304.432 939.995 299.295 930.654 301.163H931.121C923.647 302.564 917.575 307.234 907.299 310.036C892.82 314.24 868.531 316.108 848.914 313.306C834.901 311.438 816.685 308.635 809.212 309.102C803.14 326.383 790.529 348.801 771.845 357.207C762.036 361.411 758.767 367.949 762.036 379.158C765.773 393.169 778.384 403.444 784.924 415.12C790.996 425.395 800.337 441.741 810.613 446.879C820.889 452.016 826.961 459.956 826.961 466.494C826.961 469.763 825.56 471.632 822.757 471.632H802.206C798.936 471.632 797.535 469.763 797.068 468.362C794.265 463.225 796.133 458.088 792.397 453.417C789.594 450.148 787.259 451.082 783.989 448.28C777.917 442.208 782.588 438.939 777.917 431.466C764.839 410.917 759.234 405.779 748.491 391.301C742.419 383.361 734.946 379.625 734.946 369.35C734.946 356.74 747.557 354.872 747.09 342.262C739.149 348.334 729.808 353.004 715.328 354.872C713.46 355.339 708.322 359.075 706.454 361.411C701.316 366.548 699.447 371.218 698.98 378.691C697.579 395.504 693.842 412.785 696.178 429.598C698.98 440.34 700.849 444.076 709.723 450.148C715.328 453.884 721.867 459.022 722.334 466.961C722.334 469.296 721.867 471.632 718.598 471.632H696.645C694.309 471.632 692.441 470.23 691.974 468.829C689.638 464.626 691.04 461.357 690.106 456.219C687.77 445.945 676.56 446.412 676.56 436.137C676.56 432.867 678.429 429.131 678.896 422.593C679.363 408.114 684.034 385.23 679.363 357.207C677.494 340.861 694.309 340.394 703.184 325.916C708.322 317.976 706.921 321.245 710.19 315.174C713.46 309.102 712.526 304.432 712.526 300.696C712.526 296.025 707.855 286.218 711.124 265.668C712.526 256.794 716.729 247.453 722.801 239.981C722.801 239.514 722.801 238.58 720.933 238.58C712.059 239.047 712.059 237.178 706.454 237.178C700.849 237.178 696.645 241.849 695.711 244.184C692.908 242.783 691.507 239.981 691.507 238.113C691.507 234.843 691.974 232.041 695.244 229.239C696.645 227.838 695.244 227.371 693.842 227.371C686.836 227.371 680.297 235.777 678.896 241.849C674.692 241.382 674.692 235.777 672.824 235.777C670.955 235.777 669.554 238.58 669.554 241.382C669.554 261.464 701.783 265.668 701.783 291.822C701.783 322.179 665.35 315.641 665.35 326.85C665.35 329.185 666.751 331.053 669.554 331.987C668.153 334.789 665.35 336.191 661.613 336.191C653.673 336.191 647.601 330.119 647.601 322.179C647.601 305.833 669.554 305.366 669.554 292.756C669.554 286.685 665.817 284.816 662.548 282.014C641.529 267.069 629.385 252.124 629.385 227.371C629.385 200.75 647.601 180.667 671.889 180.667C706.921 180.667 707.855 220.832 739.616 224.101C751.294 216.162 765.306 211.491 779.319 211.491C799.87 211.491 808.745 216.629 830.698 216.629C839.572 216.629 854.052 214.294 871.334 202.151C877.873 197.947 880.676 197.013 886.748 191.409C900.293 179.733 913.372 156.381 913.372 140.035V140.969C913.372 135.831 911.97 132.562 909.635 132.562C902.161 132.562 895.622 139.568 888.149 146.573C883.478 151.711 890.484 153.579 880.209 159.65C876.472 161.518 872.268 158.249 868.064 158.249C859.657 158.249 855.92 148.441 855.92 139.568C855.92 135.364 859.19 133.963 861.058 129.76C865.262 121.353 865.262 118.084 868.999 109.677C871.334 104.073 876.005 100.336 875.538 96.133C875.538 94.7319 874.136 93.7978 874.136 91.9296C874.136 83.523 885.347 77.9185 885.347 69.5118C885.347 64.8414 880.208 62.5063 878.807 58.7699C877.406 55.0336 878.34 54.0996 878.34 54.0996C878.807 53.6325 879.274 53.1655 879.741 53.1655C883.945 53.1655 885.814 57.8359 890.017 60.171C890.484 54.5666 888.616 53.1655 888.616 49.4292C888.616 47.094 888.149 43.8247 890.484 43.8247C893.287 43.8247 892.82 47.561 895.622 49.4292C898.892 51.7644 901.694 51.7644 904.964 53.6325C909.168 56.4348 911.97 61.1051 913.372 61.5722C917.575 62.0392 918.976 56.9018 916.641 53.6325C921.779 53.1655 926.45 57.3688 932.989 57.3688C943.265 57.3688 946.534 60.1711 948.403 61.5722C954.942 67.1766 956.343 71.38 963.349 71.38C967.086 71.38 968.954 68.1107 969.888 67.1766C975.026 70.9129 975.026 80.2537 969.888 88.1933C972.224 94.7319 981.566 95.1989 985.769 98.4682C989.973 101.737 989.506 103.139 992.776 105.007C995.111 106.408 997.446 106.408 999.315 105.007C1001.65 113.88 994.177 121.353 984.835 122.754C985.302 133.963 996.979 140.969 1002.12 143.771C998.848 150.776 993.243 152.645 988.572 154.046C989.973 161.051 997.446 170.859 993.71 179.733C990.44 178.332 985.302 179.733 985.302 184.87C985.302 190.475 992.309 193.277 984.835 197.48C981.566 199.348 980.631 204.486 987.171 209.156C995.111 206.821 1003.05 207.288 1011.93 207.288C1017.53 207.288 1025 205.887 1030.14 205.887C1039.48 205.887 1045.09 209.623 1052.1 217.096C1068.44 237.178 1083.86 256.794 1101.61 269.871Z" fill="black"/>
<path d="M639.458 220.263C643.195 220.263 650.201 199.713 664.213 199.713C668.417 199.713 669.351 201.114 669.351 202.982C669.351 205.784 664.68 208.12 664.68 211.856C664.68 212.323 665.147 213.257 666.082 213.257C669.351 213.257 672.154 205.784 686.166 205.784C689.903 205.784 693.172 206.251 696.442 207.185C697.843 207.652 701.113 209.054 699.712 204.85C696.442 195.042 685.699 186.169 670.752 186.169C655.806 186.169 640.392 199.713 638.524 215.592C637.59 218.394 637.59 220.263 639.458 220.263Z" fill="#656263"/>
<path d="M897.946 91.5814C893.742 90.1803 893.275 87.8451 894.676 82.7077C895.61 77.5702 896.077 75.2351 893.275 74.768C890.939 74.301 888.137 75.2351 885.335 78.5043C882.999 81.7736 878.795 85.9769 877.394 89.2462C875.993 93.4496 881.598 92.9825 877.861 99.9881C871.322 111.664 869.921 114.466 866.651 122.873C863.849 131.747 861.513 132.681 860.112 135.483C858.244 137.818 862.447 138.285 867.585 136.884C872.723 135.016 873.19 141.087 871.322 145.758C869.921 149.027 870.855 149.961 875.526 146.692C879.73 143.423 873.19 141.087 875.059 131.28C876.46 122.406 878.328 117.268 883.933 108.395C888.604 100.455 892.808 94.8506 900.748 97.6529C904.018 99.054 902.149 93.4496 897.946 91.5814Z" fill="#656263"/>
<path d="M1071.1 356.262C1072.5 356.262 1072.97 353.927 1072.97 352.059C1072.97 347.856 1070.64 341.317 1066.9 338.515C1065.96 345.053 1062.7 349.257 1062.7 352.059C1063.16 354.394 1069.23 356.262 1071.1 356.262Z" fill="#656263"/>
<path d="M1109.86 293.564C1112.2 293.564 1115.94 292.63 1115.94 290.762C1115.94 287.026 1110.33 280.487 1105.19 279.086C1108.93 285.624 1105.66 293.564 1109.86 293.564Z" fill="#656263"/>
<path d="M939.013 208.687C974.044 225.034 972.176 254.457 974.978 246.984C976.38 243.715 981.05 229.237 968.439 215.226C958.63 204.017 954.894 206.819 958.63 197.478C974.044 160.582 983.386 104.071 937.612 84.4551C932.474 82.12 927.803 82.1199 927.803 83.054C927.803 83.9881 932.941 85.3892 938.546 89.5926C968.906 109.675 959.565 164.786 931.54 191.874C923.132 201.215 927.336 203.55 939.013 208.687Z" fill="#656263"/>
<path d="M818.58 466.971C820.915 466.971 819.981 463.234 819.047 461.833C816.712 458.097 812.975 455.762 809.238 453.894C810.172 457.63 810.64 466.971 814.376 466.971H818.58Z" fill="#656263"/>
<path d="M712.428 466.97C714.764 466.97 712.895 463.234 711.961 461.832C709.626 458.096 705.422 455.761 702.152 454.36C703.087 458.096 703.554 466.97 707.29 466.97H712.428Z" fill="#656263"/>
<path d="M840.841 256.091C859.992 253.756 863.261 249.553 866.531 235.074C867.932 228.069 873.07 221.063 877.274 216.393C880.076 213.124 882.879 210.788 885.681 206.118C886.616 204.25 887.083 202.849 885.681 203.316C883.346 204.717 876.807 209.387 874.004 211.256C860.459 221.063 839.44 225.734 831.033 225.734C813.283 225.734 797.87 220.596 781.989 220.596C733.412 220.596 715.196 258.426 717.998 280.844C718.465 284.113 718.932 284.581 720.334 284.581C723.603 284.581 726.406 271.503 738.55 259.827C756.299 243.014 775.45 233.206 803.008 233.206C823.092 233.206 831.033 239.745 831.033 242.08C831.033 247.217 822.625 247.217 823.092 252.355C823.559 253.756 828.23 257.492 840.841 256.091Z" fill="#656263"/>
<path d="M10.2773 503H995.356V486.187H10.2773V503Z" fill="black"/>
<path d="M123.105 160.939L134.782 191.297H111.428L123.105 160.939ZM36.6946 156.269C42.2996 156.269 49.3058 159.071 49.3058 166.077C49.3058 172.615 44.635 176.819 37.6287 176.819H21.2808V156.269C21.2808 156.269 36.6946 156.269 36.6946 156.269ZM125.907 295.913C133.848 295.913 139.92 299.183 139.92 307.589C139.92 315.529 134.782 319.732 126.842 319.732H113.296V295.913H125.907ZM409.894 295.913C418.769 295.913 424.374 301.051 424.374 308.99C424.374 316.93 418.769 322.068 409.427 322.068H398.217V295.913C397.75 295.913 409.894 295.913 409.894 295.913ZM39.03 192.231C46.5034 192.231 51.6412 196.901 51.6412 202.973C51.6412 212.314 43.2338 214.649 36.2275 214.649H21.2808V192.231H39.03ZM377.198 230.995H394.947V140.39H377.198V230.995ZM364.587 17.5587C380.935 17.5587 393.079 29.7017 393.079 46.0481C393.079 62.8614 380.935 75.0044 364.587 75.0044H352.443V17.5587C352.443 17.5587 364.587 17.5587 364.587 17.5587ZM3.99879 1.21238V91.8178H61.9171V75.0044H21.2808V1.21238H3.99879ZM77.3308 1.21238V91.8178H135.249V75.0044H94.6129V1.21238H77.3308ZM304.333 1.21238L281.446 40.4436L257.158 1.21238H236.606L271.637 55.8559L249.685 91.8178H269.302L323.951 1.21238C323.951 1.21238 304.333 1.21238 304.333 1.21238ZM186.628 16.6247C202.509 16.6247 215.587 29.7017 215.587 46.5151C215.587 63.7955 202.509 76.8726 186.628 76.8726C170.28 76.8726 157.669 63.7955 157.669 46.5151C157.202 29.7017 170.747 16.6247 186.628 16.6247ZM219.791 294.979C235.672 294.979 248.75 308.056 248.75 324.87C248.75 342.15 235.672 355.227 219.791 355.227C203.443 355.227 190.832 342.15 190.832 324.87C190.832 308.056 203.91 294.979 219.791 294.979ZM425.775 25.9654C425.775 38.5754 433.715 46.9821 450.063 52.1195C460.339 55.3888 468.28 58.191 468.28 66.1307C468.28 73.6033 460.806 76.8726 453.8 76.8726C444.458 76.8726 435.584 73.1363 427.176 67.9988V85.7463C433.248 89.0156 443.057 92.7519 453.8 92.7519C468.747 92.7519 485.095 82.9441 485.095 65.6636C485.095 48.3832 471.549 41.8447 459.872 38.1084C444.925 33.438 442.123 30.1688 442.123 25.9654C442.123 19.8939 447.728 16.6247 456.603 16.6247C465.01 16.6247 472.483 19.4269 479.022 22.2291V5.88276C471.549 2.14646 464.076 0.745351 456.135 0.745351C438.386 0.278313 425.775 10.5532 425.775 25.9654ZM519.659 185.692C519.659 213.248 541.612 232.396 568.235 232.396C576.176 232.396 584.116 230.995 592.057 228.66V181.956H575.242V215.116C573.84 215.583 570.104 215.583 568.235 215.583C550.019 215.583 537.408 202.506 537.408 185.225C537.408 167.478 550.486 155.335 569.17 155.335C577.11 155.335 583.649 157.203 590.188 159.071V142.725C584.583 140.857 577.11 139.456 569.17 139.456C541.612 139.456 519.659 158.137 519.659 185.692ZM-0.205078 324.87C-0.205078 352.425 21.748 371.574 48.3717 371.574C56.3121 371.574 64.2524 370.172 72.1928 367.837V321.133H55.378V354.293C53.9767 354.76 50.24 354.76 48.3717 354.76C29.6884 354.76 17.5442 341.683 17.5442 324.403C17.5442 306.655 30.6225 294.512 49.3058 294.512C57.2462 294.512 63.7854 296.38 70.3245 298.249V281.435C64.7195 279.567 57.2462 278.166 49.3058 278.166C21.7479 278.633 -0.205078 297.315 -0.205078 324.87ZM340.299 279.567V336.546C340.299 347.288 332.825 354.76 322.082 354.76C311.34 354.76 303.399 347.288 303.399 336.546V279.567H286.117V337.013C286.117 357.562 301.531 371.574 322.082 371.574C342.634 371.574 358.048 357.562 358.048 337.013V279.567H340.299ZM306.202 140.39H288.92V230.995H306.202V188.028L343.101 230.995H365.521L325.352 185.225L363.186 140.39H342.167L306.202 183.357C306.202 183.357 306.202 140.39 306.202 140.39ZM380.935 279.567V370.172H397.75V338.881H409.894C427.643 338.881 441.656 327.205 441.656 308.99C441.656 291.243 428.11 279.567 410.828 279.567C410.828 279.567 380.935 279.567 380.935 279.567ZM149.729 230.995H168.412L131.045 139.923H114.697L77.3308 230.995H95.547L104.889 207.176H140.387C140.854 207.176 149.729 230.995 149.729 230.995ZM484.16 140.39V199.704L436.518 140.39H422.038V230.995H439.32V168.412L489.298 230.995H501.91V140.39H484.16ZM245.948 140.39V199.704L198.305 140.39H183.826V230.995H201.108V168.412L251.086 230.995H263.697V140.39H245.948ZM96.0141 279.567V370.172H113.296V335.612H124.039L143.19 370.172H162.807L140.854 332.809C151.13 328.139 157.202 318.798 157.202 307.589C157.202 289.842 144.124 279.567 126.375 279.567C126.842 279.567 96.0141 279.567 96.0141 279.567ZM3.99879 140.39V230.995H37.1616C57.2462 230.995 69.3905 220.72 69.3905 203.907C69.3905 195.033 64.7195 187.561 56.312 182.89C61.45 179.621 66.5879 173.082 66.5879 165.143C66.5879 150.198 55.3779 140.39 38.5629 140.39C38.0958 140.39 3.99879 140.39 3.99879 140.39ZM335.161 1.21238V91.8178H364.12C390.277 91.8178 410.828 71.7352 410.828 46.5151C410.828 21.295 390.277 1.21238 364.12 1.21238H335.161V1.21238ZM139.453 46.5151C139.453 72.6692 160.472 93.2189 186.628 93.2189C212.785 93.2189 233.804 72.6692 233.804 46.5151C233.804 20.828 212.318 0.27832 186.628 0.27832C160.939 0.27832 139.453 20.828 139.453 46.5151ZM173.083 324.403C173.083 350.557 194.102 371.107 220.258 371.107C246.415 371.107 267.434 350.557 267.434 324.403C267.434 298.716 245.948 278.166 220.258 278.166C194.569 278.633 173.083 299.183 173.083 324.403Z" fill="black"/>
</g>
<defs>
<clipPath id="clip0">
<rect width="1121" height="503" fill="white"/>
</clipPath>
</defs>
</svg>
