<svg width="240" height="108" viewBox="0 0 240 108" fill="none" xmlns="http://www.w3.org/2000/svg">
<g clip-path="url(#clip0)">
<path d="M235.848 57.7835C237.848 59.2835 239.948 60.2835 239.948 62.6835C239.948 63.3835 239.048 63.9835 237.148 63.9835C235.648 63.9835 234.048 63.5835 233.348 62.4835C232.748 61.6835 233.648 60.5835 233.048 59.7835C232.648 59.0835 231.748 59.4835 231.148 59.0835C230.448 58.6835 230.348 58.3835 229.848 57.3835C229.348 56.1835 227.548 54.1835 225.348 52.0835C223.548 50.2835 221.648 49.3835 220.748 49.3835C220.148 49.4835 219.948 49.4835 219.348 49.4835C217.848 49.4835 216.448 50.9835 214.248 51.8835C212.748 52.5835 211.848 52.9835 210.848 53.0835L210.548 53.4835L212.548 53.3835C214.448 53.3835 216.848 53.0835 218.748 53.0835C220.648 53.0835 221.648 54.7835 222.348 56.5835C223.848 60.2835 226.048 65.4835 228.648 69.8835C229.948 71.9835 230.948 73.2835 230.948 75.7835C230.948 76.5835 230.848 77.6835 229.848 77.6835C228.348 77.6835 224.648 76.1836 224.648 74.4836C224.648 73.1836 225.648 72.6835 225.648 71.3835C225.648 70.5835 224.448 70.6835 224.148 69.9835C223.248 66.0835 222.048 62.1835 219.848 59.8835C218.748 58.6835 218.548 58.1835 217.448 58.1835C216.848 58.1835 216.248 58.2835 215.748 58.4835C212.648 59.5835 208.648 62.9835 203.548 64.5835C201.648 65.1835 201.248 64.0835 199.248 64.4835H199.348C197.748 64.7835 196.448 65.7835 194.248 66.3835C191.148 67.2835 185.948 67.6835 181.748 67.0835C178.748 66.6835 174.848 66.0835 173.248 66.1835C171.948 69.8835 169.248 74.6836 165.248 76.4836C163.148 77.3836 162.448 78.7835 163.148 81.1835C163.948 84.1835 166.648 86.3835 168.048 88.8835C169.348 91.0835 171.348 94.5835 173.548 95.6835C175.748 96.7835 177.048 98.4835 177.048 99.8835C177.048 100.584 176.748 100.984 176.148 100.984H171.748C171.048 100.984 170.748 100.584 170.648 100.284C170.048 99.1835 170.448 98.0835 169.648 97.0835C169.048 96.3835 168.548 96.5836 167.848 95.9836C166.548 94.6836 167.548 93.9835 166.548 92.3835C163.748 87.9835 162.548 86.8835 160.248 83.7835C158.948 82.0835 157.348 81.2835 157.348 79.0835C157.348 76.3835 160.048 75.9835 159.948 73.2835C158.248 74.5835 156.248 75.5836 153.148 75.9836C152.748 76.0836 151.648 76.8835 151.248 77.3835C150.148 78.4835 149.748 79.4835 149.648 81.0835C149.348 84.6835 148.548 88.3836 149.048 91.9836C149.648 94.2836 150.048 95.0835 151.948 96.3835C153.148 97.1835 154.548 98.2836 154.648 99.9836C154.648 100.484 154.548 100.984 153.848 100.984H149.148C148.648 100.984 148.248 100.684 148.148 100.384C147.648 99.4835 147.948 98.7835 147.748 97.6835C147.248 95.4835 144.848 95.5835 144.848 93.3835C144.848 92.6835 145.248 91.8836 145.348 90.4836C145.448 87.3836 146.448 82.4836 145.448 76.4836C145.048 72.9836 148.648 72.8835 150.548 69.7835C151.648 68.0835 151.348 68.7835 152.048 67.4835C152.748 66.1835 152.548 65.1835 152.548 64.3835C152.548 63.3835 151.548 61.2835 152.248 56.8835C152.548 54.9835 153.448 52.9835 154.748 51.3835C154.748 51.2835 154.748 51.0835 154.348 51.0835C152.448 51.1835 152.448 50.7835 151.248 50.7835C150.048 50.7835 149.148 51.7835 148.948 52.2835C148.348 51.9835 148.048 51.3835 148.048 50.9835C148.048 50.2835 148.148 49.6835 148.848 49.0835C149.148 48.7835 148.848 48.6835 148.548 48.6835C147.048 48.6835 145.648 50.4835 145.348 51.7835C144.448 51.6835 144.448 50.4835 144.048 50.4835C143.648 50.4835 143.348 51.0835 143.348 51.6835C143.348 55.9835 150.248 56.8835 150.248 62.4835C150.248 68.9835 142.448 67.5835 142.448 69.9835C142.448 70.4835 142.748 70.8835 143.348 71.0835C143.048 71.6835 142.448 71.9835 141.648 71.9835C139.948 71.9835 138.648 70.6835 138.648 68.9835C138.648 65.4835 143.348 65.3835 143.348 62.6835C143.348 61.3835 142.548 60.9835 141.848 60.3835C137.348 57.1835 134.748 53.9835 134.748 48.6835C134.748 42.9835 138.648 38.6835 143.848 38.6835C151.348 38.6835 151.548 47.2835 158.348 47.9835C160.848 46.2835 163.848 45.2835 166.848 45.2835C171.248 45.2835 173.148 46.3835 177.848 46.3835C179.748 46.3835 182.848 45.8835 186.548 43.2835C187.948 42.3835 188.548 42.1835 189.848 40.9835C192.748 38.4835 195.548 33.4835 195.548 29.9835V30.1835C195.548 29.0835 195.248 28.3835 194.748 28.3835C193.148 28.3835 191.748 29.8835 190.148 31.3835C189.148 32.4835 190.648 32.8835 188.448 34.1835C187.648 34.5835 186.748 33.8835 185.848 33.8835C184.048 33.8835 183.248 31.7835 183.248 29.8835C183.248 28.9835 183.948 28.6835 184.348 27.7835C185.248 25.9835 185.248 25.2836 186.048 23.4836C186.548 22.2836 187.548 21.4835 187.448 20.5835C187.448 20.2835 187.148 20.0835 187.148 19.6835C187.148 17.8835 189.548 16.6835 189.548 14.8835C189.548 13.8835 188.448 13.3835 188.148 12.5835C187.848 11.7835 188.048 11.5835 188.048 11.5835C188.148 11.4835 188.248 11.3835 188.348 11.3835C189.248 11.3835 189.648 12.3835 190.548 12.8835C190.648 11.6835 190.248 11.3835 190.248 10.5835C190.248 10.0835 190.148 9.38354 190.648 9.38354C191.248 9.38354 191.148 10.1835 191.748 10.5835C192.448 11.0835 193.048 11.0836 193.748 11.4836C194.648 12.0836 195.248 13.0835 195.548 13.1835C196.448 13.2835 196.748 12.1836 196.248 11.4836C197.348 11.3836 198.348 12.2835 199.748 12.2835C201.948 12.2835 202.648 12.8835 203.048 13.1835C204.448 14.3835 204.748 15.2835 206.248 15.2835C207.048 15.2835 207.448 14.5835 207.648 14.3835C208.748 15.1835 208.748 17.1835 207.648 18.8835C208.148 20.2835 210.148 20.3835 211.048 21.0835C211.948 21.7835 211.848 22.0836 212.548 22.4836C213.048 22.7836 213.548 22.7836 213.948 22.4836C214.448 24.3836 212.848 25.9835 210.848 26.2835C210.948 28.6835 213.448 30.1835 214.548 30.7835C213.848 32.2835 212.648 32.6835 211.648 32.9835C211.948 34.4835 213.548 36.5835 212.748 38.4835C212.048 38.1835 210.948 38.4835 210.948 39.5835C210.948 40.7835 212.448 41.3835 210.848 42.2835C210.148 42.6835 209.948 43.7835 211.348 44.7835C213.048 44.2835 214.748 44.3835 216.648 44.3835C217.848 44.3835 219.448 44.0835 220.548 44.0835C222.548 44.0835 223.748 44.8835 225.248 46.4835C228.748 50.7835 232.048 54.9835 235.848 57.7835Z" fill="#231F20"/>
<path d="M136.905 47.1616C137.705 47.1616 139.205 42.7616 142.205 42.7616C143.105 42.7616 143.305 43.0616 143.305 43.4616C143.305 44.0616 142.305 44.5616 142.305 45.3616C142.305 45.4616 142.405 45.6616 142.605 45.6616C143.305 45.6616 143.905 44.0616 146.905 44.0616C147.705 44.0616 148.405 44.1616 149.105 44.3616C149.405 44.4616 150.105 44.7616 149.805 43.8616C149.105 41.7616 146.805 39.8616 143.605 39.8616C140.405 39.8616 137.105 42.7616 136.705 46.1616C136.505 46.7616 136.505 47.1616 136.905 47.1616Z" fill="#656263"/>
<path d="M192.246 19.609C191.346 19.309 191.246 18.809 191.546 17.709C191.746 16.609 191.846 16.109 191.246 16.009C190.746 15.909 190.146 16.109 189.546 16.809C189.046 17.509 188.146 18.409 187.846 19.109C187.546 20.009 188.746 19.909 187.946 21.409C186.546 23.909 186.246 24.509 185.546 26.309C184.946 28.209 184.446 28.409 184.146 29.009C183.746 29.509 184.646 29.609 185.746 29.309C186.846 28.909 186.946 30.209 186.546 31.209C186.246 31.909 186.446 32.109 187.446 31.409C188.346 30.709 186.946 30.209 187.346 28.109C187.646 26.209 188.046 25.109 189.246 23.209C190.246 21.509 191.146 20.309 192.846 20.909C193.546 21.209 193.146 20.009 192.246 19.609Z" fill="#656263"/>
<path d="M229.318 76.2812C229.618 76.2812 229.718 75.7812 229.718 75.3812C229.718 74.4812 229.218 73.0812 228.418 72.4812C228.218 73.8812 227.518 74.7812 227.518 75.3812C227.618 75.8812 228.918 76.2812 229.318 76.2812Z" fill="#656263"/>
<path d="M237.616 62.8566C238.116 62.8566 238.916 62.6566 238.916 62.2566C238.916 61.4566 237.716 60.0566 236.616 59.7566C237.416 61.1566 236.716 62.8566 237.616 62.8566Z" fill="#656263"/>
<path d="M201.038 44.6832C208.538 48.1832 208.138 54.4832 208.738 52.8832C209.038 52.1832 210.038 49.0832 207.338 46.0832C205.238 43.6832 204.438 44.2832 205.238 42.2832C208.538 34.3832 210.538 22.2832 200.738 18.0832C199.638 17.5832 198.638 17.5832 198.638 17.7832C198.638 17.9832 199.738 18.2832 200.938 19.1832C207.438 23.4832 205.438 35.2832 199.438 41.0832C197.638 43.0832 198.538 43.5832 201.038 44.6832Z" fill="#656263"/>
<path d="M175.254 99.9855C175.754 99.9855 175.554 99.1855 175.354 98.8855C174.854 98.0855 174.054 97.5855 173.254 97.1855C173.454 97.9855 173.554 99.9855 174.354 99.9855H175.254Z" fill="#656263"/>
<path d="M152.527 99.9854C153.027 99.9854 152.627 99.1854 152.427 98.8854C151.927 98.0854 151.027 97.5854 150.327 97.2854C150.527 98.0854 150.627 99.9854 151.427 99.9854H152.527Z" fill="#656263"/>
<path d="M180.02 54.8331C184.12 54.3331 184.82 53.4331 185.52 50.3331C185.82 48.8331 186.92 47.3331 187.82 46.3331C188.42 45.6331 189.02 45.1331 189.62 44.1331C189.82 43.7331 189.92 43.4331 189.62 43.5331C189.12 43.8331 187.72 44.8331 187.12 45.2331C184.22 47.3331 179.72 48.3331 177.92 48.3331C174.12 48.3331 170.82 47.2331 167.42 47.2331C157.02 47.2331 153.12 55.3331 153.72 60.1331C153.82 60.8331 153.92 60.9331 154.22 60.9331C154.92 60.9331 155.52 58.1331 158.12 55.6331C161.92 52.0331 166.02 49.9331 171.92 49.9331C176.22 49.9331 177.92 51.3331 177.92 51.8331C177.92 52.9331 176.12 52.9331 176.22 54.0331C176.32 54.3331 177.32 55.1331 180.02 54.8331Z" fill="#656263"/>
<path d="M2.2002 107.7H213.1V104.1H2.2002V107.7Z" fill="#0A8137"/>
<path d="M26.3561 34.4596L28.8561 40.9596H23.8561L26.3561 34.4596ZM7.85608 33.4596C9.05608 33.4596 10.5561 34.0596 10.5561 35.5596C10.5561 36.9596 9.55606 37.8596 8.05606 37.8596H4.55606V33.4596C4.55606 33.4596 7.85608 33.4596 7.85608 33.4596ZM26.9561 63.3596C28.6561 63.3596 29.9561 64.0596 29.9561 65.8596C29.9561 67.5596 28.8561 68.4596 27.1561 68.4596H24.2561V63.3596H26.9561ZM87.7561 63.3596C89.6561 63.3596 90.8561 64.4596 90.8561 66.1596C90.8561 67.8596 89.6561 68.9596 87.6561 68.9596H85.2561V63.3596C85.1561 63.3596 87.7561 63.3596 87.7561 63.3596ZM8.35608 41.1596C9.95608 41.1596 11.0561 42.1596 11.0561 43.4596C11.0561 45.4596 9.25607 45.9596 7.75607 45.9596H4.55606V41.1596H8.35608ZM80.7561 49.4596H84.5561V30.0596H80.7561V49.4596ZM78.0561 3.75957C81.5561 3.75957 84.1561 6.35957 84.1561 9.85957C84.1561 13.4596 81.5561 16.0596 78.0561 16.0596H75.4561V3.75957C75.4561 3.75957 78.0561 3.75957 78.0561 3.75957ZM0.856079 0.259567V19.6596H13.2561V16.0596H4.55606V0.259567H0.856079ZM16.5561 0.259567V19.6596H28.9561V16.0596H20.2561V0.259567H16.5561ZM65.1561 0.259567L60.2561 8.65957L55.0561 0.259567H50.6561L58.1561 11.9596L53.4561 19.6596H57.6561L69.3561 0.259567C69.3561 0.259567 65.1561 0.259567 65.1561 0.259567ZM39.9561 3.55957C43.3561 3.55957 46.1561 6.35957 46.1561 9.95957C46.1561 13.6596 43.3561 16.4596 39.9561 16.4596C36.4561 16.4596 33.7561 13.6596 33.7561 9.95957C33.6561 6.35957 36.5561 3.55957 39.9561 3.55957ZM47.0561 63.1596C50.4561 63.1596 53.2561 65.9596 53.2561 69.5596C53.2561 73.2596 50.4561 76.0596 47.0561 76.0596C43.5561 76.0596 40.8561 73.2596 40.8561 69.5596C40.8561 65.9596 43.6561 63.1596 47.0561 63.1596ZM91.1561 5.55957C91.1561 8.25957 92.8561 10.0596 96.3561 11.1596C98.5561 11.8596 100.256 12.4596 100.256 14.1596C100.256 15.7596 98.6561 16.4596 97.1561 16.4596C95.1561 16.4596 93.2561 15.6596 91.4561 14.5596V18.3596C92.7561 19.0596 94.8561 19.8596 97.1561 19.8596C100.356 19.8596 103.856 17.7596 103.856 14.0596C103.856 10.3596 100.956 8.95957 98.4561 8.15957C95.2561 7.15957 94.6561 6.45957 94.6561 5.55957C94.6561 4.25957 95.8561 3.55957 97.7561 3.55957C99.5561 3.55957 101.156 4.15957 102.556 4.75957V1.25957C100.956 0.459567 99.3561 0.159569 97.6561 0.159569C93.8561 0.0595688 91.1561 2.25957 91.1561 5.55957ZM111.256 39.7596C111.256 45.6596 115.956 49.7596 121.656 49.7596C123.356 49.7596 125.056 49.4596 126.756 48.9596V38.9596H123.156V46.0596C122.856 46.1596 122.056 46.1596 121.656 46.1596C117.756 46.1596 115.056 43.3596 115.056 39.6596C115.056 35.8596 117.856 33.2596 121.856 33.2596C123.556 33.2596 124.956 33.6596 126.356 34.0596V30.5596C125.156 30.1596 123.556 29.8596 121.856 29.8596C115.956 29.8596 111.256 33.8596 111.256 39.7596ZM-0.0439453 69.5596C-0.0439453 75.4596 4.65608 79.5596 10.3561 79.5596C12.0561 79.5596 13.7561 79.2596 15.4561 78.7596V68.7596H11.8561V75.8596C11.5561 75.9596 10.7561 75.9596 10.3561 75.9596C6.35608 75.9596 3.75607 73.1596 3.75607 69.4596C3.75607 65.6596 6.55606 63.0596 10.5561 63.0596C12.2561 63.0596 13.6561 63.4596 15.0561 63.8596V60.2596C13.8561 59.8596 12.2561 59.5596 10.5561 59.5596C4.65606 59.6596 -0.0439453 63.6596 -0.0439453 69.5596ZM72.8561 59.8596V72.0596C72.8561 74.3596 71.2561 75.9596 68.9561 75.9596C66.6561 75.9596 64.9561 74.3596 64.9561 72.0596V59.8596H61.2561V72.1596C61.2561 76.5596 64.5561 79.5596 68.9561 79.5596C73.3561 79.5596 76.6561 76.5596 76.6561 72.1596V59.8596H72.8561ZM65.5561 30.0596H61.8561V49.4596H65.5561V40.2596L73.4561 49.4596H78.2561L69.6561 39.6596L77.7561 30.0596H73.2561L65.5561 39.2596C65.5561 39.2596 65.5561 30.0596 65.5561 30.0596ZM81.5561 59.8596V79.2596H85.1561V72.5596H87.7561C91.5561 72.5596 94.5561 70.0596 94.5561 66.1596C94.5561 62.3596 91.6561 59.8596 87.9561 59.8596C87.9561 59.8596 81.5561 59.8596 81.5561 59.8596ZM32.0561 49.4596H36.0561L28.0561 29.9596H24.5561L16.5561 49.4596H20.4561L22.4561 44.3596H30.0561C30.1561 44.3596 32.0561 49.4596 32.0561 49.4596ZM103.656 30.0596V42.7596L93.4561 30.0596H90.3561V49.4596H94.0561V36.0596L104.756 49.4596H107.456V30.0596H103.656ZM52.6561 30.0596V42.7596L42.4561 30.0596H39.3561V49.4596H43.0561V36.0596L53.7561 49.4596H56.4561V30.0596H52.6561ZM20.5561 59.8596V79.2596H24.2561V71.8596H26.5561L30.6561 79.2596H34.8561L30.1561 71.2596C32.3561 70.2596 33.6561 68.2596 33.6561 65.8596C33.6561 62.0596 30.8561 59.8596 27.0561 59.8596C27.1561 59.8596 20.5561 59.8596 20.5561 59.8596ZM0.856079 30.0596V49.4596H7.95605C12.2561 49.4596 14.8561 47.2596 14.8561 43.6596C14.8561 41.7596 13.8561 40.1596 12.0561 39.1596C13.1561 38.4596 14.2561 37.0596 14.2561 35.3596C14.2561 32.1596 11.8561 30.0596 8.25607 30.0596C8.15607 30.0596 0.856079 30.0596 0.856079 30.0596ZM71.7561 0.259567V19.6596H77.9561C83.5561 19.6596 87.9561 15.3596 87.9561 9.95957C87.9561 4.55957 83.5561 0.259567 77.9561 0.259567H71.7561V0.259567ZM29.8561 9.95957C29.8561 15.5596 34.3561 19.9596 39.9561 19.9596C45.5561 19.9596 50.0561 15.5596 50.0561 9.95957C50.0561 4.45957 45.4561 0.0595703 39.9561 0.0595703C34.4561 0.0595703 29.8561 4.45957 29.8561 9.95957ZM37.0561 69.4596C37.0561 75.0596 41.5561 79.4596 47.1561 79.4596C52.7561 79.4596 57.2561 75.0596 57.2561 69.4596C57.2561 63.9596 52.6561 59.5596 47.1561 59.5596C41.6561 59.6596 37.0561 64.0596 37.0561 69.4596Z" fill="#231F20"/>
</g>
<defs>
<clipPath id="clip0">
<rect width="240" height="107.7" fill="white"/>
</clipPath>
</defs>
</svg>
