<svg width="123" height="105" viewBox="0 0 123 105" fill="none" xmlns="http://www.w3.org/2000/svg">
<path d="M40.8428 40.8019C38.9444 40.8019 37.4057 42.1754 36.7688 43.8673C36.7648 43.8789 36.7637 43.8913 36.7654 43.9034C36.7672 43.9156 36.7718 43.9272 36.7788 43.9372C36.7859 43.9472 36.7952 43.9554 36.8061 43.9611C36.8169 43.9668 36.829 43.9699 36.8412 43.97H44.5147C44.526 43.9702 44.5372 43.9678 44.5475 43.9632C44.5578 43.9585 44.567 43.9516 44.5744 43.943C44.5817 43.9344 44.5872 43.9243 44.5902 43.9134C44.5933 43.9025 44.5939 43.891 44.5921 43.8798C44.4143 43.0128 43.9446 42.2336 43.2618 41.6731C42.5791 41.1127 41.7249 40.805 40.8428 40.8019Z" fill="white"/>
<path d="M87.0386 41.0475C86.1275 41.0574 85.2398 41.3377 84.4874 41.8532C83.7349 42.3686 83.1514 43.0961 82.8103 43.9438C82.4693 44.7916 82.3861 45.7217 82.5711 46.6168C82.7562 47.512 83.2012 48.3321 83.8501 48.9738C84.499 49.6155 85.3228 50.0501 86.2174 50.2227C87.1121 50.3953 88.0377 50.2983 88.8775 49.9438C89.7173 49.5893 90.4337 48.9932 90.9364 48.2307C91.4391 47.4683 91.7055 46.5735 91.7021 45.6593C91.685 44.4298 91.1861 43.2565 90.3133 42.3933C89.4405 41.5302 88.264 41.0467 87.0386 41.0475Z" fill="white"/>
<path d="M60.8658 0.00463867C22.1637 0.00463867 0 26.3072 0 47.078C0 69.4304 22.1637 73.8342 32.4025 73.8342C48.264 73.8342 54.064 72.4005 65.8166 77.5588C87.4157 87.0406 87.8653 104.538 96.9776 104.538C102.942 104.538 122.403 78.4711 122.403 55.3192C122.403 25.1918 94.6171 0.00463867 60.8658 0.00463867ZM30.7514 52.913C30.7517 53.0237 30.7302 53.1333 30.6881 53.2357C30.6461 53.338 30.5843 53.431 30.5063 53.5092C30.4283 53.5875 30.3356 53.6495 30.2336 53.6917C30.1317 53.7339 30.0224 53.7555 29.9121 53.7551H27.4142C27.3039 53.7555 27.1946 53.7339 27.0926 53.6917C26.9906 53.6495 26.898 53.5875 26.82 53.5092C26.742 53.431 26.6802 53.338 26.6381 53.2357C26.5961 53.1333 26.5746 53.0237 26.5749 52.913V44.925C26.5749 41.7869 24.9113 41.1052 23.2452 41.1052C21.5792 41.1052 19.9156 41.7543 19.9156 44.8648V52.913C19.9159 53.0235 19.8945 53.1329 19.8526 53.2351C19.8107 53.3372 19.7491 53.4301 19.6714 53.5083C19.5936 53.5866 19.5013 53.6486 19.3996 53.691C19.2979 53.7334 19.1889 53.7551 19.0788 53.7551H16.5809C16.4707 53.7551 16.3615 53.7334 16.2597 53.691C16.1579 53.6487 16.0654 53.5867 15.9874 53.5085C15.9095 53.4303 15.8477 53.3374 15.8055 53.2353C15.7633 53.1331 15.7416 53.0236 15.7416 52.913V38.1802C15.7384 38.0598 15.7615 37.9401 15.8095 37.8297C15.8574 37.7192 15.929 37.6207 16.019 37.5411C16.1091 37.4615 16.2155 37.4027 16.3307 37.3689C16.446 37.3351 16.5672 37.3271 16.6858 37.3455C17.8723 37.5009 19.6833 37.9395 19.6833 37.9395C19.6833 37.9395 21.1695 37.0623 24.2219 37.1751C27.7539 37.3079 30.7688 39.3331 30.7688 44.4137L30.7514 52.913ZM48.9709 46.1957C48.9569 46.4087 48.8626 46.6084 48.7072 46.7541C48.5517 46.8999 48.3468 46.9807 48.1341 46.9803H36.5964C37.071 48.9603 38.6696 50.3564 41.0926 50.3564C42.3757 50.3845 43.623 49.9303 44.5896 49.0832C44.7367 48.9458 44.928 48.866 45.1287 48.8582C45.3295 48.8504 45.5264 48.9151 45.6837 49.0405C45.6837 49.0405 46.8502 49.9955 47.2623 50.2938C47.3518 50.364 47.4261 50.4519 47.4806 50.5519C47.5352 50.6519 47.5689 50.762 47.5796 50.8755C47.5904 50.9891 47.578 51.1036 47.5432 51.2121C47.5084 51.3207 47.4519 51.4209 47.3772 51.5069C45.851 53.1912 43.5605 54.1336 41.1325 54.1336C36.2742 54.1336 32.5348 50.4843 32.5348 45.7446C32.5348 41.1403 35.7646 37.155 40.8952 37.155C45.6537 37.155 49.0183 41.0726 49.0183 45.6418C48.9884 45.8298 48.9809 46.0128 48.9709 46.1957ZM65.8215 50.9254C65.0048 51.9353 63.9726 52.7485 62.801 53.305C61.6295 53.8616 60.3485 54.1473 59.0523 54.1411C57.9292 54.1605 56.8135 53.9553 55.7703 53.5374C54.7271 53.1195 53.7773 52.4974 52.9762 51.7073C52.1752 50.9172 51.5389 49.9749 51.1046 48.9355C50.6703 47.896 50.4466 46.7802 50.4466 45.6531C50.4466 44.526 50.6703 43.4102 51.1046 42.3707C51.5389 41.3313 52.1752 40.389 52.9762 39.5989C53.7773 38.8088 54.7271 38.1867 55.7703 37.7688C56.8135 37.3509 57.9292 37.1457 59.0523 37.1651C60.3188 37.1616 61.5707 37.437 62.7196 37.9718C63.8685 38.5067 64.8864 39.2879 65.7016 40.2605C65.7789 40.3566 65.8343 40.4685 65.8638 40.5884C65.8933 40.7083 65.8962 40.8332 65.8724 40.9544C65.8486 41.0756 65.7986 41.19 65.7259 41.2897C65.6533 41.3893 65.5597 41.4718 65.4519 41.5313L63.3412 42.7619C63.1784 42.8635 62.9857 42.9058 62.7956 42.8816C62.6054 42.8574 62.4294 42.7682 62.297 42.6291C61.7952 42.0855 61.1662 41.676 60.467 41.4375C59.7678 41.1991 59.0203 41.1393 58.2923 41.2635C57.5643 41.3877 56.8786 41.6921 56.2972 42.149C55.7158 42.6059 55.257 43.201 54.9624 43.8805C54.6678 44.56 54.5466 45.3024 54.6098 46.0407C54.6729 46.779 54.9184 47.4899 55.3242 48.1091C55.7299 48.7282 56.283 49.2362 56.9335 49.587C57.584 49.9378 58.3113 50.1204 59.0498 50.1183C60.029 50.1183 61.1055 49.9128 62.4469 48.5393C62.5769 48.4116 62.745 48.3303 62.9254 48.3077C63.1059 48.285 63.2888 48.3224 63.4461 48.4139L65.5743 49.6872C65.676 49.7482 65.7639 49.8299 65.8323 49.9271C65.9007 50.0242 65.9481 50.1347 65.9714 50.2513C65.9947 50.3679 65.9934 50.4882 65.9676 50.6043C65.9418 50.7204 65.892 50.8297 65.8215 50.9254ZM77.3792 40.4811C77.3792 40.7044 77.2908 40.9186 77.1334 41.0766C76.976 41.2345 76.7625 41.3232 76.5399 41.3232H73.6149V47.9653C73.6149 49.2486 73.9222 50.1083 75.4159 50.1083C75.7934 50.1158 76.171 50.0932 76.5449 50.0406C76.6462 50.0215 76.7504 50.025 76.8502 50.0508C76.9501 50.0765 77.043 50.1239 77.1226 50.1896C77.2021 50.2554 77.2663 50.3378 77.3107 50.4312C77.355 50.5245 77.3784 50.6265 77.3792 50.7299V53.0609C77.3793 53.2565 77.3115 53.446 77.1876 53.5969C77.0636 53.7478 76.8911 53.8507 76.6998 53.888C75.8558 54.0229 75.0014 54.0807 74.147 54.0609C71.3993 54.0609 69.361 52.156 69.361 48.617V41.3333H67.9722C67.75 41.3326 67.5372 41.2436 67.3804 41.0857C67.2235 40.9278 67.1354 40.714 67.1354 40.4911V38.3456C67.1351 38.2351 67.1565 38.1257 67.1984 38.0235C67.2403 37.9213 67.3019 37.8285 67.3796 37.7502C67.4574 37.672 67.5497 37.6099 67.6514 37.5676C67.7531 37.5252 67.8621 37.5034 67.9722 37.5034H69.361V34.3704C69.361 34.2601 69.3827 34.1509 69.4247 34.0491C69.4668 33.9472 69.5284 33.8546 69.6061 33.7766C69.6838 33.6987 69.7761 33.6368 69.8776 33.5946C69.9791 33.5524 70.0879 33.5307 70.1978 33.5307H72.7781C73.0001 33.5307 73.2129 33.6192 73.3698 33.7766C73.5268 33.9341 73.6149 34.1477 73.6149 34.3704V37.5034H76.5399C76.6502 37.5031 76.7595 37.5247 76.8615 37.5669C76.9635 37.6091 77.0561 37.6711 77.1341 37.7493C77.2121 37.8276 77.2739 37.9206 77.316 38.0229C77.3581 38.1252 77.3795 38.2349 77.3792 38.3456V40.4811ZM96.5879 53.7652H94.712C93.5929 53.7652 93.5879 53.2814 92.8361 52.3841C92.6487 52.1611 92.4414 52.1335 92.1517 52.3666C90.9027 53.4143 89.5014 54.1587 86.8886 54.1587C84.6441 54.1587 82.4916 53.264 80.9045 51.6715C79.3174 50.079 78.4258 47.9191 78.4258 45.6669C78.4258 43.4147 79.3174 41.2548 80.9045 39.6623C82.4916 38.0697 84.6441 37.1751 86.8886 37.1751C88.4684 37.1179 90.0243 37.5742 91.3249 38.4759C91.3294 38.4792 91.3347 38.4811 91.3403 38.4815C91.3458 38.4819 91.3514 38.4807 91.3563 38.4781C91.3612 38.4755 91.3653 38.4716 91.3682 38.4668C91.371 38.4619 91.3724 38.4564 91.3723 38.4509V38.3556C91.3723 38.1316 91.461 37.9167 91.6189 37.7583C91.7767 37.5999 91.9908 37.5109 92.2141 37.5109H94.712C94.8221 37.5109 94.9311 37.5327 95.0328 37.5751C95.1345 37.6174 95.2268 37.6795 95.3046 37.7578C95.3823 37.836 95.4439 37.9289 95.4858 38.031C95.5277 38.1332 95.5491 38.2426 95.5488 38.3531V42.8998C95.5488 45.8774 95.7136 47.4239 96.0683 48.8526C96.3941 50.1259 96.8244 51.37 97.3547 52.5721C97.4202 52.7001 97.451 52.8431 97.444 52.9869C97.4369 53.1306 97.3923 53.2699 97.3146 53.3908C97.2369 53.5117 97.1288 53.61 97.0012 53.6757C96.8737 53.7414 96.7311 53.7723 96.5879 53.7652ZM108.665 41.1753C104.007 41.3057 103.257 42.3734 103.257 44.9826V52.913C103.258 53.0235 103.236 53.1329 103.194 53.2351C103.152 53.3372 103.091 53.4301 103.013 53.5083C102.935 53.5866 102.843 53.6486 102.741 53.691C102.64 53.7334 102.531 53.7551 102.42 53.7551H99.9226C99.8125 53.7551 99.7034 53.7334 99.6018 53.691C99.5001 53.6486 99.4077 53.5866 99.33 53.5083C99.2522 53.4301 99.1906 53.3372 99.1487 53.2351C99.1068 53.1329 99.0854 53.0235 99.0858 52.913V38.1977C99.0864 38.0765 99.1128 37.9569 99.1633 37.8468C99.2138 37.7367 99.2871 37.6388 99.3784 37.5595C99.4698 37.4802 99.5769 37.4214 99.6927 37.3871C99.8086 37.3528 99.9304 37.3438 100.05 37.3606C100.515 37.4332 103.475 37.9395 103.475 37.9395C104.833 37.6037 106.067 37.1876 108.633 37.1651C108.744 37.1637 108.854 37.1845 108.957 37.2263C109.06 37.268 109.154 37.3298 109.233 37.4081C109.312 37.4865 109.374 37.5798 109.417 37.6826C109.46 37.7854 109.482 37.8958 109.482 38.0072V40.3207C109.477 40.5387 109.39 40.7468 109.238 40.9033C109.087 41.0599 108.882 41.1534 108.665 41.1653V41.1753Z" fill="white"/>
</svg>
