<svg width="266" height="144" viewBox="0 0 266 144" fill="none" xmlns="http://www.w3.org/2000/svg">
<path d="M204.8 45.1C202 47.3 198.4 48.6 194.5 48.6C185.5 48.6 178.2 41.5 178.2 32.8C178.2 24.1 185.6 17 194.6 17C198.5 17 202.1 18.3 204.9 20.5L208.4 17C204.7 13.9 199.9 12.1 194.7 12.1C183 12.1 173.5 21.4 173.5 32.8C173.5 44.2 183 53.5 194.7 53.5C199.9 53.5 204.7 51.6 208.4 48.6L204.8 45.1Z" fill="black"/>
<path d="M142.2 81.9C143.9 81.9 145.3 80.5 145.3 78.8C145.3 77.1 143.9 75.7 142.2 75.7C140.5 75.7 139.1 77.1 139.1 78.8C139.1 80.5 140.5 81.9 142.2 81.9Z" fill="black"/>
<path d="M144.7 87.7999H139.8V129.1H144.7V87.7999Z" fill="black"/>
<path d="M40 32.7C40 21.4 31 12.1 20 12.1C14.1 12.1 8.6 14.7 4.9 19.2V12.1H0V68.3H4.9V46.2C8.7 50.8 14.1 53.4 20 53.4C31 53.4 40 44.1 40 32.7ZM20 48.5C11.8 48.5 5.2 41.8 4.9 33.3V32.7C4.9 24 11.6 17 20 17C28.4 17 35.1 24 35.1 32.7C35.1 41.4 28.3 48.5 20 48.5Z" fill="black"/>
<path d="M58.0996 129.1C63.9996 129.1 69.3996 126.5 73.1996 121.9V129.1H78.0996V87.8H73.1996V94.9C69.3996 90.4 63.9996 87.8 58.0996 87.8C47.0996 87.8 38.0996 97 38.0996 108.4C38.1996 119.8 47.0996 129.1 58.0996 129.1ZM42.9996 108.3C42.9996 99.6 49.7996 92.6 58.0996 92.6C66.3996 92.6 73.1996 99.6 73.1996 108.3V108.9C72.8996 117.4 66.1996 124.1 58.0996 124.1C49.7996 124.2 42.9996 117.1 42.9996 108.3Z" fill="black"/>
<path d="M130.8 108.3C130.8 97 121.8 87.7 110.8 87.7C104.9 87.7 99.3998 90.3 95.6998 94.8V87.7H90.7998V144H95.6998V121.9C99.4998 126.5 104.9 129.1 110.8 129.1C121.9 129.1 130.8 119.8 130.8 108.3ZM110.9 124.2C102.7 124.2 96.0998 117.5 95.7998 109V108.4C95.7998 99.7 102.6 92.7 110.9 92.7C119.2 92.7 126 99.7 126 108.4C126 117.1 119.2 124.2 110.9 124.2Z" fill="black"/>
<path d="M76.4 12.1V36.5C76.4 43.2 71.1 48.6 64.3 48.6C57.6 48.5 52.3 43.2 52.3 36.5V12.1H47.5V36.5C47.5 45.8 55 53.4 64.3 53.4C73.7 53.4 81.3 45.8 81.3 36.5V12.1H76.4Z" fill="black"/>
<path d="M110.9 12.1C105 12.1 99.6004 14.7 95.8004 19.3V0H90.9004V53.5H95.8004V46.4C99.6004 50.9 105 53.5 110.9 53.5C121.9 53.5 130.9 44.3 130.9 32.9C130.8 21.4 121.9 12.1 110.9 12.1ZM126 32.8C126 41.5 119.2 48.5 110.9 48.5C102.6 48.5 95.8004 41.5 95.8004 32.8V32.2C96.1004 23.7 102.8 17 110.9 17C119.2 17 126 24.1 126 32.8Z" fill="black"/>
<path d="M161.3 6.2C163 6.2 164.4 4.8 164.4 3.1C164.4 1.4 163 0 161.3 0C159.6 0 158.2 1.4 158.2 3.1C158.2 4.8 159.6 6.2 161.3 6.2Z" fill="black"/>
<path d="M163.8 12.1H158.9V53.4H163.8V12.1Z" fill="black"/>
<path d="M222.2 6.2C223.9 6.2 225.3 4.8 225.3 3.1C225.3 1.4 223.9 0 222.2 0C220.5 0 219.1 1.4 219.1 3.1C219 4.8 220.4 6.2 222.2 6.2Z" fill="black"/>
<path d="M224.6 12.1H219.7V53.4H224.6V12.1Z" fill="black"/>
<path d="M221.8 87.8C217.2 87.8 212.8 89.7 209.7 93V87.8H205V129.1H209.7V104.6C209.9 97.9 215.3 92.5 221.8 92.5C228.5 92.5 233.9 97.9 233.9 104.6V129.1H238.7V104.6C238.6 95.3 231 87.8 221.8 87.8Z" fill="black"/>
<path d="M263.7 124.4L263.2 124.5C262.7 124.6 262 124.8 260.8 124.8C258.8 124.8 258 123.6 258 120.7V92.5H263.7V87.8H258V73.9H253V87.8H247.2V92.5H253V120.8C253 123.9 253.6 125.9 254.7 127.2C255.8 128.5 257.5 129.1 259.6 129.1C261.2 129.1 262.6 128.9 263.5 128.5L263.8 128.4L263.7 124.4Z" fill="black"/>
<path d="M187.8 117.2C185.1 121.6 180.3 124.3 175.1 124.3C167.1 124.3 160.4 117.9 159.8 109.6H192.6C193.9 109.6 195 108.6 195 107.4V107C194.1 96.1 185.6 87.8 175.1 87.8C164 87.8 155 97.1 155 108.5C155 119.8 164 129.1 175.1 129.1C181.9 129.1 188.1 125.6 191.8 119.8L187.8 117.2ZM175.1 92.6C182.2 92.6 188.3 97.8 189.8 104.9H160.2C161.8 97.6 167.9 92.6 175.1 92.6Z" fill="black"/>
<path d="M27.0004 109.2C27.0004 109.2 25.7004 108.2 24.4004 107.6C23.0004 107 21.1004 106.4 17.0004 105.4C16.4004 105.3 15.9004 105.2 15.4004 105C12.7004 104.3 10.6004 103.4 9.00039 102.3C7.50039 101 7.00039 99.9 7.00039 98.5C7.10039 97 8.00039 95.5 9.60039 94.3C11.4004 92.9 14.1004 92.3 17.1004 92.4C20.5004 92.5 23.1004 94.3 25.9004 96.3L26.2004 96.5L29.7004 93.2C29.3004 92.8 29.2004 92.7 28.0004 91.9C25.2004 90 21.8004 88 17.2004 87.8C13.2004 87.6 9.70039 88.4 6.90039 90.2C3.90039 92.2 2.00039 95.1 2.00039 98.2C2.00039 100.5 2.40039 102.7 4.80039 104.9C7.60039 107.6 11.9004 109 15.8004 109.7C19.2004 110.4 22.3004 111.6 23.9004 112.9C25.8004 114.6 26.4004 115.9 26.4004 117.7C26.3004 119.4 25.2004 121 23.3004 122.2C21.4004 123.6 18.6004 124.4 15.8004 124.3C12.0004 124.1 8.10039 122.5 4.20039 119.4L3.90039 119.2L0.400391 122.4L0.700391 122.7C5.30039 126.6 10.2004 128.8 15.5004 129.1C19.4004 129.3 22.8004 128.3 26.0004 126.2C29.2004 124 31.0004 121.1 31.2004 117.9C31.5004 114.6 29.8004 111.2 27.0004 109.2Z" fill="black"/>
<path d="M260.7 33.4999C260.7 33.4999 259.4 32.4999 258.1 31.8999C256.7 31.2999 254.8 30.6999 250.7 29.6999C250.1 29.5999 249.6 29.4999 249.1 29.2999C246.4 28.5999 244.3 27.6999 242.7 26.5999C241.2 25.2999 240.6 24.1999 240.7 22.7999C240.8 21.2999 241.7 19.7999 243.3 18.5999C245.1 17.1999 247.8 16.5999 250.8 16.6999C254.2 16.7999 256.8 18.5999 259.6 20.5999L259.9 20.7999L263.4 17.4999C263 17.0999 262.9 16.9999 261.7 16.1999C258.9 14.2999 255.5 12.2999 250.9 12.0999C246.9 11.8999 243.4 12.6999 240.6 14.4999C237.6 16.4999 235.7 19.3999 235.7 22.4999C235.7 24.7999 236.1 26.9999 238.5 29.1999C241.3 31.8999 245.6 33.2999 249.5 33.9999C252.9 34.6999 256 35.8999 257.6 37.1999C259.5 38.8999 260.1 40.1999 260.1 41.9999C260 43.6999 258.9 45.2999 257 46.4999C255.1 47.8999 252.3 48.6999 249.5 48.5999C245.7 48.3999 241.8 46.7999 237.9 43.6999L237.6 43.4999L234.1 46.6999L234.4 46.9999C239 50.8999 243.9 53.0999 249.2 53.3999C253.1 53.5999 256.5 52.5999 259.7 50.4999C262.9 48.2999 264.7 45.3999 264.9 42.1999C265.2 38.8999 263.6 35.4999 260.7 33.4999Z" fill="black"/>
<path d="M144.7 0H139.8V53.4H144.7V0Z" fill="black"/>
</svg>
