<svg width="232" height="63" viewBox="0 0 232 63" fill="none" xmlns="http://www.w3.org/2000/svg">
<g clip-path="url(#clip0)">
<path d="M26.6641 20.2842C21.4077 22.1539 19.6086 27.2339 19.6086 27.2339C18.903 29.1037 17.0333 30.5148 14.9166 30.5148H5.00358C2.25192 30.5148 -0.00585938 28.257 -0.00585938 25.5053C-0.00585938 22.7537 1.86386 20.6017 5.00358 20.6017H12.8705L1.47581 9.207C-0.464471 7.26672 -0.464471 4.127 1.47581 2.18672C3.45136 0.246442 6.55581 0.246442 8.53136 2.18672L19.8908 13.4756V5.67922C19.8908 2.96283 22.078 0.705049 24.9002 0.705049C27.6519 0.705049 29.8391 2.96283 29.8391 5.67922V15.5923C29.8039 17.7089 28.5691 19.6845 26.6641 20.2842ZM24.865 62.3001C22.1133 62.3001 19.9261 60.5009 20.0319 57.3964V49.4942L8.60192 60.8889C6.66164 62.8292 3.45136 62.8292 1.54636 60.8889C-0.393915 58.9487 -0.393915 55.7384 1.54636 53.8687L12.8705 42.5445H5.07414C2.25192 42.5445 0.0646958 40.2867 0.0646958 37.5703C0.0646958 34.8539 2.25192 32.5609 5.07414 32.5609H15.0225C17.1391 32.5609 19.0089 33.7956 19.7144 35.7006C21.5136 40.9923 26.5936 42.7914 26.5936 42.7914C28.5691 43.497 29.8744 45.2962 29.8744 47.4834V57.3612C29.8744 60.1128 27.6872 62.3001 24.865 62.3001ZM56.8619 42.4739H48.9597L60.3897 53.8687C62.33 55.8089 62.33 58.9487 60.3897 60.8889C58.4494 62.8292 55.3097 62.8292 53.3341 60.8889L41.9747 49.5648V57.3612C41.9747 60.3245 39.7169 62.3706 36.9652 62.3706C34.2136 62.3706 31.9558 60.1128 31.9558 57.3612V47.4481C31.9558 45.3314 33.2964 43.3912 35.1661 42.7562C40.4225 40.957 42.2216 35.8417 42.2216 35.8417C42.9272 33.972 44.7969 32.5609 46.9136 32.5609H56.8619C59.6136 32.5609 61.8714 34.8187 61.8714 37.5703C61.8714 40.2867 59.8252 42.4739 56.8619 42.4739ZM56.9325 30.4442H46.9841C44.8675 30.4442 42.9272 29.2095 42.2922 27.3398C40.5283 22.0834 35.3425 20.2137 35.3425 20.2137C33.4728 19.5081 32.0616 17.7089 32.0616 15.5217V5.60866C32.0616 2.89227 34.3194 0.705049 37.0711 0.705049C39.8227 0.705049 42.01 2.71589 42.01 5.60866V13.5462L53.44 2.08089C55.3802 0.140607 58.52 0.140607 60.4955 2.08089C62.4358 4.02116 62.4358 7.23144 60.4955 9.17172L49.2419 20.4253H57.003C59.7547 20.4253 62.0125 22.6831 62.0125 25.4348C62.0125 28.1864 59.6841 30.4442 56.9325 30.4442Z" fill="#15366F"/>
<path d="M80.3387 15.1023H80.7267L86.9709 25.0859H92.5095L87.112 16.972C86.5476 16.1607 85.9126 15.1729 85.2423 14.3262C88.4878 13.7618 90.9573 11.1865 90.9573 7.72927C90.9573 2.96677 87.6412 0.673714 82.5259 0.673714C79.8448 0.673714 77.6576 0.708992 75.8584 0.814825V25.0859H80.3387V15.1023V15.1023ZM80.3387 4.48371C80.7973 4.41316 81.4323 4.37788 82.1026 4.37788C84.9248 4.37788 86.3006 6.00066 86.3006 8.22316C86.3006 10.3751 84.6426 11.892 81.9615 11.892C81.2912 11.892 80.6562 11.8568 80.3387 11.8215V4.48371Z" fill="#15366F"/>
<path d="M101.738 7.6658C96.5523 7.6658 92.9893 11.5111 92.9893 16.838C92.9893 22.9411 96.1643 25.4458 100.997 25.4458C106.077 25.4458 109.746 21.6005 109.746 16.2383C109.781 10.3469 106.642 7.6658 101.738 7.6658ZM101.385 21.7064C98.8806 21.7064 97.5754 19.9072 97.5754 16.4147C97.5754 12.9222 99.5156 11.4052 101.456 11.4052C104.031 11.4052 105.231 13.2044 105.231 16.4852C105.231 19.9425 103.537 21.7064 101.385 21.7064Z" fill="#15366F"/>
<path d="M121.021 26.0818L127.795 8.01956H123.068L121.057 13.8404C120.492 15.4279 119.787 17.7209 119.399 19.2732H119.363C118.975 17.7209 118.517 16.0276 118.023 14.5459L115.73 8.01956H110.791L117.106 25.1293L116.541 26.6462C115.624 29.3273 114.107 29.9976 112.661 29.9976C111.955 29.9976 111.144 29.8565 110.509 29.6448L109.979 33.4196C110.65 33.5607 111.673 33.6665 112.378 33.6665C116.4 33.6665 118.799 32.0084 121.021 26.0818Z" fill="#15366F"/>
<path d="M133.585 25.4585C136.019 25.4585 138.03 24.2238 138.912 22.4599V25.1057H143.11C143.004 23.6946 142.969 22.0718 142.969 20.696V13.6404C142.969 9.83044 141.382 7.60794 136.09 7.60794C133.797 7.60794 131.327 8.10183 129.634 8.77211L130.34 12.1588C131.857 11.4885 133.938 10.9946 135.49 10.9946C137.748 10.9946 138.559 11.9118 138.559 13.9932V14.6282C132.562 14.6282 128.682 16.5332 128.682 20.5902C128.717 23.3771 130.481 25.4585 133.585 25.4585ZM138.559 17.521V17.9796C138.559 20.0257 137.113 22.1071 134.996 22.1071C133.726 22.1071 132.95 21.2252 132.95 20.0963C132.95 18.6146 134.15 17.521 138.559 17.521Z" fill="#15366F"/>
<path d="M177.622 17.4009C177.622 14.8256 175.929 12.6031 173.459 12.1092V12.0387C175.682 11.1567 176.952 9.04004 176.952 6.71171C176.952 3.00754 174.165 0.855601 169.191 0.855601C166.368 0.855601 163.44 0.926156 161.5 1.03199V25.1267C164.428 25.1267 166.721 25.1973 168.273 25.1973C175.082 25.162 177.622 20.9639 177.622 17.4009ZM165.98 4.48921C166.686 4.45393 167.532 4.41866 168.485 4.41866C171.201 4.41866 172.224 5.68866 172.224 7.41727C172.224 9.49866 170.849 10.8392 167.779 10.8392C167.074 10.8392 166.509 10.8392 165.945 10.8039V4.48921H165.98ZM165.98 14.2259C166.474 14.1906 167.638 14.1906 167.956 14.1906C171.025 14.1906 172.859 15.3195 172.859 17.542C172.859 19.5881 171.378 21.5637 168.45 21.5637C167.638 21.5637 166.509 21.4931 165.98 21.4578V14.2259Z" fill="#15366F"/>
<path d="M150.926 0.0478516H146.526V25.1479H150.926V0.0478516Z" fill="#15366F"/>
<path d="M180.206 20.5687C180.206 23.3556 182.005 25.437 185.11 25.437C187.544 25.437 189.555 24.2023 190.437 22.4384V25.1195H194.635C194.529 23.7084 194.494 22.0856 194.494 20.7098V13.6542C194.494 9.84423 192.906 7.62173 187.614 7.62173C185.321 7.62173 182.852 8.11562 181.159 8.7859L181.899 12.1726C183.416 11.5023 185.498 11.0084 187.05 11.0084C189.308 11.0084 190.119 11.9256 190.119 14.007V14.6067C184.087 14.6067 180.206 16.5117 180.206 20.5687ZM190.084 17.9581C190.084 20.0042 188.637 22.0856 186.521 22.0856C185.251 22.0856 184.439 21.2037 184.439 20.0748C184.439 18.5931 185.639 17.4995 190.084 17.4995V17.9581Z" fill="#15366F"/>
<path d="M202.467 16.8689C202.467 13.8703 204.231 11.3656 206.418 11.3656C208.076 11.3656 208.535 12.4239 208.535 14.1878V25.1239H212.91V13.1295C212.91 10.1308 211.675 7.69668 207.83 7.69668C205.219 7.69668 203.314 8.96668 202.22 10.7658V8.04946H198.058V25.1592H202.467V16.8689Z" fill="#15366F"/>
<path d="M83.3172 44.5501C78.1314 44.5501 74.5684 48.3954 74.5684 53.7223C74.5684 59.8254 77.7434 62.3301 82.5764 62.3301C87.6564 62.3301 91.3253 58.4848 91.3253 53.1226C91.3606 47.2312 88.2209 44.5501 83.3172 44.5501ZM82.9645 58.5906C80.4597 58.5906 79.1545 56.7915 79.1545 53.299C79.1545 49.7712 81.0947 48.2895 83.035 48.2895C85.6103 48.2895 86.8097 50.0887 86.8097 53.3695C86.8097 56.8267 85.1164 58.5906 82.9645 58.5906Z" fill="#15366F"/>
<path d="M95.8336 43.5412V44.9523H92.835V48.3742H95.8336V62.062H100.208V48.3742H104.194V44.9523H100.208V43.5059C100.208 41.2481 101.055 40.2251 102.995 40.2251C103.63 40.2251 104.441 40.2956 105.112 40.5426L105.429 36.9442C104.547 36.7326 103.559 36.662 102.642 36.662C97.9855 36.662 95.8336 38.9198 95.8336 43.5412Z" fill="#15366F"/>
<path d="M116.46 44.2222C116.46 42.5641 117.659 41.4353 120.27 41.4353C121.646 41.4353 122.986 41.6822 124.256 42.0703L124.679 38.1544C123.374 37.8722 121.751 37.6958 120.481 37.6958C114.872 37.6958 111.697 40.5533 111.697 44.6808C111.697 52.3361 121.469 50.925 121.469 55.37C121.469 57.5572 119.67 58.4039 117.589 58.4039C115.719 58.4039 114.026 58.0158 112.544 57.4161L112.05 61.72C113.602 62.1433 115.366 62.355 117.412 62.355C122.774 62.355 126.408 59.1447 126.408 54.8408C126.408 47.503 116.46 48.385 116.46 44.2222Z" fill="#15366F"/>
<path d="M136.847 58.5124C133.919 58.5124 132.861 56.4663 132.861 53.5735C132.861 50.3985 134.201 48.3171 136.812 48.3171C137.941 48.3171 139.07 48.5993 140.022 48.9521L140.692 45.1774C139.599 44.7893 138.258 44.5777 136.953 44.5777C131.026 44.5777 128.239 48.6699 128.239 53.9968C128.239 59.8177 131.203 62.2871 135.93 62.2871C137.588 62.2871 139.422 62.0049 140.763 61.511L140.163 57.8421C139.175 58.2654 138.011 58.5124 136.847 58.5124Z" fill="#15366F"/>
<path d="M150.473 44.5501C145.287 44.5501 141.724 48.3954 141.724 53.7223C141.724 59.8254 144.899 62.3301 149.732 62.3301C154.812 62.3301 158.481 58.4848 158.481 53.1226C158.516 47.2312 155.376 44.5501 150.473 44.5501ZM150.12 58.5906C147.615 58.5906 146.31 56.7915 146.31 53.299C146.31 49.7712 148.25 48.2895 150.19 48.2895C152.766 48.2895 153.965 50.0887 153.965 53.3695C153.965 56.8267 152.272 58.5906 150.12 58.5906Z" fill="#15366F"/>
<path d="M220.727 17.2478L226.027 25.1479H231.527L224.727 15.8479L231.027 8.04785H225.627L220.627 14.3479V0.0478516H216.227V25.1479H220.627L220.727 17.2478Z" fill="#15366F"/>
<path d="M195.612 50.5903C195.612 46.7803 194.024 44.5578 188.733 44.5578C186.439 44.5578 183.97 45.0517 182.277 45.7219L182.982 49.0733C184.499 48.4383 186.581 47.9092 188.133 47.9092C190.391 47.9092 191.202 48.8264 191.202 50.9078V51.5428C185.205 51.5428 181.324 53.4478 181.324 57.5047C181.324 60.2917 183.123 62.373 186.193 62.373C188.627 62.373 190.638 61.1383 191.519 59.3744V62.0555H195.718C195.612 60.6444 195.576 59.0217 195.576 57.6458V50.5903H195.612ZM191.202 54.8589C191.202 56.9403 189.756 58.9864 187.639 58.9864C186.369 58.9864 185.558 58.1044 185.558 56.9755C185.558 55.4939 186.757 54.4003 191.202 54.4003V54.8589Z" fill="#15366F"/>
<path d="M174.427 62.0478H178.827V36.9478H174.427V62.0478Z" fill="#15366F"/>
<path d="M169.322 58.6098C167.805 58.6098 167.311 57.9748 167.311 55.7876V48.2734H171.474V44.8515H167.311V37.6901L162.937 38.8542V44.8515H159.974V48.2734H162.937V56.9517C162.937 60.9381 164.101 62.314 167.876 62.314C169.075 62.314 170.486 62.1023 171.58 61.8201L171.263 58.3629C170.698 58.5392 170.063 58.6098 169.322 58.6098Z" fill="#15366F"/>
<path d="M208.323 44.5991C205.712 44.5991 203.807 45.8691 202.714 47.6683V44.9519H198.551V62.0264H202.961V53.7714C202.961 50.7728 204.724 48.268 206.912 48.268C208.57 48.268 209.064 49.3264 209.064 51.0903V62.0264H213.438V50.0319C213.403 47.0333 212.168 44.5991 208.323 44.5991Z" fill="#15366F"/>
<path d="M227.174 36.9196V44.7512C226.434 44.6454 225.728 44.6101 225.022 44.6101C219.343 44.6101 215.956 48.5965 215.956 54.3821C215.956 59.2504 218.037 62.3901 222.2 62.3901C224.705 62.3901 226.539 61.1554 227.457 59.3915V62.0021H231.549V36.8843H227.174V36.9196ZM227.174 53.1474C227.174 56.0754 225.799 58.7565 223.505 58.7565C221.495 58.7565 220.577 57.0985 220.577 53.8882C220.577 49.6549 222.377 48.0674 224.881 48.0674C225.622 48.0674 226.398 48.1732 227.174 48.3496V53.1474Z" fill="#15366F"/>
</g>
<defs>
<clipPath id="clip0">
<rect width="231.5" height="62.4" fill="white"/>
</clipPath>
</defs>
</svg>
