<svg width="1321" height="356" viewBox="0 0 1321 356" fill="none" xmlns="http://www.w3.org/2000/svg">
<g clip-path="url(#clip0)">
<path d="M152.153 115.724C122.159 126.391 111.892 155.373 111.892 155.373C107.866 166.04 97.1968 174.091 85.1185 174.091H28.552C12.8503 174.091 -0.0332031 161.21 -0.0332031 145.511C-0.0332031 129.813 10.6359 117.535 28.552 117.535H73.4429L8.42157 52.5271C-2.65016 41.4576 -2.65016 23.5451 8.42157 12.4755C19.6946 1.40601 37.4094 1.40601 48.6824 12.4755L113.502 76.8801V32.4007C113.502 16.9033 125.983 4.02242 142.088 4.02242C157.789 4.02242 170.27 16.9033 170.27 32.4007V88.9559C170.069 101.032 163.023 112.303 152.153 115.724ZM141.886 355.43C126.185 355.43 113.704 345.165 114.308 327.454V282.371L49.085 347.379C38.0133 358.449 19.6946 358.449 8.82418 347.379C-2.24755 336.31 -2.24755 317.995 8.82418 307.328L73.4429 242.722H28.9546C12.8503 242.722 0.369403 229.841 0.369403 214.344C0.369403 198.846 12.8503 185.764 28.9546 185.764H85.7224C97.8007 185.764 108.47 192.808 112.496 203.677C122.762 233.866 151.75 244.131 151.75 244.131C163.023 248.156 170.472 258.42 170.472 270.899V327.253C170.472 342.951 157.991 355.43 141.886 355.43ZM324.469 242.319H279.377L344.6 307.328C355.671 318.397 355.671 336.31 344.6 347.379C333.528 358.449 315.612 358.449 304.339 347.379L239.519 282.773V327.253C239.519 344.159 226.635 355.832 210.934 355.832C195.232 355.832 182.348 342.951 182.348 327.253V270.698C182.348 258.622 189.998 247.552 200.667 243.929C230.662 233.665 240.928 204.482 240.928 204.482C244.954 193.815 255.623 185.764 267.702 185.764H324.469C340.171 185.764 353.055 198.645 353.055 214.344C353.055 229.841 341.379 242.319 324.469 242.319ZM324.872 173.688H268.104C256.026 173.688 244.954 166.644 241.331 155.977C231.265 125.989 201.674 115.322 201.674 115.322C191.005 111.296 182.952 101.032 182.952 88.5534V31.9982C182.952 16.5008 195.836 4.02242 211.538 4.02242C227.239 4.02242 239.72 15.4945 239.72 31.9982V77.2826L304.943 11.8717C316.015 0.802213 333.931 0.802213 345.204 11.8717C356.275 22.9413 356.275 41.2563 345.204 52.3258L280.988 116.529H325.275C340.976 116.529 353.86 129.41 353.86 145.109C353.86 160.807 340.574 173.688 324.872 173.688Z" fill="black"/>
<path d="M458.435 86.1606H460.649L496.28 143.118H527.885L497.085 96.8276C493.864 92.1986 490.241 86.5632 486.416 81.7328C504.936 78.5126 519.027 63.8203 519.027 44.0964C519.027 16.9257 500.105 3.84355 470.916 3.84355C455.617 3.84355 443.136 4.04481 432.869 4.64861V143.118H458.435V86.1606V86.1606ZM458.435 25.5801C461.052 25.1776 464.675 24.9763 468.5 24.9763C484.604 24.9763 492.455 34.2344 492.455 46.9141C492.455 59.1912 482.994 67.8456 467.695 67.8456C463.87 67.8456 460.247 67.6443 458.435 67.443V25.5801Z" fill="black"/>
<path d="M580.545 43.7342C550.953 43.7342 530.621 65.672 530.621 96.0629C530.621 130.882 548.739 145.171 576.317 145.171C605.305 145.171 626.241 123.234 626.241 92.6414C626.442 59.0303 608.526 43.7342 580.545 43.7342ZM578.532 123.837C564.239 123.837 556.791 113.573 556.791 93.6477C556.791 73.7226 567.862 65.0682 578.934 65.0682C593.629 65.0682 600.474 75.3327 600.474 94.0503C600.474 113.774 590.811 123.837 578.532 123.837Z" fill="black"/>
<path d="M690.58 148.8L729.231 45.7527H702.256L690.782 78.9613C687.561 88.0182 683.535 101.1 681.321 109.956H681.119C678.905 101.1 676.288 91.4397 673.47 82.9866L660.385 45.7527H632.202L668.236 143.366L665.015 152.02C659.781 167.316 651.125 171.14 642.871 171.14C638.845 171.14 634.215 170.335 630.592 169.128L627.572 190.663C631.397 191.468 637.235 192.072 641.261 192.072C664.21 192.072 677.898 182.612 690.58 148.8Z" fill="black"/>
<path d="M762.272 145.244C776.162 145.244 787.637 138.2 792.669 128.136V143.231H816.624C816.021 135.181 815.819 125.923 815.819 118.073V77.8204C815.819 56.0838 806.761 43.4042 776.565 43.4042C763.48 43.4042 749.389 46.2219 739.726 50.0459L743.752 69.3673C752.408 65.5433 764.285 62.7256 773.143 62.7256C786.026 62.7256 790.656 67.9584 790.656 79.833V83.4558C756.434 83.4558 734.291 94.3241 734.291 117.469C734.492 133.369 744.558 145.244 762.272 145.244ZM790.656 99.9594V102.576C790.656 114.249 782.403 126.124 770.324 126.124C763.078 126.124 758.649 121.092 758.649 114.652C758.649 106.199 765.493 99.9594 790.656 99.9594Z" fill="black"/>
<path d="M1013.56 99.2743C1013.56 84.582 1003.9 71.9023 989.805 69.0846V68.6821C1002.49 63.6505 1009.73 51.5746 1009.73 38.2912C1009.73 17.1585 993.831 4.88135 965.447 4.88135C949.342 4.88135 932.634 5.28388 921.562 5.88768V143.351C938.271 143.351 951.355 143.754 960.213 143.754C999.065 143.552 1013.56 119.602 1013.56 99.2743ZM947.128 25.6116C951.154 25.4103 955.985 25.209 961.421 25.209C976.921 25.209 982.759 32.4545 982.759 42.3165C982.759 54.1911 974.908 61.8391 957.395 61.8391C953.369 61.8391 950.148 61.8391 946.927 61.6379V25.6116H947.128ZM947.128 81.1605C949.946 80.9592 956.589 80.9592 958.401 80.9592C975.915 80.9592 986.382 87.3997 986.382 100.079C986.382 111.753 977.928 123.023 961.219 123.023C956.589 123.023 950.148 122.621 947.128 122.42V81.1605Z" fill="black"/>
<path d="M861.227 0.272949H836.119V143.472H861.227V0.272949Z" fill="black"/>
<path d="M1028.3 117.347C1028.3 133.247 1038.57 145.121 1056.28 145.121C1070.17 145.121 1081.65 138.077 1086.68 128.014V143.31H1110.64C1110.03 135.259 1109.83 126.001 1109.83 118.152V77.8991C1109.83 56.1625 1100.77 43.4829 1070.58 43.4829C1057.49 43.4829 1043.4 46.3006 1033.74 50.1246L1037.97 69.446C1046.62 65.622 1058.5 62.8043 1067.36 62.8043C1080.24 62.8043 1084.87 68.0371 1084.87 79.9117V83.3332C1050.45 83.3332 1028.3 94.2015 1028.3 117.347ZM1084.67 102.453C1084.67 114.127 1076.41 126.001 1064.34 126.001C1057.09 126.001 1052.46 120.97 1052.46 114.529C1052.46 106.076 1059.3 99.8369 1084.67 99.8369V102.453Z" fill="black"/>
<path d="M1155.33 96.2393C1155.33 79.1318 1165.4 64.8421 1177.88 64.8421C1187.34 64.8421 1189.96 70.88 1189.96 80.9432V143.335H1214.92V74.9053C1214.92 57.7978 1207.87 43.9106 1185.93 43.9106C1171.03 43.9106 1160.16 51.1561 1153.92 61.4206V45.9232H1130.17V143.536H1155.33V96.2393Z" fill="black"/>
<path d="M475.431 254.164C445.84 254.164 425.508 276.102 425.508 306.493C425.508 341.311 443.625 355.601 471.204 355.601C500.192 355.601 521.127 333.663 521.127 303.071C521.329 269.46 503.413 254.164 475.431 254.164ZM473.418 334.267C459.126 334.267 451.677 324.003 451.677 304.077C451.677 283.951 462.749 275.498 473.821 275.498C488.516 275.498 495.36 285.762 495.36 304.48C495.36 324.204 485.698 334.267 473.418 334.267Z" fill="black"/>
<path d="M546.851 248.408V256.459H529.74V275.981H546.851V354.072H571.813V275.981H594.56V256.459H571.813V248.207C571.813 235.326 576.644 229.489 587.716 229.489C591.339 229.489 595.969 229.892 599.794 231.301L601.606 210.772C596.573 209.564 590.937 209.162 585.703 209.162C559.131 209.162 546.851 222.042 546.851 248.408Z" fill="black"/>
<path d="M664.551 252.293C664.551 242.834 671.395 236.393 686.292 236.393C694.143 236.393 701.792 237.802 709.039 240.016L711.455 217.676C704.007 216.066 694.747 215.059 687.5 215.059C655.492 215.059 637.375 231.362 637.375 254.91C637.375 298.584 693.136 290.534 693.136 315.893C693.136 328.371 682.87 333.202 670.993 333.202C660.324 333.202 650.661 330.988 642.206 327.566L639.388 352.12C648.245 354.536 658.311 355.743 669.986 355.743C700.585 355.743 721.319 337.428 721.319 312.874C721.319 271.011 664.551 276.043 664.551 252.293Z" fill="black"/>
<path d="M780.886 333.821C764.178 333.821 758.138 322.147 758.138 305.644C758.138 287.53 765.788 275.655 780.684 275.655C787.126 275.655 793.568 277.265 799.003 279.278L802.828 257.743C796.588 255.529 788.938 254.321 781.49 254.321C747.671 254.321 731.768 277.668 731.768 308.059C731.768 341.267 748.677 355.356 775.652 355.356C785.113 355.356 795.581 353.746 803.231 350.928L799.808 329.997C794.172 332.412 787.529 333.821 780.886 333.821Z" fill="black"/>
<path d="M858.636 254.164C829.045 254.164 808.713 276.102 808.713 306.493C808.713 341.311 826.83 355.601 854.409 355.601C883.397 355.601 904.332 333.663 904.332 303.071C904.534 269.46 886.618 254.164 858.636 254.164ZM856.623 334.267C842.331 334.267 834.882 324.003 834.882 304.077C834.882 283.951 845.954 275.498 857.026 275.498C871.721 275.498 878.566 285.762 878.566 304.48C878.566 324.204 868.903 334.267 856.623 334.267Z" fill="black"/>
<path d="M1259.52 98.4011L1289.77 143.472H1321.15L1282.35 90.414L1318.3 45.914H1287.48L1258.95 81.8563V0.272949H1233.85V143.472H1258.95L1259.52 98.4011Z" fill="black"/>
<path d="M1116.21 288.624C1116.21 266.887 1107.15 254.208 1076.96 254.208C1063.87 254.208 1049.78 257.025 1040.12 260.849L1044.14 279.97C1052.8 276.347 1064.68 273.328 1073.54 273.328C1086.42 273.328 1091.05 278.561 1091.05 290.435V294.058C1056.83 294.058 1034.68 304.926 1034.68 328.072C1034.68 343.972 1044.95 355.846 1062.46 355.846C1076.35 355.846 1087.83 348.802 1092.86 338.739V354.035H1116.82C1116.21 345.984 1116.01 336.726 1116.01 328.877V288.624H1116.21ZM1091.05 312.977C1091.05 324.851 1082.8 336.525 1070.72 336.525C1063.47 336.525 1058.84 331.493 1058.84 325.053C1058.84 316.6 1065.68 310.36 1091.05 310.36V312.977Z" fill="black"/>
<path d="M995.326 353.99H1020.43V210.792H995.326V353.99Z" fill="black"/>
<path d="M966.197 334.376C957.541 334.376 954.723 330.754 954.723 318.275V275.406H978.477V255.883H954.723V215.027L929.761 221.668V255.883H912.852V275.406H929.761V324.917C929.761 347.66 936.404 355.509 957.944 355.509C964.788 355.509 972.84 354.301 979.081 352.691L977.269 332.967C974.048 333.974 970.425 334.376 966.197 334.376Z" fill="black"/>
<path d="M1188.75 254.444C1173.85 254.444 1162.98 261.689 1156.74 271.954V256.457H1132.98V353.868H1158.15V306.773C1158.15 289.665 1168.21 275.375 1180.69 275.375C1190.15 275.375 1192.97 281.413 1192.97 291.476V353.868H1217.93V285.439C1217.73 268.331 1210.69 254.444 1188.75 254.444Z" fill="black"/>
<path d="M1296.32 210.631V255.311C1292.09 254.708 1288.06 254.506 1284.04 254.506C1251.63 254.506 1232.3 277.249 1232.3 310.257C1232.3 338.031 1244.18 355.944 1267.93 355.944C1282.23 355.944 1292.69 348.899 1297.93 338.836V353.73H1321.28V210.43H1296.32V210.631ZM1296.32 303.212C1296.32 319.917 1288.47 335.213 1275.38 335.213C1263.91 335.213 1258.67 325.754 1258.67 307.439C1258.67 283.287 1268.94 274.23 1283.23 274.23C1287.46 274.23 1291.89 274.834 1296.32 275.84V303.212Z" fill="black"/>
</g>
<defs>
<clipPath id="clip0">
<rect width="1321" height="356" fill="white"/>
</clipPath>
</defs>
</svg>
