<svg width="864" height="347" viewBox="0 0 864 347" fill="none" xmlns="http://www.w3.org/2000/svg">
<path d="M100.869 135.243C114.511 142.688 173.626 183.633 173.213 203.485C172.8 212.998 164.945 223.751 154.61 217.961C139.728 210.516 67.3833 162.954 42.9929 157.163C38.0321 170.812 35.1384 178.67 31.4178 191.491C23.9766 216.72 -5.37455 181.565 1.6532 158.818C11.1613 126.558 25.2168 94.2981 43.4063 68.6556C35.9652 58.7295 32.658 42.186 58.702 38.0501C68.2101 36.3958 73.1709 35.155 82.679 35.155C103.762 35.155 164.945 36.8094 167.425 62.4518C169.079 87.6807 128.153 124.904 100.869 135.243ZM85.5728 73.2051C79.3719 80.6497 73.5843 89.7486 68.2101 100.088C81.4388 95.5388 109.55 84.372 122.779 76.5138C112.03 74.0323 98.8015 73.6187 85.5728 73.2051Z" fill="white"/>
<path d="M245.144 119.113C232.329 129.453 196.363 134.416 179 123.249C177.76 128.626 176.107 133.589 184.375 136.07C204.218 142.274 222.821 138.138 241.423 130.28C255.066 124.49 258.786 128.212 256.719 135.657C255.065 141.447 251.345 148.892 244.317 155.095C232.742 165.021 210.005 174.534 186.028 174.534C169.906 174.534 145.515 167.089 146.755 144.756C147.996 116.218 161.224 90.5757 179.827 72.3778C195.536 57.0751 217.033 45.4946 237.289 45.4946C246.384 45.4946 261.266 53.7664 265.814 65.7604C273.255 85.199 253.825 112.496 245.144 119.113ZM204.218 98.0203C210.419 99.6746 217.86 98.4338 222.821 96.7795C228.608 94.7116 235.222 88.5077 237.289 83.1311C227.368 83.9583 212.072 88.9213 204.218 98.0203Z" fill="white"/>
<path d="M289.791 170.812C273.669 170.812 263.334 161.299 259.613 144.756C255.893 128.626 260.854 113.323 267.881 100.915C279.456 81.4769 318.316 48.3899 339.399 45.9083C355.935 44.254 359.655 56.6616 362.549 68.6557C369.164 96.7796 358.415 104.638 351.388 103.397C341.053 101.329 342.293 88.0943 336.919 88.0943C326.584 88.0943 302.607 107.533 293.925 117.045C288.551 122.836 286.484 125.317 286.484 130.694C286.484 134.416 292.272 137.311 305.5 135.243C318.729 133.175 342.706 119.941 350.974 121.181C356.762 122.008 357.175 132.762 350.974 141.447C337.745 160.059 311.288 170.812 289.791 170.812Z" fill="white"/>
<path d="M407.609 99.6744C397.687 122.835 389.419 143.101 386.112 162.126C382.392 186.528 353.454 165.435 357.588 140.62C364.202 99.2608 392.313 45.4944 411.743 10.3395C420.837 -6.61763 432.826 1.24054 438.2 10.3395C444.401 20.2656 446.055 35.1547 442.334 38.877C433.653 48.3895 411.743 88.9211 407.609 99.6744Z" fill="white"/>
<path d="M436.961 159.644C431.173 183.219 405.129 158.404 411.744 134.002C416.704 114.15 424.972 91.816 437.788 69.4823C455.15 39.2904 476.234 85.6122 466.725 97.1927C454.737 110.427 442.335 136.483 436.961 159.644ZM479.954 56.2475C441.922 56.2475 452.257 4.54904 477.887 5.7898C490.702 6.20339 493.596 15.7159 495.25 27.7099C496.49 38.0496 491.529 56.2475 479.954 56.2475Z" fill="white"/>
<path d="M559.327 141.033C556.846 147.651 555.193 153.855 553.539 160.886C552.299 167.917 550.232 171.639 545.685 172.88C534.523 176.602 520.467 155.923 527.495 131.934C529.149 125.731 534.936 112.082 542.791 97.1931C530.389 106.706 512.613 125.731 490.703 159.231C489.463 164.608 484.502 171.639 477.887 170.398C468.793 168.33 458.871 152.2 463.418 136.07C469.206 114.15 480.781 82.7175 494.837 58.3158C510.546 30.6055 528.735 56.2479 527.495 71.5506C539.07 59.5566 551.059 50.0441 560.153 48.8033C576.689 46.7354 597.359 74.4457 587.024 89.3349C574.209 107.533 563.874 129.866 559.327 141.033Z" fill="white"/>
<path d="M604.799 159.644C599.011 183.219 572.967 158.404 579.581 134.002C584.542 114.15 592.81 91.816 605.626 69.4823C622.988 39.2904 644.071 85.6122 634.563 97.1927C622.575 110.427 610.173 136.483 604.799 159.644ZM647.792 56.2475C609.759 56.2475 620.094 4.54904 645.725 5.7898C658.54 6.20339 661.434 15.7159 663.088 27.7099C664.328 38.0496 659.367 56.2475 647.792 56.2475Z" fill="white"/>
<path d="M722.205 141.86C719.724 148.064 718.484 154.268 716.83 160.885C715.59 167.503 713.523 171.225 709.389 172.466C698.641 176.188 684.999 155.922 691.613 132.761C693.267 126.971 698.641 113.323 706.495 99.2609C694.507 108.36 677.144 126.971 656.061 159.231C654.821 164.194 649.86 171.225 643.659 169.984C634.564 167.916 625.47 152.2 629.604 136.484C635.391 115.391 646.553 84.7853 659.782 61.2108C674.664 34.3276 692.853 59.1429 691.613 74.032C702.775 62.4516 714.35 53.3527 723.445 52.1119C739.567 50.044 759.41 76.9271 749.489 91.4027C736.673 109.601 726.752 131.107 722.205 141.86Z" fill="white"/>
<path d="M835.475 157.99C823.9 181.151 802.403 227.473 770.985 227.473C756.516 227.473 739.98 216.72 733.366 210.102C725.511 202.244 721.79 197.281 724.684 188.182C731.299 168.743 766.024 201.83 789.174 167.503C783.8 168.743 778.012 169.571 771.398 169.571C757.343 169.571 742.46 152.2 742.047 136.07C742.047 121.181 744.527 106.705 756.929 89.7481C767.678 74.859 797.029 54.1796 819.352 63.2785C823.486 64.9329 827.62 66.5872 831.341 69.0687L833.408 63.2785C840.849 43.4263 852.837 49.2165 859.038 59.9698C864.412 69.0687 864.412 82.3035 863.172 93.0568C861.105 107.532 850.357 128.212 835.475 157.99ZM798.682 101.742C785.454 107.532 768.918 122.422 769.331 131.934C769.331 136.897 801.99 126.557 814.805 114.15C816.045 110.427 817.699 106.292 819.352 102.569C811.911 100.501 803.643 99.6742 798.682 101.742Z" fill="white"/>
<path d="M264.988 338.314C257.96 359.407 230.262 337.073 229.022 321.357C228.195 312.672 228.609 294.474 228.609 282.066C217.447 296.542 205.045 322.184 197.604 339.141C188.923 359.407 166.599 330.043 166.186 316.808C164.946 281.239 176.934 228.3 193.057 199.762C204.632 179.083 231.089 205.139 219.514 224.991C217.034 229.541 213.726 239.467 209.179 250.634C217.034 239.053 225.302 225.405 234.81 215.065C250.105 198.522 268.708 221.683 264.161 235.745C263.334 239.053 262.507 248.566 260.854 257.251C273.256 235.331 285.658 209.689 300.126 189.836C315.009 169.157 332.785 212.584 319.556 230.781C298.473 258.905 275.323 306.054 264.988 338.314Z" fill="white"/>
<path d="M416.704 281.653C405.129 299.437 391.074 309.363 366.683 312.258C346.014 314.74 318.316 299.437 316.249 279.998C314.182 263.868 317.076 257.251 322.863 243.189C329.891 225.405 365.443 190.663 388.593 190.25C411.744 189.836 423.319 204.312 429.106 224.164C433.654 242.362 432 257.251 416.704 281.653ZM393.141 225.405C379.499 227.886 360.069 246.084 352.628 258.905C325.757 305.227 405.129 272.554 400.169 229.127C399.342 224.991 398.928 224.578 393.141 225.405Z" fill="white"/>
<path d="M694.506 323.425C693.266 330.456 691.199 334.178 686.238 335.419C671.769 339.555 656.474 322.598 658.54 298.61C660.607 274.208 664.328 247.739 668.875 238.64C656.06 249.807 639.938 268.832 624.229 294.06C617.201 317.221 588.263 298.61 592.397 275.863C593.224 270.072 599.011 253.529 606.452 237.813C596.531 246.084 582.062 260.973 565.939 284.548C563.459 288.27 563.873 292.82 562.632 296.956C556.018 323.839 527.08 295.715 533.695 271.727C539.482 249.807 551.057 217.96 565.113 192.731C574.207 176.188 584.542 179.083 589.917 189.836C592.81 196.04 595.291 205.966 593.637 212.997C609.76 196.454 621.335 186.528 627.949 184.46C644.485 179.083 655.647 202.658 652.34 213.411C665.568 198.108 680.037 185.287 690.785 183.219C707.321 180.737 727.991 207.621 717.656 222.923C705.254 240.708 695.746 316.394 694.506 323.425Z" fill="white"/>
<path d="M498.97 261.801C509.305 267.177 526.254 276.276 525.841 291.165C525.841 298.61 520.053 302.332 511.785 298.196C500.623 292.406 473.339 282.48 455.15 278.344C451.429 288.684 449.362 294.474 446.468 303.987C440.681 323.012 418.771 296.542 424.145 279.585C431.586 255.183 438.614 237.399 452.669 217.96C446.882 210.516 453.083 197.281 464.244 194.799C471.272 193.145 474.993 192.731 482.02 192.731C497.73 192.731 540.723 203.071 542.79 222.51C544.443 241.121 519.64 253.529 498.97 261.801ZM484.501 221.269C479.954 227.059 475.406 233.677 471.686 241.535C481.607 238.226 502.69 229.541 512.612 223.751C504.344 221.683 494.422 221.269 484.501 221.269Z" fill="white"/>
</svg>
