<svg width="227" height="43" viewBox="0 0 227 43" fill="none" xmlns="http://www.w3.org/2000/svg">
<path fill-rule="evenodd" clip-rule="evenodd" d="M213.127 14.6689C213.127 19.0071 227 17.0359 227 25.7025C227 35.7957 215.898 35.7359 209.869 32.9909C209.216 32.6677 209.06 32.1749 209.06 31.5674V29.4331C209.06 28.664 209.381 28.4395 209.919 28.4395C210.303 28.4395 210.632 28.6123 210.957 28.8886C215.617 32.5094 222.096 32.1119 222.096 28.3409C222.096 23.6118 208.399 25.4214 208.399 16.6998C208.399 8.97361 217.861 7.37569 224.923 10.3421C225.587 10.6022 225.752 11.158 225.752 11.7655V13.5686C225.752 14.3458 225.422 14.5623 224.873 14.5623C224.596 14.5623 224.17 14.3458 223.837 14.1244C219.927 11.4343 213.127 11.1031 213.127 14.6689Z" fill="white"/>
<path fill-rule="evenodd" clip-rule="evenodd" d="M208.157 0.23584C212.903 0.23584 210.009 9.94778 207.441 9.94778H206.299C205.904 9.94778 205.635 9.72966 205.635 9.45822C205.635 8.74247 206.514 7.90716 206.514 5.59671C206.514 3.32343 204.872 1.67542 204.872 1.00653C204.872 0.676924 204.981 0.23584 205.575 0.23584H208.157Z" fill="white"/>
<path fill-rule="evenodd" clip-rule="evenodd" d="M192.724 36.479C191.363 40.0286 187.452 42.9999 183.257 42.9999C182.546 42.9999 181.909 42.9999 180.97 42.7155C180.27 42.554 179.892 42.1242 179.892 41.5716V38.4469C179.892 38.0607 180.224 37.6827 180.6 37.6827C181.196 37.6827 181.63 37.8442 182.283 38.0139C186.577 39.224 190.386 37.8442 190.498 33.7808L180.6 10.6861C180.379 10.1383 180.321 9.97839 180.321 9.8152C180.321 9.48722 180.485 9.3208 180.81 9.3208H186.753C187.234 9.3208 187.452 9.48722 187.617 9.92507L193.153 24.7361L193.482 25.7734L193.807 24.7361L199.191 9.92507C199.303 9.54215 199.574 9.3208 199.962 9.3208H202.452C202.723 9.3208 202.949 9.54215 202.949 9.8152C202.949 10.0301 202.835 10.1884 202.723 10.5245L192.724 36.479Z" fill="white"/>
<path fill-rule="evenodd" clip-rule="evenodd" d="M177.557 9.15147C178.26 9.3195 178.64 9.76543 178.64 10.3067V13.7707C178.64 14.1407 178.314 14.535 177.924 14.535C177.338 14.535 176.782 14.3071 176.085 14.1407C173.135 13.5413 168.692 13.7061 168.692 18.4288V33.2317C168.692 33.6195 168.41 33.8958 168.043 33.8958H162.813C162.54 33.8958 162.271 33.6195 162.271 33.2317V9.9787C162.271 9.58932 162.54 9.3195 162.813 9.3195H167.878C168.25 9.3195 168.527 9.58932 168.527 9.9787L168.638 12.9338C169.677 11.4037 172.126 8.87842 175.147 8.87842C175.854 8.87842 176.516 8.87842 177.557 9.15147Z" fill="white"/>
<path fill-rule="evenodd" clip-rule="evenodd" d="M156.943 9.3208C157.309 9.3208 157.591 9.59062 157.591 9.98V25.3339C157.591 32.1344 152.16 34.4432 146.718 34.4432C141.329 34.4432 135.893 32.1344 135.893 25.9947V9.98C135.893 9.59062 136.163 9.3208 136.439 9.3208H141.662C142.037 9.3208 142.31 9.59062 142.31 9.98V27.255C142.31 29.8433 143.946 31.4251 146.718 31.4251C150.101 31.4251 151.179 29.5089 151.179 25.9398V9.98C151.179 9.59062 151.456 9.3208 151.729 9.3208H156.943Z" fill="white"/>
<path fill-rule="evenodd" clip-rule="evenodd" d="M123.504 9.0235C129.107 9.0235 132.638 13.9627 132.638 20.5369C132.638 28.9951 126.82 34.5854 119.637 34.5854C115.714 34.5854 112.844 33.2072 110.945 31.7353C110.131 31.1326 109.963 30.0953 109.963 29.2148V0.899809C109.963 0.518506 110.232 0.24707 110.503 0.24707H115.714C116.095 0.24707 116.372 0.518506 116.372 0.899809V11.817C117.404 10.9462 119.797 9.0235 123.504 9.0235ZM120.066 31.6254C123.546 31.6254 126.009 28.0111 126.009 21.8569C126.009 19.5594 125.505 13.0837 120.564 13.0837C118.6 13.0837 117.181 14.1792 116.372 14.7802V29.6026C116.372 30.0953 116.473 30.5784 117.135 31.0227C117.675 31.3443 118.493 31.6254 120.066 31.6254Z" fill="white"/>
<path fill-rule="evenodd" clip-rule="evenodd" d="M93.1572 14.6689C93.1572 19.0071 107.019 17.0359 107.019 25.7025C107.019 35.7957 95.9184 35.7359 89.8996 32.9909C89.2317 32.6677 89.0715 32.1749 89.0715 31.5674V29.4331C89.0715 28.664 89.4079 28.4395 89.9476 28.4395C90.3224 28.4395 90.6539 28.6123 90.9791 28.8886C95.6589 32.5094 102.123 32.1119 102.123 28.3409C102.123 23.6118 88.4293 25.4214 88.4293 16.6998C88.4293 8.97361 97.8804 7.37569 104.958 10.3421C105.607 10.6022 105.768 11.158 105.768 11.7655V13.5686C105.768 14.3458 105.446 14.5623 104.907 14.5623C104.633 14.5623 104.187 14.3458 103.87 14.1244C99.948 11.4343 93.1572 11.1031 93.1572 14.6689Z" fill="white"/>
<path fill-rule="evenodd" clip-rule="evenodd" d="M77.4615 8.74902C82.7052 8.74902 85.0547 11.8301 85.0547 16.2878V33.3011C85.0547 33.6904 84.7777 33.9667 84.3981 33.9667H79.1544C78.8886 33.9667 78.6195 33.6904 78.6195 33.3011V16.8436C78.6195 14.971 78.4001 12.7624 74.7869 12.7624C72.9338 12.7624 70.7556 13.8578 69.7162 14.4766V33.3011C69.7162 33.6904 69.4423 33.9667 69.0515 33.9667H63.8191C63.5452 33.9667 63.2713 33.6904 63.2713 33.3011V9.96079C63.2713 9.57303 63.5452 9.29028 63.8191 9.29028H68.8946C69.2853 9.29028 69.5512 9.57303 69.5512 9.96079L69.6649 11.2226C71.2954 10.2258 74.4633 8.74902 77.4615 8.74902Z" fill="white"/>
<path fill-rule="evenodd" clip-rule="evenodd" d="M57.2653 9.38878C57.6401 9.38878 57.9108 9.66345 57.9108 10.0399V33.2994C57.9108 33.6888 57.6401 33.9635 57.2653 33.9635H52.0441C51.7718 33.9635 51.4979 33.6888 51.4979 33.2994V10.0399C51.4979 9.66345 51.7718 9.38878 52.0441 9.38878H57.2653ZM54.6099 0C56.8857 0.00323138 58.0277 1.4315 58.0277 3.07628C58.0277 5.05227 56.7192 6.36906 54.5986 6.36906C52.4717 6.36906 51.0639 5.05227 51.0639 3.07628C51.0639 1.4315 52.2058 0.00323138 54.5874 0H54.6099Z" fill="white"/>
<path fill-rule="evenodd" clip-rule="evenodd" d="M36.8113 8.70215C44.4861 8.70215 46.8245 11.7752 46.8245 16.22V33.2849C46.8245 33.6662 46.5442 33.9344 46.1726 33.9344H41.2221C40.9514 33.9344 40.6871 33.6662 40.6871 33.2849L40.5654 31.8566C38.8213 33.3867 36.76 34.487 34.2583 34.487C29.6873 34.487 25.773 31.8566 25.773 26.9175C25.773 20.9297 32.3508 19.6275 35.2385 19.2381C39.9712 18.6306 40.4084 18.3074 40.4084 17.0407C40.4084 14.3522 39.92 12.1533 36.595 12.1533C33.9332 12.1533 31.9232 13.092 29.9019 14.4605C29.5768 14.6851 29.0915 15.2893 28.4397 15.2893C28.1194 15.2893 27.522 14.9533 27.522 14.1939V11.7267C27.522 11.2226 27.735 10.7298 28.334 10.4019C30.5122 9.30965 33.8787 8.70215 36.8113 8.70215ZM40.4084 28.5671V21.311C34.3672 21.311 32.0849 24.0609 32.0849 27.0273C32.0849 29.1148 33.1708 31.1861 36.0489 31.1861C38.5586 31.1861 40.4084 29.2764 40.4084 28.5671Z" fill="white"/>
<path fill-rule="evenodd" clip-rule="evenodd" d="M5.81863 7.71641C5.81863 13.9627 23.0615 13.3115 23.0615 23.4565C23.0615 34.4739 10.0581 37.0073 0.919321 32.6675C0.381182 32.3315 0.273874 32.0616 0.273874 31.5672V28.7786C0.273874 28.2745 0.440441 27.7849 1.36297 27.7849C1.85466 27.7849 2.17017 28.0677 2.88289 28.5588C10.4441 33.8761 16.961 30.6931 16.961 26.1353C16.961 18.6288 0 20.9279 0 9.84266C0 4.74838 3.91592 0.24707 11.152 0.24707C14.738 0.24707 17.9924 0.954743 19.8519 1.66565C20.342 1.89346 20.4445 2.16974 20.4445 2.65283V5.84221C20.4445 6.33822 20.2811 6.72114 19.6933 6.72114C19.2 6.72114 18.814 6.44325 18.2183 6.00701C16.0497 4.41878 13.9724 3.48653 11.2545 3.48653C8.21623 3.48653 5.81863 5.18139 5.81863 7.71641Z" fill="white"/>
</svg>
