<svg width="854" height="227" viewBox="0 0 854 227" fill="none" xmlns="http://www.w3.org/2000/svg">
<g clip-path="url(#clip0)">
<path d="M65.2981 187.964C48.2266 187.964 34.5695 197.723 27.7409 204.512C27.7409 204.512 11.523 220.635 0.426535 226.151C-0.000251335 226.575 -0.000251335 227 0.426535 227H99.8678C119.5 227 128.889 220.211 140.413 210.028C140.413 210.028 157.484 194.329 169.007 189.237C170.288 188.813 169.861 187.964 169.007 187.964C169.434 187.964 65.2981 187.964 65.2981 187.964ZM236.013 187.964C218.941 187.964 205.284 197.723 198.456 204.512C198.456 204.512 182.238 220.635 171.141 226.151C170.714 226.575 170.714 227 171.141 227H270.582C290.215 227 299.604 220.211 311.127 210.028C311.127 210.028 327.772 194.329 339.722 189.237C341.002 188.813 341.002 187.964 339.722 187.964C340.149 187.964 236.013 187.964 236.013 187.964ZM407.154 187.964C390.083 187.964 376.426 197.723 369.597 204.512C369.597 204.512 353.379 220.635 342.283 226.151C341.856 226.575 341.856 227 342.283 227H441.724C461.356 227 470.319 220.211 482.269 210.028C482.269 210.028 499.34 194.329 510.863 189.237C512.144 188.813 512.144 187.964 510.863 187.964C511.29 187.964 407.154 187.964 407.154 187.964ZM577.869 187.964C560.797 187.964 547.14 197.723 540.312 204.512C540.312 204.512 523.667 220.635 512.997 226.151C512.57 226.575 512.57 227 512.997 227H612.439C632.071 227 641.46 220.211 652.983 210.028C652.983 210.028 670.055 194.329 681.578 189.237C682.858 188.813 682.432 187.964 681.578 187.964C682.005 187.964 577.869 187.964 577.869 187.964ZM749.01 187.964C731.939 187.964 718.282 197.723 711.453 204.512C711.453 204.512 695.235 220.635 684.139 226.151C683.712 226.575 683.712 227 684.139 227H783.58C803.212 227 812.602 220.211 824.125 210.028C824.125 210.028 840.769 194.329 852.719 189.237C854 188.813 854 187.964 852.719 187.964C853.146 187.964 749.01 187.964 749.01 187.964Z" fill="#0054A4" stroke="white" stroke-width="0.0787" stroke-miterlimit="11.474"/>
<path d="M413.13 0C376.853 0 341.43 10.6075 341.43 46.6729C341.43 109.045 450.687 75.9495 450.687 114.136C450.687 126.441 431.482 131.533 415.691 131.533C387.523 131.533 368.317 127.29 343.564 112.864V144.262C361.916 149.778 386.669 152.748 413.984 152.748C451.541 152.748 486.964 142.989 486.964 106.499C486.964 41.5813 377.707 70.8579 377.707 39.0355C377.707 26.3065 395.205 21.6393 410.569 21.6393C436.176 21.6393 463.918 29.2766 479.282 43.2785V9.75888C459.65 3.81869 433.189 0 413.13 0ZM606.038 0.424299C540.312 0.424299 497.207 31.8224 497.207 79.3439C497.207 123.047 536.898 152.323 596.648 152.323C615.854 152.323 633.352 149.778 653.411 145.11V108.196C639.327 123.047 622.255 128.987 603.904 128.987C568.907 128.987 544.58 107.348 544.58 75.9495C544.58 44.9757 569.334 22.4879 604.33 22.4879C623.536 22.4879 638.473 29.2766 650.85 41.157V4.24299C638.473 1.6972 622.255 0.424299 606.038 0.424299ZM758.827 0.424299C702.491 0.424299 662.373 32.671 662.373 78.4953C662.373 123.047 698.223 152.748 751.572 152.748C808.334 152.748 847.599 121.35 847.599 75.5252C847.599 30.5495 812.175 0.424299 758.827 0.424299ZM5.97559 5.09159V39.8841C18.3524 30.5495 43.9596 26.7308 72.1275 26.7308V122.198C72.1275 136.2 70.8471 140.019 64.8721 147.232H120.354C113.953 140.019 113.099 136.2 113.099 122.198V25.8822C137.426 26.3065 166.447 30.5495 178.824 39.8841V5.09159H5.97559ZM193.762 5.09159C199.737 12.3047 200.59 16.5477 200.59 30.5495V122.622C200.59 136.624 199.737 140.867 194.188 147.656H328.199V112.864C309.848 126.017 274.851 126.017 260.767 125.593H241.135V85.7084H255.646C265.462 85.7084 282.96 86.9813 293.203 89.9514V60.2505C283.387 63.6449 265.462 64.4935 255.646 64.4935H241.135V26.7308H260.767C278.265 26.7308 308.567 30.1252 319.664 39.8841V5.09159H193.762ZM755.413 22.0635C784.861 22.0635 804.493 46.2486 804.493 76.3738C804.493 106.499 784.861 130.684 755.413 130.684C725.538 130.684 705.906 106.499 705.906 76.3738C705.906 46.2486 725.111 22.0635 755.413 22.0635Z" fill="#F02E25" stroke="white" stroke-width="0.03" stroke-miterlimit="3.864"/>
</g>
<defs>
<clipPath id="clip0">
<rect width="854" height="227" fill="white"/>
</clipPath>
</defs>
</svg>
