<svg width="653" height="141" viewBox="0 0 653 141" fill="none" xmlns="http://www.w3.org/2000/svg">
<path d="M628.158 81.5849C627.714 72.2736 621.947 63.4056 607.308 63.4056C594.443 63.4056 587.345 73.1604 586.458 81.5849H628.158ZM651.669 111.736C646.789 127.698 632.15 141 609.526 141C584.24 141 561.615 122.821 561.615 91.7829C561.615 62.5188 583.352 43.0094 606.864 43.0094C635.255 43.0094 652.556 61.1887 652.556 90.8962C652.556 94.4434 652.113 98.4339 652.113 98.4339H586.014C586.458 110.849 597.105 119.273 609.082 119.273C620.616 119.273 627.27 113.509 629.932 105.085L651.669 111.736ZM490.637 85.132C490.637 74.4905 496.848 66.066 507.938 66.066C519.916 66.066 525.239 74.0472 525.239 84.2453V137.896H550.081V79.8113C550.081 59.4151 539.435 43.0094 516.81 43.0094C507.051 43.0094 495.961 47.4433 490.194 56.7547V45.2263H465.795V137.453H490.637V85.132ZM425.426 45.6698H450.268V137.896H425.426V45.6698ZM437.847 0C446.276 0 453.374 7.09434 453.374 15.5189C453.374 23.9434 446.719 30.5943 437.847 30.5943C429.419 30.5943 422.321 23.5 422.321 15.5189C422.321 7.09434 429.419 0 437.847 0ZM298.996 85.132C298.996 74.4905 305.206 66.066 316.297 66.066C328.274 66.066 333.598 74.0472 333.598 84.2453V137.896H358.44V79.8113C358.44 59.4151 347.793 43.0094 325.169 43.0094C315.41 43.0094 304.319 47.4433 298.552 56.7547V45.2263H274.153V137.453H298.996V85.132ZM232.897 45.6698H257.74V137.896H232.897V45.6698ZM244.875 0C253.304 0 260.402 7.09434 260.402 15.5189C260.402 23.9434 253.747 30.5943 244.875 30.5943C236.446 30.5943 229.349 23.5 229.349 15.5189C229.792 7.09434 236.446 0 244.875 0ZM173.897 122.377C165.912 122.377 161.919 117.057 161.919 111.736C161.919 104.641 166.799 101.094 173.453 100.207L194.303 97.1037V101.094C194.303 117.057 184.544 122.377 173.897 122.377ZM137.077 113.066C137.077 127.698 149.054 141 169.017 141C182.769 141 191.641 134.793 196.077 127.255C196.077 130.802 196.521 135.679 196.965 138.34H220.033C219.589 135.236 218.702 128.585 218.702 123.707V78.0376C218.702 59.415 207.611 43.0094 178.333 43.0094C153.491 43.0094 140.182 58.9716 138.851 73.6037L161.032 78.4811C161.919 70.4999 167.686 63.4056 178.776 63.4056C189.423 63.4056 194.303 68.7264 194.303 75.3774C194.303 78.4811 192.529 81.1415 187.205 82.0283L164.581 85.5754C149.054 87.349 137.077 96.6604 137.077 113.066ZM129.535 70.5C126.874 70.0566 124.212 69.6131 121.994 69.6131C109.129 69.6131 98.0387 75.8206 98.0387 95.7735V137.896H73.1963V45.6698H97.5951V59.4151C103.362 47 115.783 44.7829 123.768 44.7829C125.986 44.7829 127.761 44.7829 129.535 45.2263V70.5ZM59.4443 46.9999V68.7264H30.6095C33.2712 67.3962 35.4891 65.1792 37.7072 63.4056C42.1433 58.9716 45.2487 53.6508 47.4668 46.9999H59.4443ZM7.09772 68.7264H0V46.9999H40.3688C37.7071 53.6508 33.7146 58.9716 27.9476 62.9622C22.6243 66.5094 15.5264 68.283 7.09772 68.7264ZM51.9029 117.5C55.0082 117.5 58.1134 117.057 59.4443 116.613V137.453C57.2262 138.34 52.79 139.67 45.6922 139.67C27.9476 139.67 16.8573 129.028 16.8573 111.292V74.4905H41.2561V107.302C41.2561 114.84 44.8051 117.5 51.9029 117.5ZM41.2561 41.2358V19.5094H19.0754V32.3679C19.0754 35.915 18.1882 39.0188 16.4138 41.2358H41.2561ZM411.674 117.5C410.343 117.5 409.012 117.5 407.238 117.5C400.14 117.5 396.591 114.84 396.591 106.858V3.99054H372.192V111.292C372.192 129.028 383.283 139.67 401.027 139.67C405.463 139.67 409.012 139.226 411.674 138.34V117.5Z" fill="black"/>
</svg>
