<svg width="1051" height="227" viewBox="0 0 1051 227" fill="none" xmlns="http://www.w3.org/2000/svg">
<path d="M1011.02 131.346C1010.3 116.355 1001.02 102.079 977.458 102.079C956.753 102.079 945.329 117.783 943.901 131.346H1011.02ZM1048.86 179.887C1041 205.585 1017.44 227 981.028 227C940.331 227 903.917 197.733 903.917 147.764C903.917 100.651 938.903 69.242 976.744 69.242C1022.44 69.242 1050.29 98.5094 1050.29 146.336C1050.29 152.047 1049.57 158.472 1049.57 158.472H943.187C943.901 178.459 961.037 192.022 980.314 192.022C998.878 192.022 1009.59 182.742 1013.87 169.179L1048.86 179.887ZM789.678 137.056C789.678 119.924 799.674 106.362 817.524 106.362C836.802 106.362 845.37 119.211 845.37 135.629V222.003H885.353V128.491C885.353 95.6541 868.217 69.242 831.804 69.242C816.096 69.242 798.246 76.3804 788.964 91.371V72.8112H749.694V221.289H789.678V137.056ZM684.721 73.5251H724.704V222.003H684.721V73.5251ZM704.713 0C718.279 0 729.703 11.4214 729.703 24.9843C729.703 38.5472 718.993 49.2547 704.713 49.2547C691.147 49.2547 679.723 37.8333 679.723 24.9843C679.723 11.4214 691.147 0 704.713 0ZM481.232 137.056C481.232 119.924 491.228 106.362 509.078 106.362C528.356 106.362 536.924 119.211 536.924 135.629V222.003H576.908V128.491C576.908 95.6541 559.772 69.242 523.358 69.242C507.65 69.242 489.8 76.3804 480.518 91.371V72.8112H441.249V221.289H481.232V137.056ZM374.847 73.5251H414.831V222.003H374.847V73.5251ZM394.125 0C407.691 0 419.115 11.4214 419.115 24.9843C419.115 38.5472 408.405 49.2547 394.125 49.2547C380.559 49.2547 369.135 37.8333 369.135 24.9843C369.849 11.4214 380.559 0 394.125 0ZM279.886 197.019C267.034 197.019 260.608 188.453 260.608 179.887C260.608 168.465 268.462 162.755 279.172 161.327L312.73 156.33V162.755C312.73 188.453 297.022 197.019 279.886 197.019ZM220.624 182.028C220.624 205.585 239.902 227 272.032 227C294.166 227 308.446 217.006 315.586 204.871C315.586 210.582 316.3 218.434 317.014 222.717H354.141C353.427 217.72 351.999 207.012 351.999 199.16V125.635C351.999 95.6539 334.15 69.242 287.026 69.242C247.042 69.242 225.622 94.9401 223.48 118.497L259.18 126.349C260.608 113.5 269.89 102.079 287.74 102.079C304.876 102.079 312.73 110.645 312.73 121.352C312.73 126.349 309.874 130.632 301.306 132.06L264.892 137.77C239.902 140.626 220.624 155.616 220.624 182.028ZM208.486 113.5C204.203 112.786 199.918 112.072 196.349 112.072C175.643 112.072 157.793 122.066 157.793 154.189V222.003H117.809V73.5251H157.079V95.6541C166.361 75.6666 186.353 72.0973 199.204 72.0973C202.774 72.0973 205.631 72.0974 208.486 72.8112V113.5ZM95.6752 75.6665V110.645H49.2658C53.5498 108.503 57.1196 104.934 60.6895 102.079C67.8295 94.9402 72.8275 86.3741 76.3975 75.6665H95.6752ZM11.4237 110.645H0V75.6665H64.9733C60.6894 86.3741 54.2635 94.9401 44.9816 101.365C36.4136 107.075 24.9896 109.931 11.4237 110.645ZM83.5374 189.167C88.5354 189.167 93.5332 188.453 95.6752 187.739V221.289C92.1053 222.717 84.9653 224.859 73.5414 224.859C44.9816 224.859 27.1317 207.726 27.1317 179.173V119.924H66.4014V172.748C66.4014 184.884 72.1135 189.167 83.5374 189.167ZM66.4014 66.3867V31.4088H30.7017V52.11C30.7017 57.8207 29.2739 62.8175 26.4179 66.3867H66.4014ZM662.587 189.167C660.445 189.167 658.303 189.167 655.447 189.167C644.023 189.167 638.311 184.883 638.311 172.034V6.42449H599.041V179.173C599.041 207.726 616.891 224.859 645.451 224.859C652.591 224.859 658.303 224.145 662.587 222.717V189.167Z" fill="white"/>
</svg>
