<svg width="82" height="14" viewBox="0 0 82 14" fill="none" xmlns="http://www.w3.org/2000/svg">
<g clip-path="url(#clip0)">
<path d="M14.5778 5.42459C14.5778 5.20804 14.4165 5.06728 14.0833 5.02397L9.68627 4.38515L7.71891 0.357309C7.61141 0.119103 7.4609 0 7.28889 0C7.11688 0 6.96637 0.119103 6.85887 0.357309L4.89151 4.37432L0.494526 5.02397C0.172009 5.07811 0 5.20804 0 5.42459C0 5.5437 0.075254 5.68445 0.215011 5.84687L3.40793 8.9652L2.65539 13.372C2.64464 13.4586 2.63389 13.5128 2.63389 13.5452C2.63389 13.6643 2.66614 13.7726 2.73065 13.8592C2.79515 13.9459 2.88115 13.9892 3.01016 13.9892C3.11767 13.9892 3.23592 13.9567 3.36493 13.8809L7.29964 11.802L11.2343 13.8809C11.3526 13.9567 11.4709 13.9892 11.5891 13.9892C11.7074 13.9892 11.7934 13.9459 11.8579 13.8592C11.9224 13.7726 11.9546 13.6643 11.9546 13.5452C11.9546 13.4694 11.9546 13.4153 11.9439 13.372L11.1913 8.9652L14.3413 5.84687C14.5025 5.69528 14.5778 5.55452 14.5778 5.42459Z" fill="black"/>
</g>
<g clip-path="url(#clip1)">
<path d="M48.5924 5.42459C48.5924 5.20804 48.4244 5.06728 48.0773 5.02397L43.4971 4.38515L41.4478 0.357309C41.3358 0.119103 41.179 0 40.9998 0C40.8206 0 40.6639 0.119103 40.5519 0.357309L38.5026 4.37432L33.9224 5.02397C33.5864 5.07811 33.4072 5.20804 33.4072 5.42459C33.4072 5.5437 33.4856 5.68445 33.6312 5.84687L36.9572 8.9652L36.1733 13.372C36.1621 13.4586 36.1509 13.5128 36.1509 13.5452C36.1509 13.6643 36.1845 13.7726 36.2516 13.8592C36.3188 13.9459 36.4084 13.9892 36.5428 13.9892C36.6548 13.9892 36.778 13.9567 36.9124 13.8809L41.011 11.802L45.1097 13.8809C45.2329 13.9567 45.356 13.9892 45.4792 13.9892C45.6024 13.9892 45.692 13.9459 45.7592 13.8592C45.8264 13.7726 45.86 13.6643 45.86 13.5452C45.86 13.4694 45.86 13.4153 45.8488 13.372L45.0649 8.9652L48.346 5.84687C48.514 5.69528 48.5924 5.55452 48.5924 5.42459Z" fill="black"/>
</g>
<g clip-path="url(#clip2)">
<path d="M31.5856 5.42459C31.5856 5.20804 31.4243 5.06728 31.0911 5.02397L26.6941 4.38515L24.7267 0.357309C24.6192 0.119103 24.4687 0 24.2967 0C24.1247 0 23.9742 0.119103 23.8667 0.357309L21.8993 4.37432L17.5023 5.02397C17.1798 5.07811 17.0078 5.20804 17.0078 5.42459C17.0078 5.5437 17.0831 5.68445 17.2228 5.84687L20.4157 8.9652L19.6632 13.372C19.6525 13.4586 19.6417 13.5128 19.6417 13.5452C19.6417 13.6643 19.674 13.7726 19.7385 13.8592C19.803 13.9459 19.889 13.9892 20.018 13.9892C20.1255 13.9892 20.2437 13.9567 20.3727 13.8809L24.3075 11.802L28.2422 13.8809C28.3604 13.9567 28.4787 13.9892 28.5969 13.9892C28.7152 13.9892 28.8012 13.9459 28.8657 13.8592C28.9302 13.7726 28.9624 13.6643 28.9624 13.5452C28.9624 13.4694 28.9624 13.4153 28.9517 13.372L28.1992 8.9652L31.3491 5.84687C31.5103 5.69528 31.5856 5.55452 31.5856 5.42459Z" fill="black"/>
</g>
<g clip-path="url(#clip3)">
<path d="M64.9928 5.42459C64.9928 5.20804 64.8316 5.06728 64.4983 5.02397L60.1013 4.38515L58.134 0.357309C58.0264 0.119103 57.8759 0 57.7039 0C57.5319 0 57.3814 0.119103 57.2739 0.357309L55.3065 4.37432L50.9096 5.02397C50.587 5.07811 50.415 5.20804 50.415 5.42459C50.415 5.5437 50.4903 5.68445 50.6301 5.84687L53.823 8.9652L53.0704 13.372C53.0597 13.4586 53.0489 13.5128 53.0489 13.5452C53.0489 13.6643 53.0812 13.7726 53.1457 13.8592C53.2102 13.9459 53.2962 13.9892 53.4252 13.9892C53.5327 13.9892 53.651 13.9567 53.78 13.8809L57.7147 11.802L61.6494 13.8809C61.7676 13.9567 61.8859 13.9892 62.0042 13.9892C62.1224 13.9892 62.2084 13.9459 62.2729 13.8592C62.3374 13.7726 62.3697 13.6643 62.3697 13.5452C62.3697 13.4694 62.3697 13.4153 62.3589 13.372L61.6064 8.9652L64.7563 5.84687C64.9176 5.69528 64.9928 5.55452 64.9928 5.42459Z" fill="black"/>
</g>
<path d="M81.9997 5.42879C81.9997 5.21207 81.8384 5.07121 81.5051 5.02786L77.1081 4.38854L75.1408 0.357585C75.0333 0.119195 74.8828 0 74.7108 0C74.5388 0 74.3882 0.119195 74.2807 0.357585L72.3134 4.37771L67.9164 5.02786C67.5939 5.08204 67.4219 5.21207 67.4219 5.42879C67.4219 5.54799 67.4971 5.68885 67.6369 5.85139L70.8298 8.97214L70.0773 13.3824C70.0665 13.469 70.0558 13.5232 70.0558 13.5557C70.0558 13.6749 70.088 13.7833 70.1525 13.87C70.217 13.9567 70.303 14 70.432 14C70.5395 14 70.6578 13.9675 70.7868 13.8916L74.7215 11.8111L78.6562 13.8916C78.7745 13.9675 78.8927 14 79.011 14C79.1292 14 79.2153 13.9567 79.2798 13.87C79.3443 13.7833 79.3765 13.6749 79.3765 13.5557C79.3765 13.4799 79.3765 13.4257 79.3658 13.3824L78.6132 8.97214L81.7631 5.85139C81.9244 5.69969 81.9997 5.55882 81.9997 5.42879Z" fill="black"/>
<defs>
<clipPath id="clip0">
<rect width="14.5778" height="14" fill="white"/>
</clipPath>
<clipPath id="clip1">
<rect width="15.1852" height="14" fill="white" transform="translate(33.4072)"/>
</clipPath>
<clipPath id="clip2">
<rect width="14.5778" height="14" fill="white" transform="translate(17.0078)"/>
</clipPath>
<clipPath id="clip3">
<rect width="14.5778" height="14" fill="white" transform="translate(50.415)"/>
</clipPath>
</defs>
</svg>
